# Blender v2.79 (sub 0) OBJ File: 'anna_office.blend'
# www.blender.org
o Plane.001
v -10.500000 0.000000 -0.500000
v -10.500000 1.000000 -0.500000
v 2.500000 0.000000 -0.500000
v 2.500000 1.000000 -0.500000
v -10.500000 0.000000 1.000000
v -10.500000 1.000000 1.000000
v 2.500000 0.000000 1.000000
v 2.500000 1.000000 1.000000
v -0.500000 1.000000 1.000000
v -7.500000 1.000000 1.000000
v -7.500000 0.000000 1.000000
v -0.500000 0.000000 1.000000
v -7.500000 1.000000 -0.500000
v -0.500000 1.000000 -0.500000
v -0.500000 0.000000 -0.500000
v -7.500000 0.000000 -0.500000
v -7.500000 0.000000 2.000000
v -7.500000 1.000000 2.000000
v -0.500000 0.000000 2.000000
v -0.500000 1.000000 2.000000
v -0.500000 0.000000 -3.500000
v -0.500000 1.000000 -3.500000
v -7.500000 0.000000 -2.500000
v -7.500000 1.000000 -2.500000
v -6.500000 0.000000 -2.500000
v -6.500000 1.000000 -2.500000
v -6.500000 0.000000 -3.500000
v -6.500000 1.000000 -3.500000
v -3.500000 1.000000 -3.500000
v -3.500000 0.000000 -3.500000
v -2.500000 1.000000 -3.500000
v -2.500000 0.000000 -3.500000
v -2.500000 0.000000 -2.500000
v -3.500000 0.000000 -2.500000
v -3.500000 1.000000 -2.500000
v -2.500000 1.000000 -2.500000
vn -1.0000 0.0000 -0.0000
vn -0.0000 0.0000 1.0000
vn 0.0000 0.0000 -1.0000
vn 1.0000 0.0000 0.0000
s off
f 15//1 14//1 22//1 21//1
f 1//2 16//2 13//2 2//2
f 9//1 12//1 19//1 20//1
f 7//3 12//3 9//3 8//3
f 11//3 5//3 6//3 10//3
f 15//2 3//2 4//2 14//2
f 19//3 17//3 18//3 20//3
f 13//4 16//4 23//4 24//4
f 32//2 21//2 22//2 31//2
f 11//4 10//4 18//4 17//4
f 23//2 25//2 26//2 24//2
f 25//4 27//4 28//4 26//4
f 27//2 30//2 29//2 28//2
f 32//4 31//4 36//4 33//4
f 34//2 33//2 36//2 35//2
f 29//1 30//1 34//1 35//1
