# Blender 3.6.2
# www.blender.org
mtllib anna_office_chair.mtl
o Chair.002
v -3.558714 0.815484 -2.883252 0.7490 0.7490 0.7490
v -3.173640 0.815484 -3.656947 0.7490 0.7490 0.7490
v -2.785020 0.815484 -2.498178 0.7490 0.7490 0.7490
v -2.399946 0.815484 -3.271873 0.7490 0.7490 0.7490
v -3.558714 1.833922 -2.883252 0.7490 0.7490 0.7490
v -3.173640 1.833922 -3.656947 0.7490 0.7490 0.7490
v -3.680121 1.833922 -2.943677 0.7490 0.7490 0.7490
v -3.295047 1.833922 -3.717372 0.7490 0.7490 0.7490
v -2.944854 0.698028 -3.132176 0.4510 0.4510 0.4510
v -2.944854 0.207033 -3.132176 0.4510 0.4510 0.4510
v -3.002114 0.698028 -3.017129 0.4510 0.4510 0.4510
v -3.002114 0.207033 -3.017129 0.4510 0.4510 0.4510
v -3.002114 0.698028 -3.017129 0.2980 0.2980 0.2980
v -3.059901 0.207033 -3.189435 0.4510 0.4510 0.4510
v -3.117160 0.207033 -3.074389 0.4510 0.4510 0.4510
v -2.906596 0.207033 -3.145006 0.4510 0.4510 0.4510
v -2.989283 0.207033 -2.978872 0.4510 0.4510 0.4510
v -3.072731 0.207033 -3.227693 0.4510 0.4510 0.4510
v -3.155418 0.207033 -3.061558 0.4510 0.4510 0.4510
v -2.906596 0.154782 -3.145006 0.4510 0.4510 0.4510
v -2.989283 0.154782 -2.978872 0.4510 0.4510 0.4510
v -3.155418 0.154782 -3.061558 0.4510 0.4510 0.4510
v -3.568003 0.050994 -3.266905 0.1490 0.1490 0.1490
v -3.485317 0.050994 -3.433040 0.1490 0.1490 0.1490
v -3.568003 -0.001257 -3.266905 0.1490 0.1490 0.1490
v -2.494011 0.050994 -2.939659 0.1490 0.1490 0.1490
v -2.576698 0.050994 -2.773525 0.1490 0.1490 0.1490
v -2.576698 -0.001257 -2.773525 0.1490 0.1490 0.1490
v -2.494011 -0.001257 -2.939659 0.1490 0.1490 0.1490
v -2.867384 0.050994 -3.640278 0.1490 0.1490 0.1490
v -2.701249 0.050994 -3.557592 0.1490 0.1490 0.1490
v -2.701249 -0.001257 -3.557592 0.1490 0.1490 0.1490
v -3.194630 0.050994 -2.566286 0.1490 0.1490 0.1490
v -3.360765 0.050994 -2.648973 0.1490 0.1490 0.1490
v -3.360765 -0.001257 -2.648973 0.1490 0.1490 0.1490
v -3.194630 -0.001257 -2.566286 0.1490 0.1490 0.1490
v -3.558714 0.815484 -2.883252 0.6510 0.6510 0.6510
v -3.173640 0.815484 -3.656947 0.6510 0.6510 0.6510
v -3.558714 1.833922 -2.883252 0.6510 0.6510 0.6510
v -3.173640 1.833922 -3.656947 0.6510 0.6510 0.6510
v -2.785020 0.698028 -2.498178 0.5490 0.5490 0.5490
v -2.785020 0.815484 -2.498178 0.5490 0.5490 0.5490
v -2.399946 0.698028 -3.271873 0.5490 0.5490 0.5490
v -2.399946 0.815484 -3.271873 0.5490 0.5490 0.5490
v -3.558714 0.698028 -2.883252 0.4510 0.4510 0.4510
v -3.558714 0.815484 -2.883252 0.4510 0.4510 0.4510
v -2.785020 0.698028 -2.498178 0.4510 0.4510 0.4510
v -2.785020 0.815484 -2.498178 0.4510 0.4510 0.4510
v -3.680121 0.698028 -2.943677 0.4510 0.4510 0.4510
v -3.680121 0.815484 -2.943677 0.4510 0.4510 0.4510
v -3.558714 1.833922 -2.883252 0.4510 0.4510 0.4510
v -3.680121 1.833922 -2.943677 0.4510 0.4510 0.4510
v -3.002114 0.207033 -3.017129 0.2980 0.2980 0.2980
v -3.117160 0.698028 -3.074389 0.2980 0.2980 0.2980
v -3.117160 0.207033 -3.074389 0.2980 0.2980 0.2980
vn -0.0000 1.0000 -0.0000
vn 0.8952 -0.0000 0.4456
vn -0.4456 -0.0000 0.8952
vn -0.2871 0.9472 -0.1429
vn 0.2871 0.9472 0.1429
vn 0.4456 -0.0000 -0.8952
vn 0.1429 0.9472 -0.2871
vn -0.1429 0.9472 0.2871
s 0
f 4//1 2//1 1//1 3//1
f 5//1 6//1 8//1 7//1
f 10//2 9//2 11//2 12//2
f 53//3 13//3 54//3 55//3
f 10//1 12//1 17//1 16//1
f 15//1 14//1 18//1 19//1
f 14//1 10//1 16//1 18//1
f 12//1 15//1 19//1 17//1
f 18//4 24//4 23//4 19//4
f 19//3 23//3 25//3 22//3
f 26//2 27//2 28//2 29//2
f 17//5 27//5 26//5 16//5
f 21//3 28//3 27//3 17//3
f 16//6 26//6 29//6 20//6
f 16//7 31//7 30//7 18//7
f 20//2 32//2 31//2 16//2
f 33//3 34//3 35//3 36//3
f 19//8 34//8 33//8 17//8
f 17//2 33//2 36//2 21//2
f 37//2 38//2 40//2 39//2
f 43//2 44//2 42//2 41//2
f 45//3 46//3 50//3 49//3
f 47//3 48//3 46//3 45//3
f 50//3 46//3 51//3 52//3
