# Blender v2.79 (sub 0) OBJ File: 'cellar.blend'
# www.blender.org
o Plane.001
v -3.500000 0.000000 -6.500000
v -0.500000 0.000000 -6.500000
v -3.500000 1.000000 -6.500000
v -0.500000 1.000000 -6.500000
v -0.500000 0.000000 -2.500000
v -0.500000 1.000000 -2.500000
v -3.500000 0.000000 1.500000
v -3.500000 1.000000 1.500000
v -3.500000 1.000000 3.100000
v -3.500000 0.000000 3.100000
v -6.500000 0.000000 1.500000
v -6.500000 1.000000 1.500000
v -6.500000 0.000000 3.100000
v -6.500000 1.000000 3.100000
v -3.500000 1.000000 5.000000
v -3.500000 0.000000 5.000000
v 6.500000 1.000000 5.000000
v 6.500000 0.000000 5.000000
v 6.500000 1.000000 0.500000
v 6.500000 0.000000 0.500000
v 4.500000 1.000000 0.500000
v 4.500000 0.000000 0.500000
v 4.500000 1.000000 -6.500000
v 4.500000 0.000000 -6.500000
v 1.500000 1.000000 -6.500000
v 1.500000 0.000000 -6.500000
v 1.500000 1.000000 -2.500000
v 1.500000 0.000000 -2.500000
v 3.250000 1.000000 -4.500000
v 3.250000 0.000000 -4.500000
v 2.750000 1.000000 -4.500000
v 2.750000 0.000000 -4.500000
v 3.250000 1.000000 -5.000000
v 3.250000 0.000000 -5.000000
v 2.750000 1.000000 -5.000000
v 2.750000 0.000000 -5.000000
vn 0.0000 0.0000 1.0000
vn -1.0000 0.0000 0.0000
vn 1.0000 0.0000 0.0000
vn 0.0000 0.0000 -1.0000
s off
f 1//1 2//1 4//1 3//1
f 4//2 2//2 5//2 6//2
f 1//3 3//3 8//3 7//3
f 9//4 10//4 13//4 14//4
f 10//3 9//3 15//3 16//3
f 8//1 12//1 11//1 7//1
f 16//4 15//4 17//4 18//4
f 18//2 17//2 19//2 20//2
f 20//1 19//1 21//1 22//1
f 22//2 21//2 23//2 24//2
f 24//1 23//1 25//1 26//1
f 26//3 25//3 27//3 28//3
f 30//1 29//1 31//1 32//1
f 29//3 30//3 34//3 33//3
f 33//4 34//4 36//4 35//4
f 32//2 31//2 35//2 36//2
