# Blender v2.79 (sub 0) OBJ File: 'child_library_brick.blend'
# www.blender.org
o Plane
v 0.500000 -2.000000 -0.000000
v -0.499999 0.000000 -0.000000
v -0.499999 -1.000000 -0.000000
v -0.499999 -2.000000 -0.000000
v -0.499999 -3.000000 -0.000000
v 0.500000 -3.000000 -0.000000
v 0.500000 0.000000 -1.000000
v -0.499999 0.000000 -1.000000
v 0.500000 0.000000 -0.000000
v 0.500000 -1.000000 -0.000000
vt 0.000000 0.750000
vt 0.125000 0.750000
vt 0.125000 0.875000
vt 0.000000 0.875000
vt 0.000000 0.875000
vt 0.125000 0.875000
vt 0.125000 1.000000
vt 0.000000 1.000000
vt 0.125000 1.000000
vt 0.000000 1.000000
vt 0.000000 0.750000
vt 0.125000 0.750000
vn 0.0000 -0.0000 1.0000
vn 0.0000 1.0000 0.0000
s off
f 5/1/1 6/2/1 1/3/1 4/4/1
f 2/5/2 9/6/2 7/7/2 8/8/2
f 4/4/1 1/3/1 10/9/1 3/10/1
f 3/11/1 10/12/1 9/6/1 2/5/1
