# Blender v2.79 (sub 0) OBJ File: 'hallway2.blend'
# www.blender.org
o Cube
v -2.500000 -0.500000 22.000000
v -2.500000 0.500000 22.000000
v 1.500000 -0.500000 22.000000
v 1.500000 0.500000 22.000000
v 1.500000 -0.500000 1.000000
v 1.500000 0.500000 1.000000
v 1.500000 -0.500000 -1.500000
v 1.500000 0.500000 -1.500000
v 7.500000 0.500000 1.000000
v 7.500000 -0.500000 1.000000
v 7.500000 0.500000 -1.500000
v 7.500000 -0.500000 -1.500000
v 1.500000 -0.500000 -22.000000
v 1.500000 0.500000 -22.000000
v -2.500000 0.500000 -26.500000
v -2.500000 -0.500000 -26.500000
v 7.500000 0.500000 -26.500000
v 7.500000 -0.500000 -26.500000
v 11.500000 0.500000 -22.000000
v 11.500000 -0.500000 -22.000000
v 11.500000 0.500000 -47.000000
v 11.500000 -0.500000 -47.000000
v 7.500000 0.500000 -51.500000
v 7.500000 -0.500000 -51.500000
v 17.500000 0.500000 -51.500000
v 17.500000 -0.500000 -51.500000
v 21.500000 0.500000 -47.000000
v 21.500000 -0.500000 -47.000000
v 21.500000 -0.500000 -51.500000
v 17.500000 0.500000 -72.000000
v 17.500000 -0.500000 -72.000000
v 21.500000 0.500000 -72.000000
v 21.500000 -0.500000 -72.000000
v 17.500000 0.500000 -76.500000
v 17.500000 -0.500000 -76.500000
v 37.000000 0.500000 -72.000000
v 37.000000 -0.500000 -72.000000
v 37.000000 0.500000 -76.500000
v 37.000000 -0.500000 -76.500000
v -2.500000 -0.500000 32.299999
v -2.500000 -0.500000 1.000000
v -2.500000 -0.500000 -3.500000
v -2.500000 -0.500000 -16.799999
v -2.500000 0.500000 -16.799999
v -2.500000 0.500000 -3.500000
v -2.500000 0.500000 1.000000
v -2.500000 0.500000 32.299999
v -22.500000 -0.500000 1.000000
v -22.500000 -0.500000 -3.500000
v -22.500000 0.500000 -3.500000
v -22.500000 0.500000 1.000000
vn 0.0000 0.0000 1.0000
vn 0.0000 0.0000 -1.0000
vn -1.0000 0.0000 0.0000
vn 1.0000 0.0000 0.0000
vn 0.0000 1.0000 0.0000
s off
f 16//1 18//1 17//1 15//1
f 5//2 6//2 9//2 10//2
f 5//3 3//3 4//3 6//3
f 7//3 8//3 14//3 13//3
f 8//1 7//1 12//1 11//1
f 14//2 19//2 20//2 13//2
f 19//3 21//3 22//3 20//3
f 18//4 24//4 23//4 17//4
f 24//1 26//1 25//1 23//1
f 21//2 27//2 28//2 22//2
f 27//3 32//3 33//3 29//3 28//3
f 35//1 39//1 38//1 34//1
f 26//5 29//5 33//5 31//5
f 25//4 26//4 31//4 30//4
f 30//4 31//4 35//4 34//4
f 33//2 32//2 36//2 37//2
f 43//4 16//4 15//4 44//4
f 1//3 40//3 47//3 2//3
f 40//4 41//4 46//4 47//4
f 46//2 41//2 48//2 51//2
f 42//4 43//4 44//4 45//4
f 42//1 45//1 50//1 49//1
