# Blender 3.6.2
# www.blender.org
o Table
v -3.630533 0.793356 -6.013941 0.4980 0.4980 0.4980
v -3.630533 1.006519 -6.013941 0.4980 0.4980 0.4980
v -1.235200 1.006519 -6.013941 1.0000 1.0000 1.0000
v -3.630533 0.793356 -4.408775 0.2510 0.2510 0.2510
v -3.630533 1.006519 -4.408775 0.2510 0.2510 0.2510
v -1.235200 0.793356 -4.408775 0.4980 0.4980 0.4980
v -1.235200 1.006519 -4.408775 0.4980 0.4980 0.4980
v -3.630533 0.793356 -4.607857 0.0000 0.0000 0.0000
v -1.424545 0.793356 -6.013941 0.2510 0.2510 0.2510
v -1.424545 0.793356 -5.814860 0.2510 0.2510 0.2510
v -1.235200 0.793356 -5.814860 0.4980 0.4980 0.4980
v -1.424545 0.793356 -4.607857 0.2510 0.2510 0.2510
v -3.441189 0.793356 -5.814860 0.4980 0.4980 0.4980
v -1.235200 1.006519 -5.814860 1.0000 1.0000 1.0000
v -1.235200 1.006519 -4.607857 0.4980 0.4980 0.4980
v -3.630533 0.793356 -5.814860 0.4980 0.4980 0.4980
v -3.630533 0.793356 -4.607857 0.2510 0.2510 0.2510
v -3.630533 1.006519 -4.607857 0.2510 0.2510 0.2510
v -3.630533 1.006519 -5.814860 0.4980 0.4980 0.4980
v -3.441188 1.006519 -6.013941 0.7490 0.7490 0.7490
v -1.424545 1.006519 -6.013941 1.0000 1.0000 1.0000
v -3.441189 0.793356 -4.408775 0.2510 0.2510 0.2510
v -1.424545 0.793356 -4.408775 0.2510 0.2510 0.2510
v -1.424545 1.006519 -4.408775 0.4980 0.4980 0.4980
v -3.441189 1.006519 -4.408775 0.2510 0.2510 0.2510
v -1.424545 1.006519 -4.607857 0.4980 0.4980 0.4980
v -3.441189 1.006519 -4.607857 0.2510 0.2510 0.2510
v -1.424545 1.006519 -5.814860 1.0000 1.0000 1.0000
v -3.441189 1.006519 -5.814860 0.7490 0.7490 0.7490
v -3.630533 0.006519 -6.013941 0.4980 0.4980 0.4980
v -3.630533 0.006519 -4.408775 0.2510 0.2510 0.2510
v -1.235200 0.006519 -4.408775 0.4980 0.4980 0.4980
v -1.424545 0.006519 -6.013941 0.2510 0.2510 0.2510
v -1.424545 0.006519 -5.814860 0.2510 0.2510 0.2510
v -1.235200 0.006519 -5.814860 0.4980 0.4980 0.4980
v -1.424545 0.006519 -4.607857 0.2510 0.2510 0.2510
v -3.441189 0.006519 -5.814860 0.4980 0.4980 0.4980
v -3.630533 0.006519 -5.814860 0.4980 0.4980 0.4980
v -3.630533 0.006519 -4.607857 0.2510 0.2510 0.2510
v -3.441189 0.006519 -4.408775 0.2510 0.2510 0.2510
v -1.424545 0.006519 -4.408775 0.2510 0.2510 0.2510
v -1.424545 0.006519 -5.814860 0.4980 0.4980 0.4980
v -1.424545 0.793356 -5.814860 0.4980 0.4980 0.4980
v -1.424545 0.793356 -4.408775 0.4980 0.4980 0.4980
v -1.424545 0.793356 -4.408775 0.2510 0.2510 0.2510
v -1.424545 0.006519 -4.408775 0.4980 0.4980 0.4980
vn -0.0000 -0.0000 1.0000
vn -1.0000 -0.0000 -0.0000
vn -0.0000 1.0000 -0.0000
s 0
f 22//1 25//1 5//1 4//1
f 16//2 19//2 2//2 1//2
f 29//3 20//3 2//3 19//3
f 25//3 27//3 18//3 5//3
f 27//3 29//3 19//3 18//3
f 4//2 5//2 18//2 17//2
f 17//2 18//2 19//2 16//2
f 15//3 14//3 28//3 26//3
f 26//3 28//3 29//3 27//3
f 7//3 15//3 26//3 24//3
f 24//3 26//3 27//3 25//3
f 14//3 3//3 21//3 28//3
f 28//3 21//3 20//3 29//3
f 6//1 7//1 24//1 44//1
f 23//1 24//1 25//1 22//1
f 10//2 9//2 33//2 34//2
f 4//2 17//2 39//2 31//2
f 16//2 1//2 30//2 38//2
f 12//2 36//2 41//2 45//2
f 43//1 42//1 35//1 11//1
f 22//1 4//1 31//1 40//1
f 6//1 44//1 46//1 32//1
f 13//1 16//1 38//1 37//1
l 17 8
