# Blender v2.79 (sub 0) OBJ File: ''
# www.blender.org
o Cylinder
v 0.149744 -0.391300 -0.361514
v 0.149744 0.391300 -0.361514
v 0.361514 -0.391300 -0.149744
v 0.361514 0.391300 -0.149744
v -0.361514 -0.391300 -0.149744
v -0.361514 0.391300 -0.149744
v -0.149744 -0.391300 -0.361514
v -0.149744 0.391300 -0.361514
v 0.361514 -0.391300 0.100000
v 0.361514 0.391300 0.100000
v -0.361514 -0.391300 0.100000
v -0.361514 0.391300 0.100000
vn 0.7071 0.0000 -0.7071
vn -1.0000 0.0000 0.0000
vn -0.7071 0.0000 -0.7071
vn 0.0000 0.0000 -1.0000
vn 1.0000 -0.0000 0.0000
vn -0.0000 0.0000 1.0000
vn 0.0000 1.0000 0.0000
vn 0.0000 -1.0000 -0.0000
s off
f 1//1 2//1 4//1 3//1
f 11//2 12//2 6//2 5//2
f 5//3 6//3 8//3 7//3
f 7//4 8//4 2//4 1//4
f 3//5 4//5 10//5 9//5
f 9//6 10//6 12//6 11//6
f 4//7 2//7 8//7 6//7 12//7 10//7
f 1//8 3//8 9//8 11//8 5//8 7//8
