# Blender v2.79 (sub 0) OBJ File: ''
# www.blender.org
o Cube
v 1.000000 0.000000 -0.500000
v 1.000000 0.000000 0.500000
v -1.000000 0.000000 0.500000
v -1.000000 0.000000 -0.500000
v 1.000000 1.000000 -0.500000
v 0.999999 1.000000 0.500000
v -1.000000 1.000000 0.500000
v -1.000000 1.000000 -0.500000
v 1.500000 0.000000 0.000000
v 1.500000 0.000000 0.000000
v 1.500001 1.000000 0.000000
v 1.499999 1.000000 0.000000
v -1.500000 0.000000 0.000000
v -1.499999 0.000000 0.000000
v -1.500000 1.000000 0.000000
v -1.500000 1.000000 0.000000
vn -0.0000 -0.0000 1.0000
vn 0.7071 -0.0000 -0.7071
vn 0.0000 0.0000 -1.0000
vn -0.7071 -0.0000 -0.7071
vn -0.7071 -0.0000 0.7071
vn 0.7071 0.0000 0.7071
s off
f 2//1 6//1 7//1 3//1
f 1//2 5//2 11//2 9//2
f 5//3 1//3 4//3 8//3
f 8//4 4//4 14//4 16//4
f 3//5 7//5 15//5 13//5
f 6//6 2//6 10//6 12//6
