# Blender v2.79 (sub 0) OBJ File: ''
# www.blender.org
o Cube.001
v 0.500000 -0.000000 0.500000
v 0.499999 1.000000 0.500000
v -0.500000 1.000000 0.500000
v -0.500000 -0.000000 0.500000
v 0.500000 0.000000 -0.500000
v 0.500000 1.000000 -0.500000
v 1.500001 1.000000 0.000000
v 1.500000 0.000000 0.000000
v -0.500000 0.000000 -0.500000
v -0.500000 1.000000 -0.500000
v -1.499999 0.000000 0.000000
v -1.500000 1.000000 0.000000
v -1.500000 1.000000 0.000000
v -1.500000 0.000000 0.000000
v 1.500000 0.000000 0.000000
v 1.499999 1.000000 0.000000
vn 0.0000 -0.0000 1.0000
vn 0.4472 -0.0000 -0.8944
vn 0.0000 0.0000 -1.0000
vn -0.4472 -0.0000 -0.8944
vn -0.4472 -0.0000 0.8944
vn 0.4472 0.0000 0.8944
s 1
f 1//1 2//1 3//1 4//1
f 5//2 6//2 7//2 8//2
f 6//3 5//3 9//3 10//3
f 10//4 9//4 11//4 12//4
f 4//5 3//5 13//5 14//5
f 2//6 1//6 15//6 16//6
