# Blender v2.79 (sub 0) OBJ File: 'entrance_open.blend'
# www.blender.org
o Cube.001
v 2.500000 0.000000 -0.500000
v 2.500000 1.000000 -0.500000
v 2.500000 0.000000 -4.000000
v 2.500000 1.000000 -4.000000
v -3.500000 0.000000 -4.000000
v -3.500000 1.000000 -4.000000
v -3.500000 0.000000 0.500000
v -3.500000 1.000000 0.500000
v -2.500000 0.000000 0.500000
v -2.500000 1.000000 0.500000
v -1.500000 1.000000 -0.500000
v -1.500000 0.000000 -0.500000
v -2.500000 1.000000 -3.500000
v -2.500000 0.000000 -3.500000
v -1.500000 1.000000 -3.500000
v -1.500000 0.000000 -3.500000
vn -1.0000 0.0000 0.0000
vn 1.0000 0.0000 0.0000
vn 0.0000 0.0000 -1.0000
vn 0.0000 0.0000 1.0000
s off
f 12//1 11//1 15//1 16//1
f 2//2 1//2 3//2 4//2
f 4//3 3//3 5//3 6//3
f 5//1 7//1 8//1 6//1
f 8//4 7//4 9//4 10//4
f 1//4 2//4 11//4 12//4
f 9//2 14//2 13//2 10//2
