# Blender v2.79 (sub 0) OBJ File: 'entrance.blend'
# www.blender.org
o Cube
v 0.500000 0.000000 -0.500000
v -0.500000 2.000000 -0.500000
v 0.500000 2.000000 -0.500000
v -0.500000 0.000000 -0.500000
v 0.500000 1.000000 -0.500000
v -0.500000 1.000000 -0.500000
v 2.500000 3.000000 -0.500000
v 1.500000 3.000000 -0.500000
v 1.500000 2.000000 -0.500000
v 2.500000 0.000000 -0.500000
v 1.500000 0.000000 -0.500000
v 1.500000 1.000000 -0.500000
v 2.500000 1.000000 -0.500000
v -1.500000 2.000000 -0.500000
v -1.500000 3.000000 -0.500000
v -2.500000 3.000000 -0.500000
v -2.500000 2.000000 -0.500000
v -1.500000 0.000000 -0.500000
v -2.500000 0.000000 -0.500000
v -1.500000 1.000000 -0.500000
v -3.500000 3.000000 -0.500000
v -3.500000 2.000000 -0.500000
v -2.500000 1.000000 -0.500000
v -3.500000 1.000000 -1.500000
v -3.500000 0.000000 -0.500000
v -3.500000 0.000000 -1.500000
v -3.500000 1.000000 -0.500000
v -3.500000 2.000000 -1.500000
v -3.500000 0.000000 -2.500000
v -3.500000 2.000000 -2.500000
v -3.500000 1.000000 -2.500000
v -3.500000 3.000000 -3.500000
v -3.500000 2.000000 -3.500000
v -3.500000 2.000000 -4.500000
v -3.500000 1.000000 -3.500000
v -3.500000 0.000000 -3.500000
v -3.500000 0.000000 -4.500000
v -3.500000 1.000000 -4.500000
v 2.499999 2.000000 -2.500001
v 2.499999 2.000000 -3.500001
v 2.499999 0.000000 -2.500001
v 2.499999 1.000000 -2.500001
v 2.499999 3.000000 -2.500001
v 2.499999 2.000000 -1.500001
v 2.499999 0.000000 -1.500001
v 2.499999 1.000000 -1.500001
v 2.499999 2.000000 -0.500001
v 2.499999 0.000000 -4.500001
v 2.499999 0.000000 -3.500001
v 2.499999 1.000000 -4.500001
v 2.499999 1.000000 -3.500001
v 2.499999 2.000000 -4.500001
v 2.499999 3.000000 -4.500001
v 2.500000 3.000000 -1.500000
v 1.500000 3.000000 -1.500000
v 0.500000 3.000000 -1.500000
v 0.500000 3.000000 -0.500000
v -0.500000 3.000000 -0.500000
v -3.500000 3.000000 -1.500000
v -0.500000 3.000000 -2.500000
v -0.500000 3.000000 -1.500000
v -1.500000 3.000000 -2.500000
v -2.500000 3.000000 -2.500000
v -2.500000 3.000000 -1.500000
v -1.500000 3.000000 -1.500000
v 1.500000 3.000000 -3.500000
v 1.500000 3.000000 -2.500000
v 0.500000 3.000000 -3.500000
v -0.500000 3.000000 -3.500000
v 0.500000 3.000000 -2.500000
v -1.500000 3.000000 -3.500000
v -3.500000 3.000000 -2.500000
v 1.500000 3.000000 -4.500000
v 2.500000 3.000000 -3.500000
v 0.500000 3.000000 -4.500000
v -0.500000 3.000000 -4.500000
v -1.500000 3.000000 -4.500000
v -2.500000 3.000000 -4.500000
v -3.500000 3.000000 -4.500000
v -2.500000 3.000000 -3.500000
vt 0.875000 0.750000
vt 0.875000 0.875000
vt 0.750000 0.875000
vt 0.750000 0.750000
vt 0.875000 0.625000
vt 0.750000 0.625000
vt 0.625000 0.750000
vt 0.625000 0.625000
vt 0.625000 0.875000
vt 0.750000 1.000000
vt 0.625000 1.000000
vt 0.500000 1.000000
vt 0.500000 0.875000
vt 1.000000 0.750000
vt 1.000000 0.875000
vt 0.875000 0.875000
vt 0.875000 0.750000
vt 1.000000 1.000000
vt 0.875000 1.000000
vt 0.875000 1.000000
vt 0.875000 0.750000
vt 0.875000 0.875000
vt 0.750000 0.875000
vt 0.750000 0.750000
vt 0.875000 0.625000
vt 0.750000 0.625000
vt 0.875000 1.000000
vt 0.750000 1.000000
vt 0.625000 0.750000
vt 0.625000 0.625000
vt 0.625000 0.875000
vt 0.625000 1.000000
vt 0.500000 1.000000
vt 0.500000 0.875000
vt 0.500000 0.750000
vt 0.500000 0.625000
vt 0.875000 0.750000
vt 0.875000 0.875000
vt 0.750000 0.875000
vt 0.750000 0.750000
vt 0.875000 0.625000
vt 0.750000 0.625000
vt 0.875000 1.000000
vt 0.750000 1.000000
vt 0.625000 0.750000
vt 0.625000 0.625000
vt 0.625000 0.875000
vt 0.625000 1.000000
vt 0.500000 1.000000
vt 0.500000 0.875000
vt 0.500000 0.750000
vt 0.500000 0.625000
vt 0.875000 0.750000
vt 0.875000 0.875000
vt 0.750000 0.875000
vt 0.750000 0.750000
vt 0.875000 0.625000
vt 0.750000 0.625000
vt 0.875000 1.000000
vt 0.750000 1.000000
vt 0.875000 0.750000
vt 0.875000 0.875000
vt 0.750000 0.875000
vt 0.750000 0.750000
vt 0.875000 0.625000
vt 0.750000 0.625000
vt 0.875000 1.000000
vt 0.750000 1.000000
vt 0.625000 0.750000
vt 0.625000 0.625000
vt 0.625000 0.875000
vt 0.625000 1.000000
vt 0.500000 1.000000
vt 0.500000 0.875000
vt 0.500000 0.750000
vt 0.500000 0.625000
vt 0.625000 0.625000
vt 0.625000 0.750000
vt 0.500000 0.750000
vt 0.500000 0.625000
vt 0.625000 0.875000
vt 0.500000 0.875000
vt 0.625000 1.000000
vt 0.500000 1.000000
vt 1.000000 0.625000
vt 1.000000 0.750000
vt 0.875000 0.750000
vt 0.875000 0.625000
vt 1.000000 0.625000
vt 1.000000 0.750000
vt 0.875000 0.750000
vt 0.875000 0.625000
vt 1.000000 0.625000
vt 1.000000 0.750000
vt 0.875000 0.750000
vt 0.875000 0.625000
vt 1.000000 0.625000
vt 1.000000 0.750000
vt 0.875000 0.750000
vt 0.875000 0.625000
vt 1.000000 0.625000
vt 1.000000 0.750000
vt 0.875000 0.750000
vt 0.875000 0.625000
vt 1.000000 0.625000
vt 1.000000 0.750000
vt 0.875000 0.750000
vt 0.875000 0.625000
vt 1.000000 0.625000
vt 1.000000 0.750000
vt 0.875000 0.750000
vt 0.875000 0.625000
vt 1.000000 0.625000
vt 1.000000 0.750000
vt 0.875000 0.750000
vt 0.875000 0.625000
vt 1.000000 0.625000
vt 1.000000 0.750000
vt 0.875000 0.750000
vt 0.875000 0.625000
vt 1.000000 0.625000
vt 1.000000 0.750000
vt 0.875000 0.750000
vt 0.875000 0.625000
vt 1.000000 0.625000
vt 1.000000 0.750000
vt 0.875000 0.750000
vt 0.875000 0.625000
vt 1.000000 0.625000
vt 1.000000 0.750000
vt 0.875000 0.750000
vt 0.875000 0.625000
vt 1.000000 0.625000
vt 1.000000 0.750000
vt 0.875000 0.750000
vt 0.875000 0.625000
vt 1.000000 0.625000
vt 1.000000 0.750000
vt 0.875000 0.750000
vt 0.875000 0.625000
vt 1.000000 0.625000
vt 1.000000 0.750000
vt 0.875000 0.750000
vt 0.875000 0.625000
vt 1.000000 0.625000
vt 1.000000 0.750000
vt 0.875000 0.750000
vt 0.875000 0.625000
vt 1.000000 0.625000
vt 1.000000 0.750000
vt 0.875000 0.750000
vt 0.875000 0.625000
vt 1.000000 0.625000
vt 1.000000 0.750000
vt 0.875000 0.750000
vt 0.875000 0.625000
vt 1.000000 0.625000
vt 1.000000 0.750000
vt 0.875000 0.750000
vt 0.875000 0.625000
vt 1.000000 0.625000
vt 1.000000 0.750000
vt 0.875000 0.750000
vt 0.875000 0.625000
vt 1.000000 0.625000
vt 1.000000 0.750000
vt 0.875000 0.750000
vt 0.875000 0.625000
vt 1.000000 0.625000
vt 1.000000 0.750000
vt 0.875000 0.750000
vt 0.875000 0.625000
vt 1.000000 0.625000
vt 1.000000 0.750000
vt 0.875000 0.750000
vt 0.875000 0.625000
vt 1.000000 0.625000
vt 1.000000 0.750000
vt 0.875000 0.750000
vt 0.875000 0.625000
vn 0.0000 0.0000 1.0000
vn -1.0000 0.0000 0.0000
vn 1.0000 0.0000 0.0000
vn 0.0000 1.0000 0.0000
s off
f 13/1/1 47/2/1 9/3/1 12/4/1
f 10/5/1 13/1/1 12/4/1 11/6/1
f 11/6/1 12/4/1 5/7/1 1/8/1
f 12/4/1 9/3/1 3/9/1 5/7/1
f 9/3/1 8/10/1 57/11/1 3/9/1
f 3/9/1 57/11/1 58/12/1 2/13/1
f 1/14/1 5/15/1 6/16/1 4/17/1
f 5/15/1 3/18/1 2/19/1 6/16/1
f 47/2/1 7/20/1 8/10/1 9/3/1
f 6/21/1 2/22/1 14/23/1 20/24/1
f 4/25/1 6/21/1 20/24/1 18/26/1
f 2/22/1 58/27/1 15/28/1 14/23/1
f 18/26/1 20/24/1 23/29/1 19/30/1
f 20/24/1 14/23/1 17/31/1 23/29/1
f 14/23/1 15/28/1 16/32/1 17/31/1
f 17/31/1 16/32/1 21/33/1 22/34/1
f 23/29/1 17/31/1 22/34/1 27/35/1
f 19/30/1 23/29/1 27/35/1 25/36/1
f 27/37/2 22/38/2 28/39/2 24/40/2
f 25/41/2 27/37/2 24/40/2 26/42/2
f 22/38/2 21/43/2 59/44/2 28/39/2
f 26/42/2 24/40/2 31/45/2 29/46/2
f 24/40/2 28/39/2 30/47/2 31/45/2
f 28/39/2 59/44/2 72/48/2 30/47/2
f 30/47/2 72/48/2 32/49/2 33/50/2
f 31/45/2 30/47/2 33/50/2 35/51/2
f 29/46/2 31/45/2 35/51/2 36/52/2
f 35/53/2 33/54/2 34/55/2 38/56/2
f 36/57/2 35/53/2 38/56/2 37/58/2
f 33/54/2 32/59/2 79/60/2 34/55/2
f 51/61/3 40/62/3 39/63/3 42/64/3
f 49/65/3 51/61/3 42/64/3 41/66/3
f 40/62/3 74/67/3 43/68/3 39/63/3
f 41/66/3 42/64/3 46/69/3 45/70/3
f 42/64/3 39/63/3 44/71/3 46/69/3
f 39/63/3 43/68/3 54/72/3 44/71/3
f 44/71/3 54/72/3 7/73/3 47/74/3
f 46/69/3 44/71/3 47/74/3 13/75/3
f 45/70/3 46/69/3 13/75/3 10/76/3
f 48/77/3 50/78/3 51/79/3 49/80/3
f 50/78/3 52/81/3 40/82/3 51/79/3
f 52/81/3 53/83/3 74/84/3 40/82/3
f 7/85/4 54/86/4 55/87/4 8/88/4
f 8/89/4 55/90/4 56/91/4 57/92/4
f 57/93/4 56/94/4 61/95/4 58/96/4
f 58/97/4 61/98/4 65/99/4 15/100/4
f 15/101/4 65/102/4 64/103/4 16/104/4
f 16/105/4 64/106/4 59/107/4 21/108/4
f 54/109/4 43/110/4 67/111/4 55/112/4
f 55/113/4 67/114/4 70/115/4 56/116/4
f 56/117/4 70/118/4 60/119/4 61/120/4
f 61/121/4 60/122/4 62/123/4 65/124/4
f 65/125/4 62/126/4 63/127/4 64/128/4
f 64/129/4 63/130/4 72/131/4 59/132/4
f 43/133/4 74/134/4 66/135/4 67/136/4
f 67/137/4 66/138/4 68/139/4 70/140/4
f 70/141/4 68/142/4 69/143/4 60/144/4
f 60/145/4 69/146/4 71/147/4 62/148/4
f 62/149/4 71/150/4 80/151/4 63/152/4
f 63/153/4 80/154/4 32/155/4 72/156/4
f 74/157/4 53/158/4 73/159/4 66/160/4
f 66/161/4 73/162/4 75/163/4 68/164/4
f 68/165/4 75/166/4 76/167/4 69/168/4
f 69/169/4 76/170/4 77/171/4 71/172/4
f 71/173/4 77/174/4 78/175/4 80/176/4
f 80/177/4 78/178/4 79/179/4 32/180/4
