# Blender v2.79 (sub 0) OBJ File: ''
# www.blender.org
mtllib grass.mtl
o Plane
v -14.499998 -0.000002 -10.499968
v -10.499997 -0.000002 -14.499968
v -14.499997 -0.000002 -14.499968
v -10.499998 -0.000002 -10.499968
v -6.499996 -0.000001 -14.499968
v -10.499997 -0.000002 -14.499968
v -6.499996 -0.000001 -10.499966
v -2.499999 -0.000000 -14.499968
v -6.499996 -0.000001 -14.499968
v -2.500000 -0.000000 -10.499967
v 1.500001 0.000000 -14.499968
v -2.499999 -0.000000 -14.499968
v 1.500001 0.000000 -10.499967
v 5.500000 0.000001 -14.499968
v 1.500001 0.000000 -14.499968
v 5.500001 0.000001 -10.499967
v 9.500002 0.000002 -14.499968
v 5.500000 0.000001 -14.499968
v 9.499999 0.000002 -10.499967
v 13.500002 0.000002 -14.499967
v 9.500002 0.000002 -14.499968
v 13.499999 0.000002 -10.499966
v 14.500002 0.000002 -14.499967
v 13.500002 0.000002 -14.499967
v -14.499998 -0.000002 -6.499975
v -10.499998 -0.000002 -10.499968
v -14.499998 -0.000002 -10.499968
v -10.499998 -0.000002 -6.499975
v -6.499996 -0.000001 -10.499966
v -10.499998 -0.000002 -10.499968
v -6.499996 -0.000001 -6.499974
v -2.500000 -0.000000 -10.499967
v -6.499996 -0.000001 -10.499966
v -2.500000 -0.000000 -6.499973
v 1.500001 0.000000 -10.499967
v -2.500000 -0.000000 -10.499967
v 1.500000 0.000000 -6.499974
v 5.500001 0.000001 -10.499967
v 1.500001 0.000000 -10.499967
v 5.500000 0.000001 -6.499973
v 9.499999 0.000002 -10.499967
v 5.500001 0.000001 -10.499967
v 9.500000 0.000002 -6.499973
v 13.499999 0.000002 -10.499966
v 9.499999 0.000002 -10.499967
v 13.500000 0.000002 -6.499973
v 14.499999 0.000002 -10.499966
v 13.499999 0.000002 -10.499966
v -14.499998 -0.000002 -2.499975
v -10.499998 -0.000002 -6.499975
v -14.499998 -0.000002 -6.499975
v -10.499998 -0.000002 -2.499974
v -6.499996 -0.000001 -6.499974
v -10.499998 -0.000002 -6.499975
v -6.499996 -0.000001 -2.499974
v -2.500000 -0.000000 -6.499973
v -6.499996 -0.000001 -6.499974
v -2.500000 -0.000000 -2.499974
v 1.500000 0.000000 -6.499974
v -2.500000 -0.000000 -6.499973
v 1.500000 0.000000 -2.499974
v 5.500000 0.000001 -6.499973
v 1.500000 0.000000 -6.499974
v 5.500000 0.000001 -2.499974
v 9.500000 0.000002 -6.499973
v 5.500000 0.000001 -6.499973
v 9.500000 0.000002 -2.499973
v 13.500000 0.000002 -6.499973
v 9.500000 0.000002 -6.499973
v 13.500000 0.000002 -2.499973
v 14.500000 0.000002 -6.499973
v 13.500000 0.000002 -6.499973
v -14.499998 -0.000002 1.500027
v -10.499998 -0.000002 -2.499974
v -14.499998 -0.000002 -2.499975
v -10.499998 -0.000002 1.500027
v -6.499996 -0.000001 -2.499974
v -10.499998 -0.000002 -2.499974
v -6.499996 -0.000001 1.500027
v -2.500000 -0.000000 -2.499974
v -6.499996 -0.000001 -2.499974
v -2.500000 -0.000000 1.500027
v 1.500000 0.000000 -2.499974
v -2.500000 -0.000000 -2.499974
v 1.500000 0.000000 1.500027
v 5.500000 0.000001 -2.499974
v 1.500000 0.000000 -2.499974
v 5.500000 0.000001 1.500027
v 9.500000 0.000002 -2.499973
v 5.500000 0.000001 -2.499974
v 9.500000 0.000002 1.500028
v 13.500000 0.000002 -2.499973
v 9.500000 0.000002 -2.499973
v 13.500000 0.000002 1.500028
v 14.499999 0.000002 -2.499973
v 13.500000 0.000002 -2.499973
v -14.499998 -0.000002 5.500027
v -10.499998 -0.000002 1.500027
v -14.499998 -0.000002 1.500027
v -10.499998 -0.000002 5.500027
v -6.499996 -0.000001 1.500027
v -10.499998 -0.000002 1.500027
v -6.499997 -0.000001 5.500027
v -2.500000 -0.000000 1.500027
v -6.499996 -0.000001 1.500027
v -2.500000 -0.000000 5.500027
v 1.500000 0.000000 1.500027
v -2.500000 -0.000000 1.500027
v 1.500000 0.000000 5.500027
v 5.500000 0.000001 1.500027
v 1.500000 0.000000 1.500027
v 5.500000 0.000001 5.500028
v 9.500000 0.000002 1.500028
v 5.500000 0.000001 1.500027
v 9.500000 0.000002 5.500028
v 13.500000 0.000002 1.500028
v 9.500000 0.000002 1.500028
v 13.500000 0.000002 5.500027
v 14.500000 0.000002 1.500027
v 13.500000 0.000002 1.500028
v -14.499999 -0.000002 9.500027
v -10.499998 -0.000002 5.500027
v -14.499998 -0.000002 5.500027
v -10.499999 -0.000002 9.500028
v -6.499997 -0.000001 5.500027
v -10.499998 -0.000002 5.500027
v -6.499997 -0.000001 9.500028
v -2.500000 -0.000000 5.500027
v -6.499997 -0.000001 5.500027
v -2.500001 -0.000000 9.500028
v 1.500000 0.000000 5.500027
v -2.500000 -0.000000 5.500027
v 1.500000 0.000000 9.500028
v 5.500000 0.000001 5.500028
v 1.500000 0.000000 5.500027
v 5.500000 0.000001 9.500028
v 9.500000 0.000002 5.500028
v 5.500000 0.000001 5.500028
v 9.500000 0.000002 9.500027
v 13.500000 0.000002 5.500027
v 9.500000 0.000002 5.500028
v 13.500000 0.000002 9.500029
v 14.500000 0.000002 5.500027
v 13.500000 0.000002 5.500027
v -14.499998 -0.000002 13.500028
v -10.499999 -0.000002 9.500028
v -14.499999 -0.000002 9.500027
v -10.499998 -0.000002 13.500029
v -6.499997 -0.000001 9.500028
v -10.499999 -0.000002 9.500028
v -6.499996 -0.000001 13.500029
v -2.500001 -0.000000 9.500028
v -6.499997 -0.000001 9.500028
v -2.500000 -0.000000 13.500029
v 1.500000 0.000000 9.500028
v -2.500001 -0.000000 9.500028
v 1.499999 0.000000 13.500029
v 5.500000 0.000001 9.500028
v 1.500000 0.000000 9.500028
v 5.500000 0.000001 13.500029
v 9.500000 0.000002 9.500027
v 5.500000 0.000001 9.500028
v 9.499999 0.000002 13.500029
v 13.500000 0.000002 9.500029
v 9.500000 0.000002 9.500027
v 13.499999 0.000002 13.500031
v 14.500000 0.000002 9.500029
v 13.500000 0.000002 9.500029
v -14.499998 -0.000002 14.500028
v -10.499998 -0.000002 13.500029
v -14.499998 -0.000002 13.500028
v -10.499998 -0.000002 14.500029
v -6.499996 -0.000001 13.500029
v -10.499998 -0.000002 13.500029
v -6.499996 -0.000001 14.500029
v -2.500000 -0.000000 13.500029
v -6.499996 -0.000001 13.500029
v -2.500000 -0.000000 14.500029
v 1.499999 0.000000 13.500029
v -2.500000 -0.000000 13.500029
v 1.499999 0.000000 14.500029
v 5.500000 0.000001 13.500029
v 1.499999 0.000000 13.500029
v 5.500000 0.000001 14.500029
v 9.499999 0.000002 13.500029
v 5.500000 0.000001 13.500029
v 9.499999 0.000002 14.500029
v 13.499999 0.000002 13.500031
v 9.499999 0.000002 13.500029
v 13.499999 0.000002 14.500031
v 14.499999 0.000002 13.500031
v 13.499999 0.000002 13.500031
v -10.499998 -0.000002 -10.499968
v -6.499996 -0.000001 -10.499966
v -2.500000 -0.000000 -10.499967
v 1.500001 0.000000 -10.499967
v 5.500001 0.000001 -10.499967
v 9.499999 0.000002 -10.499967
v 13.499999 0.000002 -10.499966
v 14.499999 0.000002 -10.499966
v -10.499998 -0.000002 -6.499975
v -6.499996 -0.000001 -6.499974
v -2.500000 -0.000000 -6.499973
v 1.500000 0.000000 -6.499974
v 5.500000 0.000001 -6.499973
v 9.500000 0.000002 -6.499973
v 13.500000 0.000002 -6.499973
v 14.500000 0.000002 -6.499973
v -10.499998 -0.000002 -2.499974
v -6.499996 -0.000001 -2.499974
v -2.500000 -0.000000 -2.499974
v 1.500000 0.000000 -2.499974
v 5.500000 0.000001 -2.499974
v 9.500000 0.000002 -2.499973
v 13.500000 0.000002 -2.499973
v 14.499999 0.000002 -2.499973
v -10.499998 -0.000002 1.500027
v -6.499996 -0.000001 1.500027
v -2.500000 -0.000000 1.500027
v 1.500000 0.000000 1.500027
v 5.500000 0.000001 1.500027
v 9.500000 0.000002 1.500028
v 13.500000 0.000002 1.500028
v 14.500000 0.000002 1.500027
v -10.499998 -0.000002 5.500027
v -6.499997 -0.000001 5.500027
v -2.500000 -0.000000 5.500027
v 1.500000 0.000000 5.500027
v 5.500000 0.000001 5.500028
v 9.500000 0.000002 5.500028
v 13.500000 0.000002 5.500027
v 14.500000 0.000002 5.500027
v -10.499999 -0.000002 9.500028
v -6.499997 -0.000001 9.500028
v -2.500001 -0.000000 9.500028
v 1.500000 0.000000 9.500028
v 5.500000 0.000001 9.500028
v 9.500000 0.000002 9.500027
v 13.500000 0.000002 9.500029
v 14.500000 0.000002 9.500029
v -10.499998 -0.000002 13.500029
v -6.499996 -0.000001 13.500029
v -2.500000 -0.000000 13.500029
v 1.499999 0.000000 13.500029
v 5.500000 0.000001 13.500029
v 9.499999 0.000002 13.500029
v 13.499999 0.000002 13.500031
v 14.499999 0.000002 13.500031
v -10.499998 -0.000002 14.500029
v -6.499996 -0.000001 14.500029
v -2.500000 -0.000000 14.500029
v 1.499999 0.000000 14.500029
v 5.500000 0.000001 14.500029
v 9.499999 0.000002 14.500029
v 13.499999 0.000002 14.500031
v 14.499999 0.000002 14.500031
vt -2.000000 -3.031250
vt -2.984375 -2.031250
vt -2.984375 -3.031250
vt -2.000000 -2.031250
vt -2.984375 -1.023438
vt -2.984375 -2.031250
vt -2.000000 -1.023438
vt -2.984375 -0.000000
vt -2.984375 -1.023438
vt -2.000000 -0.000000
vt -2.984375 1.000000
vt -2.984375 -0.000000
vt -2.000000 1.000000
vt -2.984375 1.992188
vt -2.984375 1.000000
vt -2.000000 1.992188
vt -2.984375 3.015625
vt -2.984375 1.992188
vt -2.000000 3.015625
vt -2.984375 4.007812
vt -2.984375 3.015625
vt -2.000000 4.007812
vt -2.984375 4.273438
vt -2.984375 4.007812
vt -0.992188 -3.031250
vt -2.000000 -2.031250
vt -2.000000 -3.031250
vt -0.992188 -2.031250
vt -2.000000 -1.023438
vt -2.000000 -2.031250
vt -0.992188 -1.023438
vt -2.000000 -0.000000
vt -2.000000 -1.023438
vt -0.992188 -0.000000
vt -2.000000 1.000000
vt -2.000000 -0.000000
vt -0.992188 1.000000
vt -2.000000 1.992188
vt -2.000000 1.000000
vt -0.992188 1.992188
vt -2.000000 3.015625
vt -2.000000 1.992188
vt -0.992188 3.015625
vt -2.000000 4.007812
vt -2.000000 3.015625
vt -0.992188 4.007812
vt -2.000000 4.273438
vt -2.000000 4.007812
vt -0.007812 -3.031250
vt -0.992188 -2.031250
vt -0.992188 -3.031250
vt -0.007812 -2.031250
vt -0.992188 -1.023438
vt -0.992188 -2.031250
vt -0.007812 -1.023438
vt -0.992188 -0.000000
vt -0.992188 -1.023438
vt -0.007812 -0.000000
vt -0.992188 1.000000
vt -0.992188 -0.000000
vt -0.007812 1.000000
vt -0.992188 1.992188
vt -0.992188 1.000000
vt -0.007812 1.992188
vt -0.992188 3.015625
vt -0.992188 1.992188
vt -0.007812 3.015625
vt -0.992188 4.007812
vt -0.992188 3.015625
vt -0.007812 4.007812
vt -0.992188 4.273438
vt -0.992188 4.007812
vt 1.000000 -3.031250
vt -0.007812 -2.031250
vt -0.007812 -3.031250
vt 1.000000 -2.031250
vt -0.007812 -1.023438
vt -0.007812 -2.031250
vt 1.000000 -1.023438
vt -0.007812 -0.000000
vt -0.007812 -1.023438
vt 1.000000 -0.000000
vt -0.007812 1.000000
vt -0.007812 -0.000000
vt 1.000000 1.000000
vt -0.007812 1.992188
vt -0.007812 1.000000
vt 1.000000 1.992188
vt -0.007812 3.015625
vt -0.007812 1.992188
vt 1.000000 3.015625
vt -0.007812 4.007812
vt -0.007812 3.015625
vt 1.000000 4.007812
vt -0.007812 4.273438
vt -0.007812 4.007812
vt 1.984375 -3.031250
vt 1.000000 -2.031250
vt 1.000000 -3.031250
vt 1.984375 -2.031250
vt 1.000000 -1.023438
vt 1.000000 -2.031250
vt 1.984375 -1.023438
vt 1.000000 -0.000000
vt 1.000000 -1.023438
vt 1.984375 -0.000000
vt 1.000000 1.000000
vt 1.000000 -0.000000
vt 1.984375 1.000000
vt 1.000000 1.992188
vt 1.000000 1.000000
vt 1.984375 1.992188
vt 1.000000 3.015625
vt 1.000000 1.992188
vt 1.984375 3.015625
vt 1.000000 4.007812
vt 1.000000 3.015625
vt 1.984375 4.007812
vt 1.000000 4.273438
vt 1.000000 4.007812
vt 2.960938 -3.031250
vt 1.984375 -2.031250
vt 1.984375 -3.031250
vt 2.960938 -2.031250
vt 1.984375 -1.023438
vt 1.984375 -2.031250
vt 2.960938 -1.023438
vt 1.984375 -0.000000
vt 1.984375 -1.023438
vt 2.960938 -0.000000
vt 1.984375 1.000000
vt 1.984375 -0.000000
vt 2.960938 1.000000
vt 1.984375 1.992188
vt 1.984375 1.000000
vt 2.960938 1.992188
vt 1.984375 3.015625
vt 1.984375 1.992188
vt 2.960938 3.015625
vt 1.984375 4.007812
vt 1.984375 3.015625
vt 2.960938 4.007812
vt 1.984375 4.273438
vt 1.984375 4.007812
vt 3.976562 -3.031250
vt 2.960938 -2.031250
vt 2.960938 -3.031250
vt 3.976562 -2.031250
vt 2.960938 -1.023438
vt 2.960938 -2.031250
vt 3.976562 -1.023438
vt 2.960938 -0.000000
vt 2.960938 -1.023438
vt 3.976562 -0.000000
vt 2.960938 1.000000
vt 2.960938 -0.000000
vt 3.976562 1.000000
vt 2.960938 1.992188
vt 2.960938 1.000000
vt 3.976562 1.992188
vt 2.960938 3.015625
vt 2.960938 1.992188
vt 3.976562 3.015625
vt 2.960938 4.007812
vt 2.960938 3.015625
vt 3.976562 4.007812
vt 2.960938 4.273438
vt 2.960938 4.007812
vt 4.218750 -3.031250
vt 3.976562 -2.031250
vt 3.976562 -3.031250
vt 4.218750 -2.031250
vt 3.976562 -1.023438
vt 3.976562 -2.031250
vt 4.218750 -1.023438
vt 3.976562 -0.000000
vt 3.976562 -1.023438
vt 4.218750 -0.000000
vt 3.976562 1.000000
vt 3.976562 -0.000000
vt 4.218750 1.000000
vt 3.976562 1.992188
vt 3.976562 1.000000
vt 4.218750 1.992188
vt 3.976562 3.015625
vt 3.976562 1.992188
vt 4.218750 3.015625
vt 3.976562 4.007812
vt 3.976562 3.015625
vt 4.218750 4.007812
vt 3.976562 4.273438
vt 3.976562 4.007812
vt -2.000000 -2.031250
vt -2.000000 -1.023438
vt -2.000000 -0.000000
vt -2.000000 1.000000
vt -2.000000 1.992188
vt -2.000000 3.015625
vt -2.000000 4.007812
vt -2.000000 4.273438
vt -0.992188 -2.031250
vt -0.992188 -1.023438
vt -0.992188 -0.000000
vt -0.992188 1.000000
vt -0.992188 1.992188
vt -0.992188 3.015625
vt -0.992188 4.007812
vt -0.992188 4.273438
vt -0.007812 -2.031250
vt -0.007812 -1.023438
vt -0.007812 -0.000000
vt -0.007812 1.000000
vt -0.007812 1.992188
vt -0.007812 3.015625
vt -0.007812 4.007812
vt -0.007812 4.273438
vt 1.000000 -2.031250
vt 1.000000 -1.023438
vt 1.000000 -0.000000
vt 1.000000 1.000000
vt 1.000000 1.992188
vt 1.000000 3.015625
vt 1.000000 4.007812
vt 1.000000 4.273438
vt 1.984375 -2.031250
vt 1.984375 -1.023438
vt 1.984375 -0.000000
vt 1.984375 1.000000
vt 1.984375 1.992188
vt 1.984375 3.015625
vt 1.984375 4.007812
vt 1.984375 4.273438
vt 2.960938 -2.031250
vt 2.960938 -1.023438
vt 2.960938 -0.000000
vt 2.960938 1.000000
vt 2.960938 1.992188
vt 2.960938 3.015625
vt 2.960938 4.007812
vt 2.960938 4.273438
vt 3.976562 -2.031250
vt 3.976562 -1.023438
vt 3.976562 -0.000000
vt 3.976562 1.000000
vt 3.976562 1.992188
vt 3.976562 3.015625
vt 3.976562 4.007812
vt 3.976562 4.273438
vt 4.218750 -2.031250
vt 4.218750 -1.023438
vt 4.218750 -0.000000
vt 4.218750 1.000000
vt 4.218750 1.992188
vt 4.218750 3.015625
vt 4.218750 4.007812
vt 4.218750 4.273438
vn -0.0000 1.0000 -0.0000
usemtl None
s 1
f 1/1/1 2/2/1 3/3/1
f 4/4/1 5/5/1 6/6/1
f 7/7/1 8/8/1 9/9/1
f 10/10/1 11/11/1 12/12/1
f 13/13/1 14/14/1 15/15/1
f 16/16/1 17/17/1 18/18/1
f 19/19/1 20/20/1 21/21/1
f 22/22/1 23/23/1 24/24/1
f 25/25/1 26/26/1 27/27/1
f 28/28/1 29/29/1 30/30/1
f 31/31/1 32/32/1 33/33/1
f 34/34/1 35/35/1 36/36/1
f 37/37/1 38/38/1 39/39/1
f 40/40/1 41/41/1 42/42/1
f 43/43/1 44/44/1 45/45/1
f 46/46/1 47/47/1 48/48/1
f 49/49/1 50/50/1 51/51/1
f 52/52/1 53/53/1 54/54/1
f 55/55/1 56/56/1 57/57/1
f 58/58/1 59/59/1 60/60/1
f 61/61/1 62/62/1 63/63/1
f 64/64/1 65/65/1 66/66/1
f 67/67/1 68/68/1 69/69/1
f 70/70/1 71/71/1 72/72/1
f 73/73/1 74/74/1 75/75/1
f 76/76/1 77/77/1 78/78/1
f 79/79/1 80/80/1 81/81/1
f 82/82/1 83/83/1 84/84/1
f 85/85/1 86/86/1 87/87/1
f 88/88/1 89/89/1 90/90/1
f 91/91/1 92/92/1 93/93/1
f 94/94/1 95/95/1 96/96/1
f 97/97/1 98/98/1 99/99/1
f 100/100/1 101/101/1 102/102/1
f 103/103/1 104/104/1 105/105/1
f 106/106/1 107/107/1 108/108/1
f 109/109/1 110/110/1 111/111/1
f 112/112/1 113/113/1 114/114/1
f 115/115/1 116/116/1 117/117/1
f 118/118/1 119/119/1 120/120/1
f 121/121/1 122/122/1 123/123/1
f 124/124/1 125/125/1 126/126/1
f 127/127/1 128/128/1 129/129/1
f 130/130/1 131/131/1 132/132/1
f 133/133/1 134/134/1 135/135/1
f 136/136/1 137/137/1 138/138/1
f 139/139/1 140/140/1 141/141/1
f 142/142/1 143/143/1 144/144/1
f 145/145/1 146/146/1 147/147/1
f 148/148/1 149/149/1 150/150/1
f 151/151/1 152/152/1 153/153/1
f 154/154/1 155/155/1 156/156/1
f 157/157/1 158/158/1 159/159/1
f 160/160/1 161/161/1 162/162/1
f 163/163/1 164/164/1 165/165/1
f 166/166/1 167/167/1 168/168/1
f 169/169/1 170/170/1 171/171/1
f 172/172/1 173/173/1 174/174/1
f 175/175/1 176/176/1 177/177/1
f 178/178/1 179/179/1 180/180/1
f 181/181/1 182/182/1 183/183/1
f 184/184/1 185/185/1 186/186/1
f 187/187/1 188/188/1 189/189/1
f 190/190/1 191/191/1 192/192/1
f 1/1/1 193/193/1 2/2/1
f 4/4/1 194/194/1 5/5/1
f 7/7/1 195/195/1 8/8/1
f 10/10/1 196/196/1 11/11/1
f 13/13/1 197/197/1 14/14/1
f 16/16/1 198/198/1 17/17/1
f 19/19/1 199/199/1 20/20/1
f 22/22/1 200/200/1 23/23/1
f 25/25/1 201/201/1 26/26/1
f 28/28/1 202/202/1 29/29/1
f 31/31/1 203/203/1 32/32/1
f 34/34/1 204/204/1 35/35/1
f 37/37/1 205/205/1 38/38/1
f 40/40/1 206/206/1 41/41/1
f 43/43/1 207/207/1 44/44/1
f 46/46/1 208/208/1 47/47/1
f 49/49/1 209/209/1 50/50/1
f 52/52/1 210/210/1 53/53/1
f 55/55/1 211/211/1 56/56/1
f 58/58/1 212/212/1 59/59/1
f 61/61/1 213/213/1 62/62/1
f 64/64/1 214/214/1 65/65/1
f 67/67/1 215/215/1 68/68/1
f 70/70/1 216/216/1 71/71/1
f 73/73/1 217/217/1 74/74/1
f 76/76/1 218/218/1 77/77/1
f 79/79/1 219/219/1 80/80/1
f 82/82/1 220/220/1 83/83/1
f 85/85/1 221/221/1 86/86/1
f 88/88/1 222/222/1 89/89/1
f 91/91/1 223/223/1 92/92/1
f 94/94/1 224/224/1 95/95/1
f 97/97/1 225/225/1 98/98/1
f 100/100/1 226/226/1 101/101/1
f 103/103/1 227/227/1 104/104/1
f 106/106/1 228/228/1 107/107/1
f 109/109/1 229/229/1 110/110/1
f 112/112/1 230/230/1 113/113/1
f 115/115/1 231/231/1 116/116/1
f 118/118/1 232/232/1 119/119/1
f 121/121/1 233/233/1 122/122/1
f 124/124/1 234/234/1 125/125/1
f 127/127/1 235/235/1 128/128/1
f 130/130/1 236/236/1 131/131/1
f 133/133/1 237/237/1 134/134/1
f 136/136/1 238/238/1 137/137/1
f 139/139/1 239/239/1 140/140/1
f 142/142/1 240/240/1 143/143/1
f 145/145/1 241/241/1 146/146/1
f 148/148/1 242/242/1 149/149/1
f 151/151/1 243/243/1 152/152/1
f 154/154/1 244/244/1 155/155/1
f 157/157/1 245/245/1 158/158/1
f 160/160/1 246/246/1 161/161/1
f 163/163/1 247/247/1 164/164/1
f 166/166/1 248/248/1 167/167/1
f 169/169/1 249/249/1 170/170/1
f 172/172/1 250/250/1 173/173/1
f 175/175/1 251/251/1 176/176/1
f 178/178/1 252/252/1 179/179/1
f 181/181/1 253/253/1 182/182/1
f 184/184/1 254/254/1 185/185/1
f 187/187/1 255/255/1 188/188/1
f 190/190/1 256/256/1 191/191/1
