# Blender v2.79 (sub 0) OBJ File: ''
# www.blender.org
o Cube.003
v -9.500003 0.000004 10.499963
v -13.500007 0.000004 14.499961
v -9.500007 0.000004 14.499965
v -13.500003 0.000004 10.499961
v -14.500007 0.000004 14.499961
v -13.500007 0.000004 14.499961
v -13.500002 0.000746 6.499969
v -14.500003 -0.001481 10.499961
v -13.500003 0.000004 10.499961
v -13.500001 0.000002 2.499969
v -14.500002 0.000003 6.499969
v -13.500002 0.000003 6.499969
v -13.499999 0.000002 -1.500032
v -14.500000 0.000002 2.499969
v -13.500001 0.000002 2.499969
v -13.500269 0.000002 -5.500065
v -14.499864 0.000000 -1.499964
v -13.499864 0.000002 -1.500066
v -13.499997 -0.000000 -9.500033
v -14.499998 0.000001 -5.500031
v -13.499998 0.000001 -5.500031
v -13.499994 0.000000 -13.500036
v -14.499997 -0.000000 -9.500033
v -13.499997 -0.000000 -9.500033
v 14.500003 -0.000004 -14.500023
v 10.500003 -0.000004 -13.500025
v 14.500003 -0.000004 -13.500023
v 10.500003 -0.000004 -14.500025
v 6.500000 -0.000003 -13.500027
v 10.500003 -0.000004 -13.500025
v 6.500001 -0.000003 -14.500027
v 2.500004 -0.000002 -13.500028
v 6.500000 -0.000003 -13.500027
v 2.500005 -0.000002 -14.500028
v -1.499995 -0.000002 -13.500030
v 2.500004 -0.000002 -13.500028
v -1.499994 -0.000002 -14.500030
v -5.499996 -0.000001 -13.500031
v -1.499995 -0.000002 -13.500030
v -5.499995 -0.000001 -14.500031
v -9.499994 0.000000 -13.500031
v -5.499996 -0.000001 -13.500031
v -9.499994 0.000000 -14.500031
v -13.499994 0.000000 -13.500036
v -9.499994 0.000000 -13.500031
v -13.499994 0.000000 -14.500036
v -14.499994 0.000000 -13.500036
v -13.499994 0.000000 -13.500036
v -13.500003 0.000004 10.499961
v -14.500003 0.000004 10.499961
v -14.500002 0.000746 6.499969
v -5.500002 0.000005 6.499962
v -9.500007 0.000004 10.499962
v -5.500006 0.000004 10.499965
v -9.500002 0.000005 6.499961
v -14.500000 0.000002 2.499969
v -5.500002 0.000006 2.499963
v -9.500002 0.000006 2.499961
v -9.500006 0.000005 6.499961
v -5.500006 0.000005 6.499964
v -5.500001 0.000006 -1.500037
v -9.500006 0.000006 2.499961
v -5.500006 0.000006 2.499964
v -1.500002 0.000006 -1.500038
v -5.500002 0.000006 -1.500039
v -5.500006 0.000006 2.499961
v -9.500001 0.000006 -1.500039
v -5.500001 0.000008 -13.500037
v -9.500001 0.000008 -13.500038
v -9.500006 0.000008 -9.500038
v -14.499999 0.000002 -1.500031
v -5.500006 0.000008 -9.500035
v -5.500002 0.000008 -9.500037
v -9.500006 0.000007 -5.500039
v -5.500006 0.000007 -5.500036
v -9.500002 0.000008 -9.500038
v -1.500006 0.000006 2.499964
v -5.500002 0.000007 -5.500038
v -9.500002 0.000007 -5.500039
v -9.500006 0.000006 -1.500039
v -5.500006 0.000006 -1.500036
v -14.499998 0.000001 -5.500031
v -5.500002 0.000004 10.499963
v -9.500003 0.000004 10.499962
v -9.500007 0.000004 14.499962
v -5.500007 0.000004 14.499965
v -9.500002 0.000007 -5.500037
v -13.500006 0.000006 -1.500039
v -9.500006 0.000006 -1.500036
v -13.500002 0.000007 -5.500039
v -9.500002 0.000008 -9.500037
v -13.500002 0.000008 -9.500039
v -13.500006 0.000007 -5.500039
v -9.500006 0.000007 -5.500035
v -9.500001 0.000008 -13.500037
v -13.500006 0.000008 -9.500039
v -9.500006 0.000008 -9.500035
v -14.499997 -0.000000 -9.500033
v -13.500001 0.000008 -13.500039
v -9.500001 0.000006 -1.500037
v -13.500001 0.000006 -1.500039
v -13.500006 0.000006 2.499961
v -9.500006 0.000006 2.499964
v -9.500002 0.000006 2.499963
v -13.500006 0.000005 6.499961
v -9.500006 0.000005 6.499965
v -13.500002 0.000006 2.499961
v -9.500002 0.000005 6.499963
v -13.500002 0.000005 6.499961
v -13.500007 0.000004 10.499961
v -9.500007 0.000004 10.499965
v -14.499994 0.000000 -13.500036
v 10.500003 -0.000004 -14.500025
v 6.500001 -0.000003 -14.500027
v 2.500005 -0.000002 -14.500028
v -1.499994 -0.000002 -14.500030
v -5.499995 -0.000001 -14.500031
v -9.499994 0.000000 -14.500031
v -13.499994 0.000000 -14.500036
v -14.499994 0.000000 -14.500036
v 2.499998 0.000006 -1.500038
v -1.500006 0.000006 2.499961
v 2.499994 0.000006 2.499964
v -1.500002 0.000006 -1.500039
v 2.499998 0.000007 -5.500038
v -1.500002 0.000007 -5.500039
v -1.500006 0.000006 -1.500039
v 2.499994 0.000006 -1.500036
v -1.500002 0.000007 -5.500038
v -5.500006 0.000006 -1.500039
v -1.500006 0.000006 -1.500036
v -5.500002 0.000007 -5.500039
v -1.500002 0.000005 6.499962
v -5.500006 0.000004 10.499962
v -1.500006 0.000004 10.499965
v -5.500002 0.000005 6.499961
v -1.500002 0.000006 2.499963
v -5.500002 0.000006 2.499961
v -5.500006 0.000005 6.499961
v -1.500006 0.000005 6.499964
v -1.500001 0.000008 -13.500037
v -5.500001 0.000008 -13.500038
v -5.500006 0.000008 -9.500038
v -1.500005 0.000008 -9.500035
v -1.500002 0.000008 -9.500037
v -5.500006 0.000007 -5.500039
v -1.500006 0.000007 -5.500036
v -5.500002 0.000008 -9.500038
v -1.500003 0.000004 10.499963
v -5.500002 0.000004 10.499962
v -5.500007 0.000004 14.499962
v -1.500007 0.000004 14.499965
v 2.499998 0.000005 6.499962
v -1.500006 0.000004 10.499962
v 2.499994 0.000004 10.499966
v -1.500002 0.000005 6.499961
v 2.499998 0.000006 2.499963
v -1.500002 0.000006 2.499962
v -1.500006 0.000005 6.499961
v 2.499994 0.000005 6.499964
v 2.499999 0.000008 -13.500036
v -1.500001 0.000008 -13.500038
v -1.500005 0.000008 -9.500038
v 2.499995 0.000008 -9.500034
v 2.499998 0.000008 -9.500036
v -1.500006 0.000007 -5.500039
v 2.499994 0.000007 -5.500036
v -1.500002 0.000008 -9.500038
v 2.499998 0.000004 10.499964
v -1.500003 0.000004 10.499962
v -1.500007 0.000004 14.499962
v 2.499993 0.000004 14.499966
v 6.499998 0.000004 10.499962
v 2.499993 0.000004 14.499961
v 6.499993 0.000004 14.499966
v 2.499998 0.000004 10.499961
v 10.499998 0.000005 6.499963
v 6.499994 0.000004 10.499962
v 10.499993 0.000004 10.499966
v 6.499998 0.000005 6.499962
v 10.499998 0.000006 2.499962
v 6.499998 0.000006 2.499961
v 6.499994 0.000005 6.499962
v 10.499994 0.000005 6.499963
v 10.499999 0.000006 -1.500038
v 6.499994 0.000006 2.499961
v 10.499994 0.000006 2.499964
v 6.499999 0.000006 -1.500039
v 10.499999 0.000008 -13.500036
v 6.499999 0.000008 -13.500038
v 6.499994 0.000008 -9.500038
v 10.499994 0.000008 -9.500034
v 10.499998 0.000008 -9.500036
v 6.499994 0.000007 -5.500039
v 10.499994 0.000007 -5.500036
v 6.499998 0.000008 -9.500038
v 10.499998 0.000007 -5.500038
v 6.499998 0.000007 -5.500039
v 6.499994 0.000006 -1.500039
v 10.499994 0.000006 -1.500036
v 10.499997 0.000004 10.499964
v 6.499998 0.000004 10.499962
v 6.499993 0.000004 14.499962
v 10.499993 0.000004 14.499966
v 6.499998 0.000007 -5.500038
v 2.499994 0.000006 -1.500039
v 6.499994 0.000006 -1.500036
v 2.499998 0.000007 -5.500039
v 6.499998 0.000008 -9.500037
v 2.499998 0.000008 -9.500038
v 2.499994 0.000007 -5.500039
v 6.499994 0.000007 -5.500036
v 6.499999 0.000008 -13.500037
v 2.499995 0.000008 -9.500038
v 6.499994 0.000008 -9.500035
v 2.499999 0.000008 -13.500038
v 6.499999 0.000006 -1.500038
v 2.499999 0.000006 -1.500039
v 2.499995 0.000006 2.499961
v 6.499994 0.000006 2.499964
v 6.499998 0.000006 2.499962
v 2.499994 0.000005 6.499961
v 6.499994 0.000005 6.499964
v 2.499998 0.000006 2.499961
v 6.499998 0.000005 6.499962
v 2.499998 0.000005 6.499961
v 2.499994 0.000004 10.499961
v 6.499994 0.000004 10.499966
v 14.499998 0.000005 6.499963
v 10.499993 0.000004 10.499963
v 14.499993 0.000004 10.499966
v 10.499998 0.000005 6.499962
v 14.499998 0.000006 2.499963
v 10.499998 0.000006 2.499961
v 10.499994 0.000005 6.499962
v 14.499994 0.000005 6.499963
v 14.499999 0.000006 -1.500038
v 10.499994 0.000006 2.499961
v 14.499994 0.000006 2.499964
v 10.499999 0.000006 -1.500039
v 14.499999 0.000008 -13.500036
v 10.499999 0.000008 -13.500037
v 10.499994 0.000008 -9.500037
v 14.499994 0.000008 -9.500034
v 14.499998 0.000008 -9.500036
v 10.499994 0.000007 -5.500039
v 14.499994 0.000007 -5.500036
v 10.499998 0.000008 -9.500037
v 14.499998 0.000007 -5.500038
v 10.499998 0.000007 -5.500039
v 10.499994 0.000006 -1.500039
v 14.499994 0.000006 -1.500036
v 14.499997 0.000004 10.499964
v 10.499997 0.000004 10.499963
v 10.499993 0.000004 14.499963
v 14.499993 0.000004 14.499966
vt 0.500000 1.000000
vt -0.000000 0.500000
vt 0.500000 0.500000
vt 0.136719 1.000000
vt -0.000000 0.500000
vt 0.136719 0.500000
vt 0.136719 1.000000
vt -0.000000 0.500000
vt 0.136719 0.500000
vt 0.132812 1.000000
vt -0.000000 0.500000
vt 0.132812 0.500000
vt 0.136719 1.000000
vt -0.000000 0.500000
vt 0.136719 0.500000
vt 0.132812 1.000000
vt -0.000000 0.500000
vt 0.132812 0.500000
vt 0.136719 1.000000
vt -0.000000 0.500000
vt 0.136719 0.500000
vt 0.132812 1.000000
vt -0.000000 0.500000
vt 0.132812 0.500000
vt 0.500000 1.000000
vt -0.000000 0.878906
vt 0.500000 0.878906
vt 0.500000 1.000000
vt -0.000000 0.878906
vt 0.500000 0.878906
vt 0.500000 1.000000
vt -0.000000 0.878906
vt 0.500000 0.878906
vt 0.500000 1.000000
vt -0.000000 0.878906
vt 0.500000 0.878906
vt 0.496094 1.000000
vt -0.000000 0.878906
vt 0.496094 0.878906
vt 0.500000 1.000000
vt -0.000000 0.878906
vt 0.500000 0.878906
vt 0.496094 1.000000
vt -0.000000 0.878906
vt 0.496094 0.878906
vt -1.500000 2.613281
vt -1.636719 2.492188
vt -1.500000 2.492188
vt 0.000000 1.000000
vt 0.000000 1.000000
vt 0.000000 1.000000
vt 0.500000 1.000000
vt -0.000000 0.500000
vt 0.500000 0.500000
vt 0.000000 1.000000
vt 0.000000 1.000000
vt 0.500000 1.000000
vt 0.000000 1.000000
vt -0.000000 0.500000
vt 0.500000 0.500000
vt 0.500000 1.000000
vt -0.000000 0.500000
vt 0.500000 0.500000
vt 0.500000 1.000000
vt 0.000000 1.000000
vt -0.000000 0.500000
vt 0.000000 1.000000
vt 0.500000 1.000000
vt 0.000000 1.000000
vt -0.000000 0.500000
vt 0.000000 1.000000
vt 0.500000 0.500000
vt 0.500000 1.000000
vt -0.000000 0.500000
vt 0.500000 0.500000
vt 0.000000 1.000000
vt 0.500000 0.500000
vt 0.500000 1.000000
vt 0.000000 1.000000
vt -0.000000 0.500000
vt 0.500000 0.500000
vt 0.000000 1.000000
vt 0.500000 1.000000
vt 0.000000 1.000000
vt -0.000000 0.500000
vt 0.500000 0.500000
vt 0.500000 1.000000
vt -0.000000 0.500000
vt 0.500000 0.500000
vt 0.000000 1.000000
vt 0.500000 1.000000
vt 0.000000 1.000000
vt -0.000000 0.500000
vt 0.500000 0.500000
vt 0.500000 1.000000
vt -0.000000 0.500000
vt 0.500000 0.500000
vt 0.000000 1.000000
vt 0.000000 1.000000
vt 0.500000 1.000000
vt 0.000000 1.000000
vt -0.000000 0.500000
vt 0.500000 0.500000
vt 0.500000 1.000000
vt -0.000000 0.500000
vt 0.500000 0.500000
vt 0.000000 1.000000
vt 0.500000 1.000000
vt 0.000000 1.000000
vt -0.000000 0.500000
vt 0.500000 0.500000
vt 0.000000 1.000000
vt 0.000000 1.000000
vt 0.000000 1.000000
vt 0.000000 1.000000
vt 0.000000 1.000000
vt 0.000000 1.000000
vt 0.000000 1.000000
vt 0.000000 1.000000
vt -1.636719 2.613281
vt 0.500000 1.000000
vt -0.000000 0.500000
vt 0.500000 0.500000
vt 0.000000 1.000000
vt 0.500000 1.000000
vt 0.000000 1.000000
vt -0.000000 0.500000
vt 0.500000 0.500000
vt 0.500000 1.000000
vt -0.000000 0.500000
vt 0.500000 0.500000
vt 0.000000 1.000000
vt 0.500000 1.000000
vt -0.000000 0.500000
vt 0.500000 0.500000
vt 0.000000 1.000000
vt 0.500000 1.000000
vt 0.000000 1.000000
vt -0.000000 0.500000
vt 0.500000 0.500000
vt 0.500000 1.000000
vt 0.000000 1.000000
vt -0.000000 0.500000
vt 0.500000 0.500000
vt 0.500000 1.000000
vt -0.000000 0.500000
vt 0.500000 0.500000
vt 0.000000 1.000000
vt 0.500000 1.000000
vt 0.000000 1.000000
vt -0.000000 0.500000
vt 0.500000 0.500000
vt 0.500000 1.000000
vt -0.000000 0.500000
vt 0.500000 0.500000
vt 0.000000 1.000000
vt 0.500000 1.000000
vt 0.000000 1.000000
vt -0.000000 0.500000
vt 0.500000 0.500000
vt 0.500000 1.000000
vt 0.000000 1.000000
vt -0.000000 0.500000
vt 0.500000 0.500000
vt 0.500000 1.000000
vt -0.000000 0.500000
vt 0.500000 0.500000
vt 0.000000 1.000000
vt 0.500000 1.000000
vt 0.000000 1.000000
vt -0.000000 0.500000
vt 0.500000 0.500000
vt 0.500000 1.000000
vt -0.000000 0.500000
vt 0.500000 0.500000
vt 0.000000 1.000000
vt 0.500000 1.000000
vt -0.000000 0.500000
vt 0.500000 0.500000
vt 0.000000 1.000000
vt 0.500000 1.000000
vt 0.000000 1.000000
vt -0.000000 0.500000
vt 0.500000 0.500000
vt 0.500000 1.000000
vt -0.000000 0.500000
vt 0.500000 0.500000
vt 0.000000 1.000000
vt 0.500000 1.000000
vt 0.000000 1.000000
vt -0.000000 0.500000
vt 0.500000 0.500000
vt 0.500000 1.000000
vt -0.000000 0.500000
vt 0.500000 0.500000
vt 0.000000 1.000000
vt 0.500000 1.000000
vt 0.000000 1.000000
vt -0.000000 0.500000
vt 0.500000 0.500000
vt 0.500000 1.000000
vt 0.000000 1.000000
vt -0.000000 0.500000
vt 0.500000 0.500000
vt 0.500000 1.000000
vt -0.000000 0.500000
vt 0.500000 0.500000
vt 0.000000 1.000000
vt 0.500000 1.000000
vt 0.000000 1.000000
vt -0.000000 0.500000
vt 0.500000 0.500000
vt 0.500000 1.000000
vt -0.000000 0.500000
vt 0.500000 0.500000
vt 0.000000 1.000000
vt 0.500000 1.000000
vt 0.000000 1.000000
vt -0.000000 0.500000
vt 0.500000 0.500000
vt 0.500000 1.000000
vt -0.000000 0.500000
vt 0.500000 0.500000
vt 0.000000 1.000000
vt 0.500000 1.000000
vt 0.000000 1.000000
vt -0.000000 0.500000
vt 0.500000 0.500000
vt 0.500000 1.000000
vt -0.000000 0.500000
vt 0.500000 0.500000
vt 0.000000 1.000000
vt 0.500000 1.000000
vt 0.000000 1.000000
vt -0.000000 0.500000
vt 0.500000 0.500000
vt 0.500000 1.000000
vt -0.000000 0.500000
vt 0.500000 0.500000
vt 0.000000 1.000000
vt 0.500000 1.000000
vt 0.000000 1.000000
vt -0.000000 0.500000
vt 0.500000 0.500000
vt 0.500000 1.000000
vt -0.000000 0.500000
vt 0.500000 0.500000
vt 0.000000 1.000000
vt 0.500000 1.000000
vt 0.000000 1.000000
vt -0.000000 0.500000
vt 0.500000 0.500000
vt 0.500000 1.000000
vt 0.000000 1.000000
vt -0.000000 0.500000
vt 0.500000 0.500000
vn -0.0000 1.0000 0.0000
vn -0.0002 1.0000 0.0005
vn -0.0013 1.0000 0.0002
vn -0.0015 1.0000 0.0002
vn 0.0000 1.0000 0.0006
s 1
f 1/1/1 2/2/1 3/3/1
f 4/4/1 5/5/1 6/6/1
f 7/7/2 8/8/3 9/9/4
f 10/10/1 11/11/1 12/12/1
f 13/13/1 14/14/1 15/15/1
f 16/16/1 17/17/1 18/18/1
f 19/19/1 20/20/1 21/21/1
f 22/22/1 23/23/1 24/24/1
f 25/25/1 26/26/1 27/27/1
f 28/28/1 29/29/1 30/30/1
f 31/31/1 32/32/1 33/33/1
f 34/34/1 35/35/1 36/36/1
f 37/37/1 38/38/1 39/39/1
f 40/40/1 41/41/1 42/42/1
f 43/43/1 44/44/1 45/45/1
f 46/46/1 47/47/1 48/48/1
f 1/1/1 49/49/1 2/2/1
f 4/4/1 50/50/1 5/5/1
f 7/7/2 51/51/5 8/8/3
f 52/52/1 53/53/1 54/54/1
f 52/52/1 55/55/1 53/53/1
f 10/10/1 56/56/1 11/11/1
f 57/57/1 58/58/1 59/59/1
f 57/57/1 59/59/1 60/60/1
f 61/61/1 62/62/1 63/63/1
f 64/64/1 65/65/1 66/66/1
f 61/61/1 67/67/1 62/62/1
f 68/68/1 69/69/1 70/70/1
f 13/13/1 71/71/1 14/14/1
f 68/68/1 70/70/1 72/72/1
f 73/73/1 74/74/1 75/75/1
f 73/73/1 76/76/1 74/74/1
f 64/64/1 66/66/1 77/77/1
f 78/78/1 79/79/1 80/80/1
f 78/78/1 80/80/1 81/81/1
f 16/16/1 82/82/1 17/17/1
f 83/83/1 84/84/1 85/85/1
f 83/83/1 85/85/1 86/86/1
f 87/87/1 88/88/1 89/89/1
f 87/87/1 90/90/1 88/88/1
f 91/91/1 92/92/1 93/93/1
f 91/91/1 93/93/1 94/94/1
f 95/95/1 96/96/1 97/97/1
f 19/19/1 98/98/1 20/20/1
f 95/95/1 99/99/1 96/96/1
f 100/100/1 101/101/1 102/102/1
f 100/100/1 102/102/1 103/103/1
f 104/104/1 105/105/1 106/106/1
f 104/104/1 107/107/1 105/105/1
f 108/108/1 109/109/1 110/110/1
f 108/108/1 110/110/1 111/111/1
f 22/22/1 112/112/1 23/23/1
f 25/25/1 113/113/1 26/26/1
f 28/28/1 114/114/1 29/29/1
f 31/31/1 115/115/1 32/32/1
f 34/34/1 116/116/1 35/35/1
f 37/37/1 117/117/1 38/38/1
f 40/40/1 118/118/1 41/41/1
f 43/43/1 119/119/1 44/44/1
f 46/46/1 120/120/1 47/47/1
f 121/121/1 122/122/1 123/123/1
f 121/121/1 124/124/1 122/122/1
f 125/125/1 126/126/1 127/127/1
f 125/125/1 127/127/1 128/128/1
f 129/129/1 130/130/1 131/131/1
f 129/129/1 132/132/1 130/130/1
f 133/133/1 134/134/1 135/135/1
f 133/133/1 136/136/1 134/134/1
f 137/137/1 138/138/1 139/139/1
f 137/137/1 139/139/1 140/140/1
f 141/141/1 142/142/1 143/143/1
f 141/141/1 143/143/1 144/144/1
f 145/145/1 146/146/1 147/147/1
f 145/145/1 148/148/1 146/146/1
f 149/149/1 150/150/1 151/151/1
f 149/149/1 151/151/1 152/152/1
f 153/153/1 154/154/1 155/155/1
f 153/153/1 156/156/1 154/154/1
f 157/157/1 158/158/1 159/159/1
f 157/157/1 159/159/1 160/160/1
f 161/161/1 162/162/1 163/163/1
f 161/161/1 163/163/1 164/164/1
f 165/165/1 166/166/1 167/167/1
f 165/165/1 168/168/1 166/166/1
f 169/169/1 170/170/1 171/171/1
f 169/169/1 171/171/1 172/172/1
f 173/173/1 174/174/1 175/175/1
f 173/173/1 176/176/1 174/174/1
f 177/177/1 178/178/1 179/179/1
f 177/177/1 180/180/1 178/178/1
f 181/181/1 182/182/1 183/183/1
f 181/181/1 183/183/1 184/184/1
f 185/185/1 186/186/1 187/187/1
f 185/185/1 188/188/1 186/186/1
f 189/189/1 190/190/1 191/191/1
f 189/189/1 191/191/1 192/192/1
f 193/193/1 194/194/1 195/195/1
f 193/193/1 196/196/1 194/194/1
f 197/197/1 198/198/1 199/199/1
f 197/197/1 199/199/1 200/200/1
f 201/201/1 202/202/1 203/203/1
f 201/201/1 203/203/1 204/204/1
f 205/205/1 206/206/1 207/207/1
f 205/205/1 208/208/1 206/206/1
f 209/209/1 210/210/1 211/211/1
f 209/209/1 211/211/1 212/212/1
f 213/213/1 214/214/1 215/215/1
f 213/213/1 216/216/1 214/214/1
f 217/217/1 218/218/1 219/219/1
f 217/217/1 219/219/1 220/220/1
f 221/221/1 222/222/1 223/223/1
f 221/221/1 224/224/1 222/222/1
f 225/225/1 226/226/1 227/227/1
f 225/225/1 227/227/1 228/228/1
f 229/229/1 230/230/1 231/231/1
f 229/229/1 232/232/1 230/230/1
f 233/233/1 234/234/1 235/235/1
f 233/233/1 235/235/1 236/236/1
f 237/237/1 238/238/1 239/239/1
f 237/237/1 240/240/1 238/238/1
f 241/241/1 242/242/1 243/243/1
f 241/241/1 243/243/1 244/244/1
f 245/245/1 246/246/1 247/247/1
f 245/245/1 248/248/1 246/246/1
f 249/249/1 250/250/1 251/251/1
f 249/249/1 251/251/1 252/252/1
f 253/253/1 254/254/1 255/255/1
f 253/253/1 255/255/1 256/256/1
