# Blender v2.79 (sub 0) OBJ File: 'entrance_open.blend'
# www.blender.org
o Cube.003
v -2.500000 0.000000 -0.500000
v -3.500000 0.000000 -0.500000
v -9.500003 0.000006 10.499963
v -13.500007 0.000006 14.499961
v -9.500007 0.000006 14.499965
v -13.500003 0.000006 10.499961
v -14.500007 0.000006 14.499961
v -13.500007 0.000006 14.499961
v -13.500002 0.000747 6.499969
v -14.500003 -0.001479 10.499961
v -13.500003 0.000006 10.499961
v -13.500001 0.000002 2.499969
v -14.500002 0.000004 6.499969
v -13.500002 0.000004 6.499969
v -1.500001 0.000006 -1.500038
v -5.500006 0.000006 2.499961
v -13.499999 0.000002 -1.500032
v -14.500000 0.000002 2.499969
v -13.500001 0.000002 2.499969
v -1.500006 0.000006 2.499964
v -5.500001 0.000006 -1.500039
v -5.500002 0.000006 -5.500039
v -1.500006 0.000006 -1.500036
v -13.500269 0.000001 -5.500065
v -14.499864 0.000000 -1.499964
v -13.499864 0.000002 -1.500066
v -13.499997 -0.000002 -9.500033
v -14.499998 0.000000 -5.500031
v -13.499998 0.000000 -5.500031
v -5.500002 0.000006 6.499962
v -9.500007 0.000006 10.499962
v -5.500006 0.000006 10.499965
v -9.500002 0.000006 6.499961
v -9.500002 0.000006 2.499961
v -5.500006 0.000006 6.499964
v -9.500006 0.000006 6.499961
v -5.500002 0.000006 2.499963
v -13.499994 -0.000002 -13.500036
v -14.499997 -0.000002 -9.500033
v -13.499997 -0.000002 -9.500033
v 14.500003 -0.000006 -14.500023
v 10.500003 -0.000006 -13.500025
v 14.500003 -0.000006 -13.500023
v 10.500003 -0.000006 -14.500025
v 6.500000 -0.000005 -13.500027
v 10.500003 -0.000006 -13.500025
v 6.500001 -0.000005 -14.500027
v 2.500004 -0.000004 -13.500028
v 6.500000 -0.000005 -13.500027
v 2.500005 -0.000004 -14.500028
v -1.499995 -0.000004 -13.500030
v 2.500004 -0.000004 -13.500028
v -1.499994 -0.000004 -14.500030
v -5.499996 -0.000003 -13.500031
v -1.499995 -0.000004 -13.500030
v -5.499995 -0.000003 -14.500031
v -9.499994 -0.000002 -13.500031
v -5.499996 -0.000003 -13.500031
v -9.499994 -0.000002 -14.500031
v -13.499994 -0.000002 -13.500036
v -9.499994 -0.000002 -13.500031
v -13.499994 -0.000002 -14.500036
v -14.499994 -0.000002 -13.500036
v -13.499994 -0.000002 -13.500036
v -5.500001 0.000006 -1.500037
v -9.500006 0.000006 2.499961
v -5.500006 0.000006 2.499964
v -9.500001 0.000006 -1.500039
v -9.500001 0.000006 -13.500038
v -5.500006 0.000006 -9.500035
v -13.500003 0.000006 10.499961
v -14.500003 0.000006 10.499961
v -9.500006 0.000006 -9.500038
v -5.500001 0.000006 -13.500037
v -5.500002 0.000006 -9.500037
v -9.500006 0.000006 -5.500039
v -5.500006 0.000006 -5.500036
v -9.500002 0.000006 -9.500038
v -9.500002 0.000006 -5.500039
v -14.500002 0.000747 6.499969
v -5.500006 0.000006 -1.500036
v -9.500006 0.000006 -1.500039
v -5.500002 0.000006 -5.500038
v -9.500003 0.000006 10.499962
v -5.500007 0.000006 14.499965
v -9.500007 0.000006 14.499962
v -5.500002 0.000006 10.499963
v -14.500000 0.000002 2.499969
v -9.500002 0.000006 -5.500037
v -13.500006 0.000006 -1.500039
v -9.500006 0.000006 -1.500036
v -5.500006 0.000006 -1.500039
v -1.500002 0.000006 -5.500038
v -13.500002 0.000006 -5.500039
v -13.500002 0.000006 -9.500039
v -14.499999 0.000002 -1.500031
v -9.500006 0.000006 -5.500035
v -13.500006 0.000006 -5.500039
v -9.500002 0.000006 -9.500037
v 2.499998 0.000006 -5.500038
v -1.500006 0.000006 -1.500039
v -9.500001 0.000006 -13.500037
v -13.500006 0.000006 -9.500039
v -14.499998 0.000000 -5.500031
v -9.500006 0.000006 -9.500035
v -13.500001 0.000006 -13.500039
v -13.500001 0.000006 -1.500039
v -9.500006 0.000006 2.499964
v -13.500006 0.000006 2.499961
v -9.500001 0.000006 -1.500037
v -9.500002 0.000006 2.499963
v -14.499997 -0.000002 -9.500033
v -13.500006 0.000006 6.499961
v -9.500006 0.000006 6.499965
v -13.500002 0.000006 2.499961
v -13.500002 0.000006 6.499961
v -9.500007 0.000006 10.499965
v -13.500007 0.000006 10.499961
v -9.500002 0.000006 6.499963
v -14.499994 -0.000002 -13.500036
v 10.500003 -0.000006 -14.500025
v 6.500001 -0.000005 -14.500027
v 2.500005 -0.000004 -14.500028
v -1.499994 -0.000004 -14.500030
v -5.499995 -0.000003 -14.500031
v -9.499994 -0.000002 -14.500031
v -13.499994 -0.000002 -14.500036
v -14.499994 -0.000002 -14.500036
v 2.499994 0.000006 -1.500036
v -1.500002 0.000006 -5.500039
v -1.500001 0.000006 -1.500039
v 2.499994 0.000006 2.499964
v -1.500006 0.000006 2.499961
v 2.499999 0.000006 -1.500038
v -1.500002 0.000006 6.499962
v -5.500006 0.000006 10.499962
v -1.500006 0.000006 10.499965
v -5.500002 0.000006 6.499961
v -5.500002 0.000006 2.499961
v -1.500006 0.000006 6.499964
v -5.500006 0.000006 6.499961
v -1.500002 0.000006 2.499963
v -5.500001 0.000006 -13.500038
v -1.500005 0.000006 -9.500035
v -5.500006 0.000006 -9.500038
v -1.500001 0.000006 -13.500037
v -1.500002 0.000006 -9.500037
v -5.500006 0.000006 -5.500039
v -1.500006 0.000006 -5.500036
v -5.500002 0.000006 -9.500038
v -5.500002 0.000006 10.499962
v -1.500007 0.000006 14.499965
v -5.500007 0.000006 14.499962
v -1.500003 0.000006 10.499963
v 2.499998 0.000006 6.499962
v -1.500006 0.000006 10.499962
v 2.499994 0.000006 10.499966
v -1.500002 0.000006 6.499961
v -1.500002 0.000006 2.499962
v 2.499994 0.000006 6.499964
v -1.500006 0.000006 6.499961
v 2.499998 0.000006 2.499963
v -1.500001 0.000006 -13.500038
v 2.499995 0.000006 -9.500034
v -1.500005 0.000006 -9.500038
v 2.499999 0.000006 -13.500036
v 2.499998 0.000006 -9.500036
v -1.500006 0.000006 -5.500039
v 2.499994 0.000006 -5.500036
v -1.500002 0.000006 -9.500038
v -1.500003 0.000006 10.499962
v 2.499993 0.000006 14.499966
v -1.500007 0.000006 14.499962
v 2.499998 0.000006 10.499964
v 6.499998 0.000006 10.499962
v 2.499993 0.000006 14.499961
v 6.499993 0.000006 14.499966
v 10.499998 0.000006 6.499963
v 6.499994 0.000006 10.499962
v 10.499993 0.000006 10.499966
v 6.499998 0.000006 6.499962
v 6.499998 0.000006 2.499961
v 10.499994 0.000006 6.499963
v 6.499994 0.000006 6.499962
v 10.499998 0.000006 2.499962
v 10.499999 0.000006 -1.500038
v 6.499994 0.000006 2.499961
v 10.499994 0.000006 2.499964
v 6.499999 0.000006 -1.500039
v 6.499999 0.000006 -13.500038
v 10.499994 0.000006 -9.500034
v 2.499998 0.000006 10.499961
v 6.499994 0.000006 -9.500038
v 10.499999 0.000006 -13.500036
v 10.499998 0.000006 -9.500036
v 6.499994 0.000006 -5.500039
v 10.499994 0.000006 -5.500036
v 6.499998 0.000006 -9.500038
v 6.499998 0.000006 -5.500039
v 10.499994 0.000006 -1.500036
v 6.499994 0.000006 -1.500039
v 10.499998 0.000006 -5.500038
v 6.499998 0.000006 10.499962
v 10.499993 0.000006 14.499966
v 6.499993 0.000006 14.499962
v 10.499997 0.000006 10.499964
v 6.499998 0.000006 -5.500038
v 2.499994 0.000006 -1.500039
v 6.499994 0.000006 -1.500036
v 2.499998 0.000006 -5.500039
v 2.499998 0.000006 -9.500038
v 6.499994 0.000006 -5.500036
v 2.499994 0.000006 -5.500039
v 6.499998 0.000006 -9.500037
v 6.499999 0.000006 -13.500037
v 2.499995 0.000006 -9.500038
v 6.499994 0.000006 -9.500035
v 2.499999 0.000006 -13.500038
v 2.499999 0.000006 -1.500039
v 6.499994 0.000006 2.499964
v 2.499995 0.000006 2.499961
v 6.499999 0.000006 -1.500038
v 6.499998 0.000006 2.499962
v 2.499994 0.000006 6.499961
v 6.499994 0.000006 6.499964
v 2.499998 0.000006 2.499961
v 2.499998 0.000006 6.499961
v 6.499994 0.000006 10.499966
v 2.499994 0.000006 10.499961
v 6.499998 0.000006 6.499962
v 14.499998 0.000006 6.499963
v 10.499993 0.000006 10.499963
v 14.499993 0.000006 10.499966
v 10.499998 0.000006 6.499962
v 10.499998 0.000006 2.499961
v 14.499994 0.000006 6.499963
v 10.499994 0.000006 6.499962
v 14.499998 0.000006 2.499963
v 14.499999 0.000006 -1.500038
v 10.499994 0.000006 2.499961
v 14.499994 0.000006 2.499964
v 10.499999 0.000006 -1.500039
v 10.499999 0.000006 -13.500037
v 14.499994 0.000006 -9.500034
v 10.499994 0.000006 -9.500037
v 14.499999 0.000006 -13.500036
v 14.499998 0.000006 -9.500036
v 10.499994 0.000006 -5.500039
v 14.499994 0.000006 -5.500036
v 10.499998 0.000006 -9.500037
v 10.499998 0.000006 -5.500039
v 14.499994 0.000006 -1.500036
v 10.499994 0.000006 -1.500039
v 14.499998 0.000006 -5.500038
v 10.499997 0.000006 10.499963
v 14.499993 0.000006 14.499966
v 10.499993 0.000006 14.499963
v 14.499997 0.000006 10.499964
vt 0.333333 1.000000
vt 0.000000 0.716518
vt 0.333333 0.716518
vt 0.091146 1.000000
vt 0.000000 0.716518
vt 0.091146 0.716518
vt 0.091146 1.000000
vt 0.000000 0.716518
vt 0.091146 0.716518
vt 0.088542 1.000000
vt 0.000000 0.716518
vt 0.088542 0.716518
vt 0.091146 1.000000
vt 0.000000 0.716518
vt 0.091146 0.716518
vt 0.088542 1.000000
vt 0.000000 0.716518
vt 0.088542 0.716518
vt 0.091146 1.000000
vt 0.000000 0.716518
vt 0.091146 0.716518
vt 0.088542 1.000000
vt 0.000000 0.716518
vt 0.088542 0.716518
vt 0.333333 1.000000
vt 0.000000 0.930804
vt 0.333333 0.930804
vt 0.333333 1.000000
vt 0.000000 0.930804
vt 0.333333 0.930804
vt 0.333333 1.000000
vt 0.000000 0.930804
vt 0.333333 0.930804
vt 0.333333 1.000000
vt 0.000000 0.930804
vt 0.333333 0.930804
vt 0.330729 1.000000
vt 0.000000 0.930804
vt 0.330729 0.930804
vt 0.333333 1.000000
vt 0.000000 0.930804
vt 0.333333 0.930804
vt 0.330729 1.000000
vt 0.000000 0.930804
vt 0.330729 0.930804
vt 0.088542 1.000000
vt 0.000000 0.930804
vt 0.088542 0.930804
vt 0.000000 1.000000
vt 0.000000 1.000000
vt 0.000000 1.000000
vt 0.333333 1.000000
vt 0.000000 0.716518
vt 0.333333 0.716518
vt 0.000000 1.000000
vt 0.000000 1.000000
vt 0.333333 1.000000
vt 0.000000 1.000000
vt 0.000000 0.716518
vt 0.333333 0.716518
vt 0.333333 1.000000
vt 0.000000 0.716518
vt 0.333333 0.716518
vt 0.333333 1.000000
vt 0.000000 0.716518
vt 0.333333 0.716518
vt 0.000000 1.000000
vt 0.333333 1.000000
vt 0.000000 1.000000
vt 0.000000 0.716518
vt 0.000000 1.000000
vt 0.333333 0.716518
vt 0.333333 1.000000
vt 0.000000 0.716518
vt 0.333333 0.716518
vt 0.000000 1.000000
vt 0.000000 1.000000
vt 0.333333 1.000000
vt 0.000000 1.000000
vt 0.000000 0.716518
vt 0.333333 0.716518
vt 0.000000 1.000000
vt 0.333333 1.000000
vt 0.000000 1.000000
vt 0.000000 0.716518
vt 0.333333 0.716518
vt 0.333333 1.000000
vt 0.000000 0.716518
vt 0.333333 0.716518
vt 0.000000 1.000000
vt 0.333333 1.000000
vt 0.000000 1.000000
vt 0.000000 0.716518
vt 0.333333 0.716518
vt 0.333333 1.000000
vt 0.000000 0.716518
vt 0.333333 0.716518
vt 0.000000 1.000000
vt 0.000000 1.000000
vt 0.333333 1.000000
vt 0.000000 1.000000
vt 0.000000 0.716518
vt 0.333333 0.716518
vt 0.333333 1.000000
vt 0.000000 0.716518
vt 0.333333 0.716518
vt 0.000000 1.000000
vt 0.333333 1.000000
vt 0.000000 1.000000
vt 0.000000 0.716518
vt 0.333333 0.716518
vt 0.000000 1.000000
vt 0.000000 1.000000
vt 0.000000 1.000000
vt 0.000000 1.000000
vt 0.000000 1.000000
vt 0.000000 1.000000
vt 0.000000 1.000000
vt 0.000000 1.000000
vt 0.000000 1.000000
vt 0.333333 1.000000
vt 0.000000 1.000000
vt 0.000000 0.716518
vt 0.333333 0.716518
vt 0.333333 1.000000
vt 0.000000 0.716518
vt 0.333333 0.716518
vt 0.000000 1.000000
vt 0.333333 1.000000
vt 0.000000 1.000000
vt 0.000000 0.716518
vt 0.333333 0.716518
vt 0.333333 1.000000
vt 0.000000 0.716518
vt 0.333333 0.716518
vt 0.000000 1.000000
vt 0.333333 1.000000
vt 0.000000 1.000000
vt 0.000000 0.716518
vt 0.333333 0.716518
vt 0.333333 1.000000
vt 0.000000 1.000000
vt 0.000000 0.716518
vt 0.333333 0.716518
vt 0.333333 1.000000
vt 0.000000 0.716518
vt 0.333333 0.716518
vt 0.000000 1.000000
vt 0.333333 1.000000
vt 0.000000 1.000000
vt 0.000000 0.716518
vt 0.333333 0.716518
vt 0.333333 1.000000
vt 0.000000 0.716518
vt 0.333333 0.716518
vt 0.000000 1.000000
vt 0.333333 1.000000
vt 0.000000 1.000000
vt 0.000000 0.716518
vt 0.333333 0.716518
vt 0.333333 1.000000
vt 0.000000 1.000000
vt 0.000000 0.716518
vt 0.333333 0.716518
vt 0.333333 1.000000
vt 0.000000 0.716518
vt 0.333333 0.716518
vt 0.000000 1.000000
vt 0.333333 1.000000
vt 0.000000 1.000000
vt 0.000000 0.716518
vt 0.333333 0.716518
vt 0.333333 1.000000
vt 0.000000 0.716518
vt 0.333333 0.716518
vt 0.000000 1.000000
vt 0.333333 1.000000
vt 0.000000 0.716518
vt 0.333333 0.716518
vt 0.000000 1.000000
vt 0.333333 1.000000
vt 0.000000 1.000000
vt 0.000000 0.716518
vt 0.333333 0.716518
vt 0.333333 1.000000
vt 0.000000 0.716518
vt 0.333333 0.716518
vt 0.000000 1.000000
vt 0.333333 1.000000
vt 0.000000 1.000000
vt 0.000000 0.716518
vt 0.333333 0.716518
vt 0.333333 1.000000
vt 0.000000 0.716518
vt 0.333333 0.716518
vt 0.000000 1.000000
vt 0.333333 1.000000
vt 0.000000 1.000000
vt 0.000000 0.716518
vt 0.333333 0.716518
vt 0.333333 1.000000
vt 0.000000 1.000000
vt 0.000000 0.716518
vt 0.333333 0.716518
vt 0.333333 1.000000
vt 0.000000 0.716518
vt 0.333333 0.716518
vt 0.000000 1.000000
vt 0.333333 1.000000
vt 0.000000 1.000000
vt 0.000000 0.716518
vt 0.333333 0.716518
vt 0.333333 1.000000
vt 0.000000 0.716518
vt 0.333333 0.716518
vt 0.000000 1.000000
vt 0.333333 1.000000
vt 0.000000 1.000000
vt 0.000000 0.716518
vt 0.333333 0.716518
vt 0.333333 1.000000
vt 0.000000 0.716518
vt 0.333333 0.716518
vt 0.000000 1.000000
vt 0.333333 1.000000
vt 0.000000 1.000000
vt 0.000000 0.716518
vt 0.333333 0.716518
vt 0.333333 1.000000
vt 0.000000 0.716518
vt 0.333333 0.716518
vt 0.000000 1.000000
vt 0.333333 1.000000
vt 0.000000 1.000000
vt 0.000000 0.716518
vt 0.333333 0.716518
vt 0.333333 1.000000
vt 0.000000 0.716518
vt 0.333333 0.716518
vt 0.000000 1.000000
vt 0.333333 1.000000
vt 0.000000 1.000000
vt 0.000000 0.716518
vt 0.333333 0.716518
vt 0.333333 1.000000
vt 0.000000 0.716518
vt 0.333333 0.716518
vt 0.000000 1.000000
vt 0.333333 1.000000
vt 0.000000 1.000000
vt 0.000000 0.716518
vt 0.333333 0.716518
vt 0.333333 1.000000
vt 0.000000 1.000000
vt 0.000000 0.716518
vt 0.333333 0.716518
vn 0.0000 1.0000 0.0000
vn -0.0002 1.0000 0.0005
vn -0.0013 1.0000 0.0002
vn -0.0015 1.0000 0.0002
vn 0.0000 1.0000 0.0005
s 1
f 3/1/1 4/2/1 5/3/1
f 6/4/1 7/5/1 8/6/1
f 9/7/2 10/8/3 11/9/4
f 12/10/1 13/11/1 14/12/1
f 17/13/1 18/14/1 19/15/1
f 24/16/1 25/17/1 26/18/1
f 27/19/1 28/20/1 29/21/1
f 38/22/1 39/23/1 40/24/1
f 41/25/1 42/26/1 43/27/1
f 44/28/1 45/29/1 46/30/1
f 47/31/1 48/32/1 49/33/1
f 50/34/1 51/35/1 52/36/1
f 53/37/1 54/38/1 55/39/1
f 56/40/1 57/41/1 58/42/1
f 59/43/1 60/44/1 61/45/1
f 62/46/1 63/47/1 64/48/1
f 3/1/1 71/49/1 4/2/1
f 6/4/1 72/50/1 7/5/1
f 9/7/2 80/51/5 10/8/3
f 30/52/1 31/53/1 32/54/1
f 30/52/1 33/55/1 31/53/1
f 12/10/1 88/56/1 13/11/1
f 37/57/1 34/58/1 36/59/1
f 37/57/1 36/59/1 35/60/1
f 65/61/1 66/62/1 67/63/1
f 15/64/1 16/65/1 20/66/1
f 65/61/1 68/67/1 66/62/1
f 74/68/1 69/69/1 73/70/1
f 17/13/1 96/71/1 18/14/1
f 74/68/1 73/70/1 70/72/1
f 75/73/1 76/74/1 77/75/1
f 75/73/1 78/76/1 76/74/1
f 15/64/1 21/77/1 16/65/1
f 83/78/1 79/79/1 82/80/1
f 83/78/1 82/80/1 81/81/1
f 24/16/1 104/82/1 25/17/1
f 87/83/1 84/84/1 86/85/1
f 87/83/1 86/85/1 85/86/1
f 89/87/1 90/88/1 91/89/1
f 89/87/1 94/90/1 90/88/1
f 99/91/1 95/92/1 98/93/1
f 99/91/1 98/93/1 97/94/1
f 102/95/1 103/96/1 105/97/1
f 27/19/1 112/98/1 28/20/1
f 102/95/1 106/99/1 103/96/1
f 110/100/1 107/101/1 109/102/1
f 110/100/1 109/102/1 108/103/1
f 111/104/1 113/105/1 114/106/1
f 111/104/1 115/107/1 113/105/1
f 119/108/1 116/109/1 118/110/1
f 119/108/1 118/110/1 117/111/1
f 38/22/1 120/112/1 39/23/1
f 41/25/1 121/113/1 42/26/1
f 44/28/1 122/114/1 45/29/1
f 47/31/1 123/115/1 48/32/1
f 50/34/1 124/116/1 51/35/1
f 53/37/1 125/117/1 54/38/1
f 56/40/1 126/118/1 57/41/1
f 59/43/1 127/119/1 60/44/1
f 62/46/1 128/120/1 63/47/1
f 93/121/1 22/122/1 92/123/1
f 93/121/1 92/123/1 23/124/1
f 100/125/1 101/126/1 129/127/1
f 100/125/1 130/128/1 101/126/1
f 134/129/1 131/130/1 133/131/1
f 134/129/1 133/131/1 132/132/1
f 135/133/1 136/134/1 137/135/1
f 135/133/1 138/136/1 136/134/1
f 142/137/1 139/138/1 141/139/1
f 142/137/1 141/139/1 140/140/1
f 146/141/1 143/142/1 145/143/1
f 146/141/1 145/143/1 144/144/1
f 147/145/1 148/146/1 149/147/1
f 147/145/1 150/148/1 148/146/1
f 154/149/1 151/150/1 153/151/1
f 154/149/1 153/151/1 152/152/1
f 155/153/1 156/154/1 157/155/1
f 155/153/1 158/156/1 156/154/1
f 162/157/1 159/158/1 161/159/1
f 162/157/1 161/159/1 160/160/1
f 166/161/1 163/162/1 165/163/1
f 166/161/1 165/163/1 164/164/1
f 167/165/1 168/166/1 169/167/1
f 167/165/1 170/168/1 168/166/1
f 174/169/1 171/170/1 173/171/1
f 174/169/1 173/171/1 172/172/1
f 175/173/1 176/174/1 177/175/1
f 175/173/1 192/176/1 176/174/1
f 178/177/1 179/178/1 180/179/1
f 178/177/1 181/180/1 179/178/1
f 185/181/1 182/182/1 184/183/1
f 185/181/1 184/183/1 183/184/1
f 186/185/1 187/186/1 188/187/1
f 186/185/1 189/188/1 187/186/1
f 194/189/1 190/190/1 193/191/1
f 194/189/1 193/191/1 191/192/1
f 195/193/1 196/194/1 197/195/1
f 195/193/1 198/196/1 196/194/1
f 202/197/1 199/198/1 201/199/1
f 202/197/1 201/199/1 200/200/1
f 206/201/1 203/202/1 205/203/1
f 206/201/1 205/203/1 204/204/1
f 207/205/1 208/206/1 209/207/1
f 207/205/1 210/208/1 208/206/1
f 214/209/1 211/210/1 213/211/1
f 214/209/1 213/211/1 212/212/1
f 215/213/1 216/214/1 217/215/1
f 215/213/1 218/216/1 216/214/1
f 222/217/1 219/218/1 221/219/1
f 222/217/1 221/219/1 220/220/1
f 223/221/1 224/222/1 225/223/1
f 223/221/1 226/224/1 224/222/1
f 230/225/1 227/226/1 229/227/1
f 230/225/1 229/227/1 228/228/1
f 231/229/1 232/230/1 233/231/1
f 231/229/1 234/232/1 232/230/1
f 238/233/1 235/234/1 237/235/1
f 238/233/1 237/235/1 236/236/1
f 239/237/1 240/238/1 241/239/1
f 239/237/1 242/240/1 240/238/1
f 246/241/1 243/242/1 245/243/1
f 246/241/1 245/243/1 244/244/1
f 247/245/1 248/246/1 249/247/1
f 247/245/1 250/248/1 248/246/1
f 254/249/1 251/250/1 253/251/1
f 254/249/1 253/251/1 252/252/1
f 258/253/1 255/254/1 257/255/1
f 258/253/1 257/255/1 256/256/1
l 1 2
