# Blender 3.6.2
# www.blender.org
o GIFT_PLANE
v 0.000000 -0.413665 2.671638 1.0000 1.0000 1.0000
v 0.000000 0.442394 2.691082 1.0000 1.0000 1.0000
v 0.000000 0.443783 3.166082 1.0000 1.0000 1.0000
v 0.000000 0.298853 3.143235 1.0000 1.0000 1.0000
v 0.000000 0.275728 2.896360 1.0000 1.0000 1.0000
v 0.000000 0.099478 2.883860 1.0000 1.0000 1.0000
v 0.000000 0.092533 3.078582 1.0000 1.0000 1.0000
v 0.000000 -0.052397 3.055735 1.0000 1.0000 1.0000
v 0.000000 -0.075522 2.872610 1.0000 1.0000 1.0000
v 0.000000 -0.261772 2.858860 1.0000 1.0000 1.0000
v 0.000000 -0.266147 3.147610 1.0000 1.0000 1.0000
v 0.000000 -0.273925 3.153165 1.0000 1.0000 1.0000
v 0.000000 -0.423765 3.116789 1.0000 1.0000 1.0000
v 0.000000 -0.404897 2.238547 1.0000 1.0000 1.0000
v 0.000000 0.119478 1.986360 1.0000 1.0000 1.0000
v 0.000000 -0.426226 1.993860 1.0000 1.0000 1.0000
v 0.000000 -0.413140 1.810922 1.0000 1.0000 1.0000
v 0.000000 0.442394 1.831082 1.0000 1.0000 1.0000
v 0.000000 0.430259 2.040266 1.0000 1.0000 1.0000
v 0.000000 -0.131772 2.300110 1.0000 1.0000 1.0000
v 0.000000 0.444399 2.297688 1.0000 1.0000 1.0000
v 0.000000 0.439686 2.459815 1.0000 1.0000 1.0000
v 0.000000 0.388037 2.506516 1.0000 1.0000 1.0000
v 0.000000 -0.427884 2.458305 1.0000 1.0000 1.0000
v 0.000000 0.440749 1.444724 1.0000 1.0000 1.0000
v 0.000000 -0.425106 1.683999 1.0000 1.0000 1.0000
v 0.000000 -0.418943 1.494277 1.0000 1.0000 1.0000
v 0.000000 -0.244272 1.418860 1.0000 1.0000 1.0000
v 0.000000 -0.244272 1.201360 1.0000 1.0000 1.0000
v 0.000000 -0.429967 1.152081 1.0000 1.0000 1.0000
v 0.000000 -0.410731 0.975110 1.0000 1.0000 1.0000
v 0.000000 -0.364627 0.948538 1.0000 1.0000 1.0000
v 0.000000 0.447603 1.246985 1.0000 1.0000 1.0000
v 0.000000 -0.063022 1.246360 1.0000 1.0000 1.0000
v 0.000000 -0.063022 1.390110 1.0000 1.0000 1.0000
v 0.000000 0.266978 1.337610 1.0000 1.0000 1.0000
v 0.000000 -0.413665 0.477888 1.0000 1.0000 1.0000
v 0.000000 0.442394 0.497332 1.0000 1.0000 1.0000
v -0.349361 0.442394 0.686784 1.0000 1.0000 1.0000
v 0.000000 -0.286695 0.635894 1.0000 1.0000 1.0000
v 0.000000 -0.315178 0.872595 1.0000 1.0000 1.0000
v -0.349361 -0.315178 0.872595 1.0000 1.0000 1.0000
v 0.000000 -0.413140 -0.257829 1.0000 1.0000 1.0000
v 0.000000 0.443853 -0.251257 1.0000 1.0000 1.0000
v 0.000000 0.443853 0.202610 1.0000 1.0000 1.0000
v 0.000000 0.306869 0.345292 1.0000 1.0000 1.0000
v 0.000000 -0.116911 0.254971 1.0000 1.0000 1.0000
v 0.000000 -0.188022 -0.067390 1.0000 1.0000 1.0000
v 0.000000 -0.432397 -0.089890 1.0000 1.0000 1.0000
v 0.000000 -0.434312 -0.092234 1.0000 1.0000 1.0000
v 0.000000 0.269478 -0.040446 1.0000 1.0000 1.0000
v 0.000000 -0.015522 -0.054890 1.0000 1.0000 1.0000
v 0.000000 0.019321 0.109641 1.0000 1.0000 1.0000
v 0.000000 0.256196 0.119016 1.0000 1.0000 1.0000
v 0.000000 0.275728 -0.836140 1.0000 1.0000 1.0000
v 0.000000 -0.433517 -0.888927 1.0000 1.0000 1.0000
v 0.000000 -0.413665 -1.060862 1.0000 1.0000 1.0000
v 0.000000 0.275728 -1.053640 1.0000 1.0000 1.0000
v 0.000000 0.277672 -1.261279 1.0000 1.0000 1.0000
v 0.000000 0.418974 -1.246817 1.0000 1.0000 1.0000
v 0.000000 0.443783 -0.603918 1.0000 1.0000 1.0000
v 0.000000 0.286005 -0.643085 1.0000 1.0000 1.0000
v 0.000000 0.275728 -0.701140 1.0000 1.0000 1.0000
v 0.000000 -0.075522 -1.584890 1.0000 1.0000 1.0000
v 0.000000 -0.433096 -1.610693 1.0000 1.0000 1.0000
v 0.000000 -0.413665 -1.785862 1.0000 1.0000 1.0000
v 0.000000 0.442394 -1.766418 1.0000 1.0000 1.0000
v 0.000000 0.443783 -1.291418 1.0000 1.0000 1.0000
v 0.000000 0.298853 -1.314265 1.0000 1.0000 1.0000
v 0.000000 0.275728 -1.561140 1.0000 1.0000 1.0000
v 0.000000 0.099478 -1.573640 1.0000 1.0000 1.0000
v 0.000000 0.092533 -1.378918 1.0000 1.0000 1.0000
v 0.000000 -0.052397 -1.401765 1.0000 1.0000 1.0000
v 0.000000 -0.413665 -2.178362 1.0000 1.0000 1.0000
v 0.000000 0.442394 -2.158918 1.0000 1.0000 1.0000
v 0.000000 0.423419 -1.974613 1.0000 1.0000 1.0000
v 0.000000 -0.431629 -1.999283 1.0000 1.0000 1.0000
v 0.000000 -0.427628 -2.521926 1.0000 1.0000 1.0000
v 0.000000 -0.343022 -2.582390 1.0000 1.0000 1.0000
v 0.000000 -0.422489 -2.648185 1.0000 1.0000 1.0000
v 0.000000 -0.414134 -2.893363 1.0000 1.0000 1.0000
v 0.000000 -0.292189 -2.988085 1.0000 1.0000 1.0000
v 0.000000 0.302116 -2.933849 1.0000 1.0000 1.0000
v 0.000000 0.451283 -2.710168 1.0000 1.0000 1.0000
v 0.000000 0.410728 -2.391765 1.0000 1.0000 1.0000
v 0.000000 0.324339 -2.326001 1.0000 1.0000 1.0000
v 0.000000 0.179517 -2.344109 1.0000 1.0000 1.0000
v 0.000000 0.129126 -2.534304 1.0000 1.0000 1.0000
v 0.000000 0.260728 -2.567390 1.0000 1.0000 1.0000
v 0.000000 0.211978 -2.730863 1.0000 1.0000 1.0000
v 0.000000 -0.222814 -2.752807 1.0000 1.0000 1.0000
v 0.000000 -0.252428 -2.703180 1.0000 1.0000 1.0000
v 0.000000 -0.230713 -2.597156 1.0000 1.0000 1.0000
v 0.000000 -0.017141 -2.537894 1.0000 1.0000 1.0000
v 0.000000 -0.020132 -2.387625 1.0000 1.0000 1.0000
v 0.000000 -0.060067 -2.356709 1.0000 1.0000 1.0000
v 0.000000 -0.429689 -2.372529 1.0000 1.0000 1.0000
v -0.349361 0.442394 2.691082 1.0000 1.0000 1.0000
v -0.349361 0.443783 3.166082 1.0000 1.0000 1.0000
v -0.349361 -0.413140 1.810922 1.0000 1.0000 1.0000
v -0.349361 0.442394 1.831082 1.0000 1.0000 1.0000
v -0.349361 0.298853 3.143235 1.0000 1.0000 1.0000
v -0.349361 0.211978 -2.730863 1.0000 1.0000 1.0000
v -0.349361 -0.222814 -2.752807 1.0000 1.0000 1.0000
v -0.349361 -0.273925 3.153165 1.0000 1.0000 1.0000
v -0.349361 -0.423765 3.116789 1.0000 1.0000 1.0000
v -0.349361 0.442394 -2.158918 1.0000 1.0000 1.0000
v -0.349361 -0.244272 1.418860 1.0000 1.0000 1.0000
v -0.349361 -0.244272 1.201360 1.0000 1.0000 1.0000
v -0.349361 -0.431629 -1.999283 1.0000 1.0000 1.0000
v -0.349361 -0.413665 0.817671 1.0000 1.0000 1.0000
v -0.349361 -0.131772 2.300110 1.0000 1.0000 1.0000
v -0.349361 0.444399 2.297688 1.0000 1.0000 1.0000
v -0.349361 -0.292189 -2.988085 1.0000 1.0000 1.0000
v -0.349361 0.302116 -2.933849 1.0000 1.0000 1.0000
v -0.349361 -0.266147 3.147610 1.0000 1.0000 1.0000
v -0.349361 0.324339 -2.326001 1.0000 1.0000 1.0000
v -0.349361 0.179517 -2.344109 1.0000 1.0000 1.0000
v -0.349361 0.430259 2.040266 1.0000 1.0000 1.0000
v -0.349361 -0.429689 -2.372529 1.0000 1.0000 1.0000
v -0.349361 -0.413665 2.671638 1.0000 1.0000 1.0000
v -0.349361 0.410728 -2.391765 1.0000 1.0000 1.0000
v -0.349361 0.443853 -0.251257 1.0000 1.0000 1.0000
v -0.349361 -0.017141 -2.537894 1.0000 1.0000 1.0000
v -0.349361 -0.020132 -2.387625 1.0000 1.0000 1.0000
v -0.349361 0.286005 -0.643085 1.0000 1.0000 1.0000
v -0.349361 0.275728 -0.701140 1.0000 1.0000 1.0000
v -0.349361 0.423419 -1.974613 1.0000 1.0000 1.0000
v 0.000000 -0.413665 0.817671 1.0000 1.0000 1.0000
v -0.349361 0.275728 -1.053640 1.0000 1.0000 1.0000
v -0.349361 -0.261772 2.858860 1.0000 1.0000 1.0000
v -0.349361 -0.413665 -2.178362 1.0000 1.0000 1.0000
v -0.349361 -0.075522 -1.584890 1.0000 1.0000 1.0000
v -0.349361 -0.433096 -1.610693 1.0000 1.0000 1.0000
v -0.349361 0.451283 -2.710168 1.0000 1.0000 1.0000
v -0.349361 -0.422489 -2.648185 1.0000 1.0000 1.0000
v -0.349361 -0.414134 -2.893363 1.0000 1.0000 1.0000
v -0.349361 0.269478 -0.040446 1.0000 1.0000 1.0000
v -0.349361 0.443783 -0.603918 1.0000 1.0000 1.0000
v -0.349361 0.443853 0.202610 1.0000 1.0000 1.0000
v -0.349361 0.306869 0.345292 1.0000 1.0000 1.0000
v -0.349361 -0.286695 0.635894 1.0000 1.0000 1.0000
v -0.349361 -0.060067 -2.356709 1.0000 1.0000 1.0000
v -0.349361 -0.427628 -2.521926 1.0000 1.0000 1.0000
v -0.349361 -0.343022 -2.582390 1.0000 1.0000 1.0000
v -0.349361 -0.116911 0.254971 1.0000 1.0000 1.0000
v -0.349361 -0.188022 -0.067390 1.0000 1.0000 1.0000
v -0.349361 0.418974 -1.246817 1.0000 1.0000 1.0000
v -0.349361 0.260728 -2.567390 1.0000 1.0000 1.0000
v -0.349361 -0.063022 1.390110 1.0000 1.0000 1.0000
v -0.349361 0.298853 -1.314265 1.0000 1.0000 1.0000
v -0.349361 0.275728 -1.561140 1.0000 1.0000 1.0000
v -0.349361 -0.432397 -0.089890 1.0000 1.0000 1.0000
v -0.349361 -0.433517 -0.888927 1.0000 1.0000 1.0000
v -0.349361 -0.413665 -1.060862 1.0000 1.0000 1.0000
v -0.349361 -0.418943 1.494277 1.0000 1.0000 1.0000
v -0.349361 -0.063022 1.246360 1.0000 1.0000 1.0000
v -0.349361 0.388037 2.506516 1.0000 1.0000 1.0000
v -0.349361 -0.427884 2.458305 1.0000 1.0000 1.0000
v -0.349361 -0.404897 2.238547 1.0000 1.0000 1.0000
v -0.349361 0.275728 2.896360 1.0000 1.0000 1.0000
v -0.349361 -0.252428 -2.703180 1.0000 1.0000 1.0000
v -0.349361 -0.230713 -2.597156 1.0000 1.0000 1.0000
v 0.000000 0.442394 0.686784 1.0000 1.0000 1.0000
v -0.349361 -0.410731 0.975110 1.0000 1.0000 1.0000
v -0.349361 -0.364627 0.948538 1.0000 1.0000 1.0000
v -0.349361 -0.425106 1.683999 1.0000 1.0000 1.0000
v -0.349361 0.266978 1.337610 1.0000 1.0000 1.0000
v -0.349361 -0.413665 -1.785862 1.0000 1.0000 1.0000
v -0.349361 0.442394 -1.766418 1.0000 1.0000 1.0000
v -0.349361 0.439686 2.459815 1.0000 1.0000 1.0000
v -0.349361 0.440749 1.444724 1.0000 1.0000 1.0000
v -0.349361 0.092533 3.078582 1.0000 1.0000 1.0000
v -0.349361 -0.052397 3.055735 1.0000 1.0000 1.0000
v -0.349361 0.119478 1.986360 1.0000 1.0000 1.0000
v -0.349361 -0.426226 1.993860 1.0000 1.0000 1.0000
v -0.349361 0.099478 2.883860 1.0000 1.0000 1.0000
v -0.349361 0.275728 -0.836140 1.0000 1.0000 1.0000
v -0.349361 -0.429967 1.152081 1.0000 1.0000 1.0000
v -0.349361 -0.075522 2.872610 1.0000 1.0000 1.0000
v -0.349361 0.099478 -1.573640 1.0000 1.0000 1.0000
v -0.349361 -0.015522 -0.054890 1.0000 1.0000 1.0000
v -0.390824 -0.413665 0.477888 1.0000 1.0000 1.0000
v -0.349361 0.092533 -1.378918 1.0000 1.0000 1.0000
v -0.349361 -0.052397 -1.401765 1.0000 1.0000 1.0000
v -0.349361 0.277672 -1.261279 1.0000 1.0000 1.0000
v -0.349361 0.129126 -2.534304 1.0000 1.0000 1.0000
v -0.349361 0.447603 1.246985 1.0000 1.0000 1.0000
v -0.349361 0.019321 0.109641 1.0000 1.0000 1.0000
v -0.349361 0.256196 0.119016 1.0000 1.0000 1.0000
v -0.349361 -0.413140 -0.257829 1.0000 1.0000 1.0000
v -0.390824 0.442394 0.497332 1.0000 1.0000 1.0000
v -0.349361 0.443783 -1.291418 1.0000 1.0000 1.0000
v -0.349361 -0.434312 -0.092234 1.0000 1.0000 1.0000
v -0.349361 0.442394 0.686784 0.0000 0.0000 0.0000
v -0.349361 -0.315178 0.872595 0.0000 0.0000 0.0000
v -0.349361 0.442394 2.691082 0.0000 0.0000 0.0000
v -0.349361 0.443783 3.166082 0.0000 0.0000 0.0000
v -0.349361 -0.413140 1.810922 0.0000 0.0000 0.0000
v -0.349361 0.442394 1.831082 0.0000 0.0000 0.0000
v -0.349361 0.298853 3.143235 0.0000 0.0000 0.0000
v -0.349361 0.211978 -2.730863 0.0000 0.0000 0.0000
v -0.349361 -0.222814 -2.752807 0.0000 0.0000 0.0000
v -0.349361 -0.273925 3.153165 0.0000 0.0000 0.0000
v -0.349361 -0.423765 3.116789 0.0000 0.0000 0.0000
v -0.349361 0.442394 -2.158918 0.0000 0.0000 0.0000
v -0.349361 -0.244272 1.418860 0.0000 0.0000 0.0000
v -0.349361 -0.244272 1.201360 0.0000 0.0000 0.0000
v -0.349361 -0.431629 -1.999283 0.0000 0.0000 0.0000
v -0.349361 -0.413665 0.817671 0.0000 0.0000 0.0000
v -0.349361 -0.131772 2.300110 0.0000 0.0000 0.0000
v -0.349361 0.444399 2.297688 0.0000 0.0000 0.0000
v -0.349361 -0.292189 -2.988085 0.0000 0.0000 0.0000
v -0.349361 0.302116 -2.933849 0.0000 0.0000 0.0000
v -0.349361 -0.266147 3.147610 0.0000 0.0000 0.0000
v -0.349361 0.324339 -2.326001 0.0000 0.0000 0.0000
v -0.349361 0.179517 -2.344109 0.0000 0.0000 0.0000
v -0.349361 0.430259 2.040266 0.0000 0.0000 0.0000
v -0.349361 -0.429689 -2.372529 0.0000 0.0000 0.0000
v -0.349361 -0.413665 2.671638 0.0000 0.0000 0.0000
v -0.349361 0.410728 -2.391765 0.0000 0.0000 0.0000
v -0.349361 0.443853 -0.251257 0.0000 0.0000 0.0000
v -0.349361 -0.017141 -2.537894 0.0000 0.0000 0.0000
v -0.349361 -0.020132 -2.387625 0.0000 0.0000 0.0000
v -0.349361 0.286005 -0.643085 0.0000 0.0000 0.0000
v -0.349361 0.275728 -0.701140 0.0000 0.0000 0.0000
v -0.349361 0.423419 -1.974613 0.0000 0.0000 0.0000
v -0.349361 0.275728 -1.053640 0.0000 0.0000 0.0000
v -0.349361 -0.261772 2.858860 0.0000 0.0000 0.0000
v -0.349361 -0.413665 -2.178362 0.0000 0.0000 0.0000
v -0.349361 -0.075522 -1.584890 0.0000 0.0000 0.0000
v -0.349361 -0.433096 -1.610693 0.0000 0.0000 0.0000
v -0.349361 0.451283 -2.710168 0.0000 0.0000 0.0000
v -0.349361 -0.422489 -2.648185 0.0000 0.0000 0.0000
v -0.349361 -0.414134 -2.893363 0.0000 0.0000 0.0000
v -0.349361 0.269478 -0.040446 0.0000 0.0000 0.0000
v -0.349361 0.443783 -0.603918 0.0000 0.0000 0.0000
v -0.349361 0.443853 0.202610 0.0000 0.0000 0.0000
v -0.349361 0.306869 0.345292 0.0000 0.0000 0.0000
v -0.349361 -0.286695 0.635894 0.0000 0.0000 0.0000
v -0.349361 -0.060067 -2.356709 0.0000 0.0000 0.0000
v -0.349361 -0.427628 -2.521926 0.0000 0.0000 0.0000
v -0.349361 -0.343022 -2.582390 0.0000 0.0000 0.0000
v -0.349361 -0.116911 0.254971 0.0000 0.0000 0.0000
v -0.349361 -0.188022 -0.067390 0.0000 0.0000 0.0000
v -0.349361 0.418974 -1.246817 0.0000 0.0000 0.0000
v -0.349361 0.260728 -2.567390 0.0000 0.0000 0.0000
v -0.349361 -0.063022 1.390110 0.0000 0.0000 0.0000
v -0.349361 0.298853 -1.314265 0.0000 0.0000 0.0000
v -0.349361 0.275728 -1.561140 0.0000 0.0000 0.0000
v -0.349361 -0.432397 -0.089890 0.0000 0.0000 0.0000
v -0.349361 -0.433517 -0.888927 0.0000 0.0000 0.0000
v -0.349361 -0.413665 -1.060862 0.0000 0.0000 0.0000
v -0.349361 -0.418943 1.494277 0.0000 0.0000 0.0000
v -0.349361 -0.063022 1.246360 0.0000 0.0000 0.0000
v -0.349361 0.388037 2.506516 0.0000 0.0000 0.0000
v -0.349361 -0.427884 2.458305 0.0000 0.0000 0.0000
v -0.349361 -0.404897 2.238547 0.0000 0.0000 0.0000
v -0.349361 0.275728 2.896360 0.0000 0.0000 0.0000
v -0.349361 -0.252428 -2.703180 0.0000 0.0000 0.0000
v -0.349361 -0.230713 -2.597156 0.0000 0.0000 0.0000
v -0.349361 -0.410731 0.975110 0.0000 0.0000 0.0000
v -0.349361 -0.364627 0.948538 0.0000 0.0000 0.0000
v -0.349361 -0.425106 1.683999 0.0000 0.0000 0.0000
v -0.349361 0.266978 1.337610 0.0000 0.0000 0.0000
v -0.349361 -0.413665 -1.785862 0.0000 0.0000 0.0000
v -0.349361 0.442394 -1.766418 0.0000 0.0000 0.0000
v -0.349361 0.439686 2.459815 0.0000 0.0000 0.0000
v -0.349361 0.440749 1.444724 0.0000 0.0000 0.0000
v -0.349361 0.092533 3.078582 0.0000 0.0000 0.0000
v -0.349361 -0.052397 3.055735 0.0000 0.0000 0.0000
v -0.349361 0.119478 1.986360 0.0000 0.0000 0.0000
v -0.349361 -0.426226 1.993860 0.0000 0.0000 0.0000
v -0.349361 0.099478 2.883860 0.0000 0.0000 0.0000
v -0.349361 0.275728 -0.836140 0.0000 0.0000 0.0000
v -0.349361 -0.429967 1.152081 0.0000 0.0000 0.0000
v -0.349361 0.099478 -1.573640 0.0000 0.0000 0.0000
v -0.349361 -0.015522 -0.054890 0.0000 0.0000 0.0000
v -0.390824 -0.413665 0.477888 0.0000 0.0000 0.0000
v -0.349361 0.092533 -1.378918 0.0000 0.0000 0.0000
v -0.349361 -0.052397 -1.401765 0.0000 0.0000 0.0000
v -0.349361 0.277672 -1.261279 0.0000 0.0000 0.0000
v -0.349361 0.129126 -2.534304 0.0000 0.0000 0.0000
v -0.349361 0.447603 1.246985 0.0000 0.0000 0.0000
v -0.349361 0.019321 0.109641 0.0000 0.0000 0.0000
v -0.349361 0.256196 0.119016 0.0000 0.0000 0.0000
v -0.349361 -0.413140 -0.257829 0.0000 0.0000 0.0000
v -0.390824 0.442394 0.497332 0.0000 0.0000 0.0000
v -0.349361 0.443783 -1.291418 0.0000 0.0000 0.0000
v -0.349361 -0.434312 -0.092234 0.0000 0.0000 0.0000
v -0.349361 0.099478 2.883860 0.0000 0.0000 0.0000
v -0.349361 -0.075522 2.872610 0.0000 0.0000 0.0000
v -0.349361 0.439686 2.459815 0.0000 0.0000 0.0000
v -0.349361 0.388037 2.506516 0.0000 0.0000 0.0000
v -0.349361 -0.427884 2.458305 0.0000 0.0000 0.0000
v -0.349361 -0.404897 2.238547 0.0000 0.0000 0.0000
v -0.349361 0.430259 2.040266 0.0000 0.0000 0.0000
v -0.349361 0.442394 1.831082 0.0000 0.0000 0.0000
v -0.349361 -0.426226 1.993860 0.0000 0.0000 0.0000
v -0.349361 0.440749 1.444724 0.0000 0.0000 0.0000
v -0.349361 0.007822 1.564361 0.0000 0.0000 0.0000
v -0.349361 0.041488 1.097762 0.0000 0.0000 0.0000
v -0.349361 -0.188022 -0.067390 0.0000 0.0000 0.0000
v -0.349361 0.375361 0.273951 0.0000 0.0000 0.0000
v -0.349361 0.276700 -1.157459 0.0000 0.0000 0.0000
v -0.349361 0.251928 -2.335055 0.0000 0.0000 0.0000
v -0.349361 -0.353162 -2.940724 0.0000 0.0000 0.0000
v -0.349361 0.431005 -2.550967 0.0000 0.0000 0.0000
vn -0.0742 0.9972 -0.0000
vn -0.0525 0.7052 0.7071
vn 0.0227 -0.9997 -0.0000
vn -0.0000 -1.0000 -0.0094
vn -0.0000 0.9947 0.1024
vn -0.0000 -0.9921 0.1253
vn -0.0000 0.9928 0.1195
vn -0.0000 0.9996 0.0291
vn -0.0000 0.9999 0.0151
vn -0.0000 -0.0742 0.9972
vn -0.0000 0.0227 -0.9997
vn -0.0000 -0.0707 0.9975
vn -0.0000 -0.0720 0.9974
vn -0.0000 0.9920 0.1263
vn -0.0000 -0.9939 -0.1103
vn -0.0000 -0.9994 -0.0341
vn -0.0000 -0.0506 0.9987
vn -0.0000 -1.0000 -0.0000
vn -0.0000 -0.2409 0.9705
vn -0.0000 0.2674 -0.9636
vn -0.0000 0.7214 0.6926
vn -0.0000 -0.9999 -0.0138
vn -0.0000 -0.4871 0.8734
vn -0.0000 -0.0736 0.9973
vn -0.0000 -0.0428 0.9991
vn -0.0000 -0.1557 0.9878
vn -0.0000 -0.5814 -0.8136
vn -0.0000 -0.2438 -0.9698
vn -0.0000 -0.9765 0.2154
vn -0.0000 0.3449 -0.9386
vn -0.0000 -0.0288 0.9996
vn -0.0000 -0.6134 -0.7897
vn -0.0000 -0.9666 0.2561
vn -0.0000 0.9783 -0.2072
vn -0.0000 -0.9583 0.2858
vn -0.0000 0.0395 -0.9992
vn -0.0000 0.4197 0.9077
vn -0.0000 -0.9956 0.0933
vn -0.0000 0.8320 -0.5548
vn -0.0000 -0.6377 0.7703
vn -0.0000 0.9994 0.0356
vn -0.0000 -0.1004 0.9950
vn -0.0000 0.0077 -1.0000
vn -0.0000 -0.9934 -0.1147
vn -0.0000 -0.0696 0.9976
vn -0.0000 -0.3964 -0.9181
vn -0.0000 1.0000 -0.0029
vn -0.0000 0.9994 0.0346
vn -0.0000 -0.0590 0.9983
vn -0.0000 -0.9975 -0.0714
vn -0.0000 0.0236 -0.9997
vn -0.0000 0.9797 -0.2006
vn -0.0000 1.0000 -0.0000
vn -0.0000 -0.0504 0.9987
vn -0.0000 -0.9946 -0.1040
vn -0.0000 -0.4993 -0.8664
vn -0.0000 -0.2359 0.9718
vn -0.0000 0.8587 0.5124
vn -0.0000 -0.1571 -0.9876
vn -0.0000 -0.9997 -0.0227
vn -0.0000 -0.9950 -0.0998
vn -0.0000 0.2664 0.9639
vn -0.0000 -0.0042 -1.0000
vn -0.0000 -0.9965 -0.0830
vn -0.0000 -0.2665 0.9638
vn -0.0000 0.0909 -0.9959
vn -0.0000 0.1018 -0.9948
vn -0.0000 0.5812 0.8138
vn -0.0000 0.6122 0.7907
vn -0.0000 0.0105 -0.9999
vn -0.0000 -0.1241 0.9923
vn -0.0000 0.6707 0.7417
vn -0.0000 0.9983 0.0579
vn -0.0000 -0.2084 0.9780
vn -0.0000 -0.9995 -0.0325
vn -0.0000 0.0137 0.9999
vn -0.0000 0.6057 0.7957
vn -0.0000 -0.9919 -0.1268
vn -0.0000 -0.2565 0.9665
vn -0.0000 0.9998 0.0199
vn -0.0000 -0.9941 -0.1081
vn -0.0000 -0.9847 0.1743
vn -0.0000 -0.4334 -0.9012
vn -0.0000 0.9993 -0.0386
vn -1.0000 -0.0000 -0.0000
vn -0.9718 -0.0105 0.2357
vn -0.9910 0.1098 0.0767
s 0
f 55//1 58//2 63//3
f 59//4 58//4 130//4 186//4
f 75//5 107//5 128//5 76//5
f 9//6 8//6 174//6 180//6
f 142//7 42//7 41//7 40//7
f 171//8 22//8 21//8 113//8
f 11//9 10//9 131//9 116//9
f 56//10 55//10 178//10 154//10
f 75//11 74//11 132//11 107//11
f 6//12 5//12 161//12 177//12
f 65//13 64//13 133//13 134//13
f 71//12 70//12 152//12 181//12
f 85//14 84//14 135//14 122//14
f 66//15 65//15 134//15 169//15
f 81//16 80//16 136//16 137//16
f 52//17 51//17 138//17 182//17
f 183//18 37//18 129//18 111//18
f 62//19 61//19 139//19 126//19
f 94//20 93//20 163//20 124//20
f 46//21 45//21 140//21 141//21
f 97//22 120//22 144//22 78//22
f 111//23 129//23 41//23 42//23
f 10//24 9//24 180//24 131//24
f 97//25 96//25 143//25 120//25
f 73//26 72//26 184//26 185//26
f 79//27 78//27 144//27 145//27
f 89//28 88//28 187//28 149//28
f 48//29 47//29 146//29 147//29
f 32//30 166//30 188//30 33//30
f 77//31 76//31 128//31 110//31
f 82//32 81//32 137//32 114//32
f 118//33 187//33 88//33 87//33
f 53//34 52//34 182//34 189//34
f 90//35 89//35 149//35 103//35
f 54//36 53//36 189//36 190//36
f 20//37 19//37 119//37 112//37
f 70//38 69//38 151//38 152//38
f 84//39 83//39 115//39 135//39
f 80//40 79//40 145//40 136//40
f 72//41 71//41 181//41 184//41
f 49//42 48//42 147//42 153//42 194//42 50//42
f 44//43 43//43 191//43 123//43
f 57//44 56//44 154//44 155//44
f 39//45 142//45 40//45 164//45
f 28//46 27//46 156//46 108//46
f 68//47 67//47 170//47 193//47
f 25//48 33//48 188//48 172//48
f 24//49 23//49 158//49 159//49
f 176//50 100//50 17//50 16//50
f 3//47 2//47 98//47 99//47
f 5//38 4//38 102//38 161//38
f 18//51 17//51 100//51 101//51
f 69//26 68//26 193//26 151//26
f 93//52 92//52 162//52 163//52
f 4//26 3//26 99//26 102//26
f 38//53 192//53 39//53 164//53
f 91//54 90//54 103//54 104//54
f 14//55 24//55 159//55 160//55
f 32//56 31//56 165//56 166//56
f 13//57 12//57 105//57 106//57
f 92//58 91//58 104//58 162//58
f 36//59 35//59 150//59 168//59
f 29//18 28//18 108//18 109//18
f 1//60 13//60 106//60 121//60
f 67//11 66//11 169//11 170//11
f 110//61 132//61 74//61 77//61
f 38//11 37//11 183//11 192//11
f 26//62 25//62 172//62 167//62
f 21//63 20//63 112//63 113//63
f 190//64 138//64 51//64 54//64
f 34//65 36//65 168//65 157//65
f 83//66 82//66 114//66 115//66
f 60//67 59//67 186//67 148//67
f 8//26 7//26 173//26 174//26
f 12//68 11//68 116//68 105//68
f 96//69 95//69 125//69 143//69
f 58//70 57//70 155//70 130//70
f 87//71 86//71 117//71 118//71
f 23//72 22//72 171//72 158//72
f 35//53 34//53 157//53 150//53
f 101//73 119//73 19//73 18//73
f 47//74 46//74 141//74 146//74
f 167//75 156//75 27//75 26//75
f 123//53 140//53 45//53 44//53
f 2//11 1//11 121//11 98//11
f 64//6 73//6 185//6 133//6
f 16//76 15//76 175//76 176//76
f 86//77 85//77 122//77 117//77
f 43//78 50//78 194//78 191//78
f 30//79 29//79 109//79 179//79
f 7//41 6//41 177//41 173//41
f 95//80 94//80 124//80 125//80
f 55//18 63//18 127//18 178//18
f 31//81 30//81 179//81 165//81
f 63//82 62//82 126//82 127//82
f 15//83 14//83 160//83 175//83
f 139//84 61//84 60//84 148//84
f 203//85 235//85 234//85 260//85
f 243//85 261//85 260//85 234//85
f 272//85 218//85 297//85 200//85
f 266//85 277//85 250//85 267//85
f 240//86 195//86 288//86 279//86
f 203//85 213//85 307//85 235//85
f 230//85 209//85 227//85 206//85
f 272//85 200//85 298//85 199//85
f 207//85 254//85 264//85
f 249//85 289//85 267//85 250//85
f 272//85 199//85 299//85 273//85
f 240//87 279//87 210//87 196//87
f 202//85 214//85 213//85 203//85
f 263//85 262//85 276//85 208//85
f 258//85 211//85 218//85 272//85
f 217//85 306//85 216//85 283//85
f 219//85 241//85 242//85
f 223//85 242//85 241//85 224//85
f 242//85 223//85 261//85 243//85
f 247//85 233//85 214//85 202//85
f 233//85 247//85 221//85 308//85
f 221//85 247//85 283//85 216//85
f 266//85 232//85 231//85 277//85
f 281//85 280//85 277//85 231//85
f 252//85 275//85 228//85 253//85
f 282//85 305//85 228//85 246//85
f 226//85 225//85 237//85 275//85
f 237//85 246//85 228//85 275//85
f 285//85 278//85 245//85 244//85
f 286//85 285//85 244//85 239//85
f 239//85 304//85 238//85 286//85
f 238//85 222//85 236//85 286//85
f 251//85 303//85 287//85 290//85
f 263//85 208//85 284//85 302//85
f 284//85 208//85 255//85 265//85
f 284//85 265//85 269//85 300//85
f 207//85 248//85 255//85 208//85
f 264//85 301//85 269//85 207//85
f 269//85 265//85 248//85 207//85
f 258//85 296//85 257//85 211//85
f 211//85 257//85 295//85 256//85
f 256//85 294//85 268//85 211//85
f 212//85 211//85 268//85 293//85
f 197//85 259//85 201//85 198//85
f 220//85 205//85 229//85 274//85
f 270//85 291//85 292//85 271//85
f 204//85 215//85 229//85 205//85
f 197//85 220//85 274//85 259//85
f 222//85 287//85 303//85 236//85
