# Blender v2.79 (sub 0) OBJ File: 'giftplane_vertex.blend'
# www.blender.org
o Plane.000
v -14.500000 1.000000 2.500000
v -14.500000 -0.000000 2.500000
v 8.500000 -0.000000 2.500000
v 8.500000 1.000000 2.500000
v -14.500000 1.000000 -2.500000
v 8.500000 1.000000 -2.500000
v 8.500000 0.000000 -2.500000
v -14.500000 0.000000 -2.500000
v -14.500000 1.000000 2.500000
v 8.500000 1.000000 2.500000
v 8.500000 -0.000000 2.500000
v -14.500000 -0.000000 2.500000
v -14.500000 1.000000 -2.500000
v -14.500000 0.000000 -2.500000
v 8.500000 0.000000 -2.500000
v 8.500000 1.000000 -2.500000
v 16.500000 1.000005 -16.500000
v 16.500000 0.000005 -16.500000
v 17.500000 0.000005 -16.500000
v 17.500000 1.000005 -16.500000
v 17.500000 0.000002 -4.500000
v 17.500000 1.000002 -4.500000
v 21.500000 0.000002 -4.500000
v 21.500000 1.000002 -4.500000
v 21.500000 0.000001 -3.500000
v 21.500000 1.000001 -3.500000
v 22.500000 0.000001 -3.500000
v 22.500000 1.000001 -3.500000
v 22.500000 0.000007 -19.500000
v 22.500000 1.000007 -19.500000
v 16.500000 1.000008 -26.500000
v 16.500000 0.000008 -26.500000
v 24.500000 0.000007 -19.500000
v 24.500000 1.000007 -19.500000
v 30.500000 1.000005 -16.500000
v 29.500000 1.000005 -16.500000
v 29.500000 0.000005 -16.500000
v 30.500000 0.000005 -16.500000
v 29.500000 1.000002 -4.500000
v 29.500000 0.000002 -4.500000
v 25.500000 1.000002 -4.500000
v 25.500000 0.000002 -4.500000
v 25.500000 1.000001 -3.500000
v 25.500000 0.000001 -3.500000
v 24.500000 1.000001 -3.500000
v 24.500000 0.000001 -3.500000
v 30.500000 0.000008 -26.500000
v 30.500000 1.000008 -26.500000
v -0.500000 -0.000002 6.400000
v -0.500000 0.999998 6.400000
v -0.500000 0.999998 5.400000
v -0.500000 -0.000002 5.400000
v 0.500000 0.999998 5.400000
v 0.500000 -0.000002 5.400000
v 0.500000 0.999998 6.400000
v 0.500000 -0.000002 6.400000
v 6.500000 0.000002 -8.000000
v 6.500000 1.000002 -8.000000
v 8.500000 1.000002 -8.000000
v 8.500000 0.000002 -8.000000
v 6.500000 0.000002 -7.000000
v 6.500000 1.000002 -7.000000
v 8.500000 1.000002 -7.000000
v 8.500000 0.000002 -7.000000
v 1.500000 0.000004 -17.000000
v 1.500000 1.000004 -17.000000
v 2.500000 1.000004 -17.000000
v 2.500000 0.000004 -17.000000
v 1.500000 0.000004 -16.000000
v 1.500000 1.000004 -16.000000
v 2.500000 1.000004 -16.000000
v 2.500000 0.000004 -16.000000
v 13.500000 0.000002 -4.000000
v 13.500000 1.000002 -4.000000
v 13.500000 1.000001 -2.500000
v 13.500000 0.000001 -2.500000
v 12.499999 1.000001 -2.500000
v 12.499999 0.000001 -2.500000
v 12.499999 1.000002 -4.000000
v 12.499999 0.000002 -4.000000
v -2.500000 0.000004 -13.500000
v -2.500000 1.000003 -13.500000
v -3.500000 1.000003 -13.500000
v -3.500000 0.000004 -13.500000
v -2.500000 0.000004 -14.500000
v -2.500000 1.000003 -14.500000
v -3.500000 1.000003 -14.500000
v -3.500000 0.000004 -14.500000
v 14.000000 0.000003 -15.000000
v 14.000000 1.000003 -15.000000
v 15.000000 1.000003 -15.000000
v 15.000000 0.000003 -15.000000
v 14.000000 0.000003 -14.000000
v 14.000000 1.000003 -14.000000
v 15.000000 1.000003 -14.000000
v 15.000000 0.000003 -14.000000
v 33.500000 0.000003 -12.000000
v 33.500000 1.000003 -12.000000
v 35.500000 1.000003 -12.000000
v 35.500000 0.000003 -12.000000
v 33.500000 0.000003 -11.000000
v 33.500000 1.000003 -11.000000
v 35.500000 1.000003 -11.000000
v 35.500000 0.000003 -11.000000
v 13.000000 0.000001 2.500000
v 13.000000 1.000001 2.500000
v 15.000000 1.000001 2.500000
v 15.000000 0.000001 2.500000
v 13.000000 0.000000 3.500000
v 13.000000 1.000000 3.500000
v 15.000000 1.000000 3.500000
v 15.000000 0.000000 3.500000
v 14.000000 0.000001 10.500000
v 14.000000 1.000001 10.500000
v 16.000000 1.000001 10.500000
v 16.000000 0.000001 10.500000
v 14.000000 0.000000 11.500000
v 14.000000 1.000000 11.500000
v 16.000000 1.000000 11.500000
v 16.000000 0.000000 11.500000
vn 0.0000 -0.0000 1.0000
vn 0.0000 0.0000 -1.0000
vn -1.0000 0.0000 0.0000
vn 1.0000 0.0000 0.0000
s 1
f 1//1 2//1 3//1 4//1
f 5//2 6//2 7//2 8//2
f 9//2 10//2 11//2 12//2
f 13//1 14//1 15//1 16//1
f 17//1 18//1 19//1 20//1
f 20//3 19//3 21//3 22//3
f 22//1 21//1 23//1 24//1
f 24//3 23//3 25//3 26//3
f 26//1 25//1 27//1 28//1
f 28//4 27//4 29//4 30//4
f 18//3 17//3 31//3 32//3
f 29//1 33//1 34//1 30//1
f 35//1 36//1 37//1 38//1
f 36//4 39//4 40//4 37//4
f 39//1 41//1 42//1 40//1
f 41//4 43//4 44//4 42//4
f 43//1 45//1 46//1 44//1
f 45//3 34//3 33//3 46//3
f 38//4 47//4 48//4 35//4
f 31//2 48//2 47//2 32//2
f 49//3 50//3 51//3 52//3
f 52//2 51//2 53//2 54//2
f 54//4 53//4 55//4 56//4
f 56//1 55//1 50//1 49//1
f 57//2 58//2 59//2 60//2
f 61//3 62//3 58//3 57//3
f 60//4 59//4 63//4 64//4
f 64//1 63//1 62//1 61//1
f 65//2 66//2 67//2 68//2
f 69//3 70//3 66//3 65//3
f 68//4 67//4 71//4 72//4
f 72//1 71//1 70//1 69//1
f 73//4 74//4 75//4 76//4
f 76//1 75//1 77//1 78//1
f 78//3 77//3 79//3 80//3
f 80//2 79//2 74//2 73//2
f 81//1 82//1 83//1 84//1
f 85//4 86//4 82//4 81//4
f 84//3 83//3 87//3 88//3
f 88//2 87//2 86//2 85//2
f 89//2 90//2 91//2 92//2
f 93//3 94//3 90//3 89//3
f 92//4 91//4 95//4 96//4
f 96//1 95//1 94//1 93//1
f 97//2 98//2 99//2 100//2
f 101//3 102//3 98//3 97//3
f 100//4 99//4 103//4 104//4
f 104//1 103//1 102//1 101//1
f 105//2 106//2 107//2 108//2
f 109//3 110//3 106//3 105//3
f 108//4 107//4 111//4 112//4
f 112//1 111//1 110//1 109//1
f 113//2 114//2 115//2 116//2
f 117//3 118//3 114//3 113//3
f 116//4 115//4 119//4 120//4
f 120//1 119//1 118//1 117//1
