# Blender 4.0.0
# www.blender.org
o Cube_Cube.001
v 8.500000 1.000003 -3.500000
v 8.500000 0.000003 -3.500000
v 8.500000 0.000005 -9.500000
v 8.500000 1.000005 -9.500000
v -1.500000 -0.000000 -0.500000
v 5.500000 -0.000000 -0.500000
v 5.500000 1.000000 -0.500000
v -1.500000 1.000000 -0.500000
v 7.500000 1.000003 -3.500000
v 7.500000 0.000003 -3.500000
v 8.500000 0.000000 1.000000
v -1.500000 0.000000 1.000000
v -1.500000 1.000000 1.000000
v 8.500000 1.000000 1.000000
v 7.500000 1.000000 -2.500000
v 7.500000 -0.000000 -2.500000
v 6.500000 1.000000 -2.500000
v 6.500000 -0.000000 -2.500000
v 6.500000 1.000000 -1.500000
v 6.500000 -0.000000 -1.500000
v 5.500000 -0.000000 -1.500000
v 5.500000 1.000000 -1.500000
v 5.500000 0.000005 -9.500000
v 5.500000 1.000005 -9.500000
v 6.500000 1.000010 -26.000000
v 6.500000 0.000010 -26.000000
v 6.500000 0.000010 -27.000000
v 6.500000 1.000010 -27.000000
v 8.500000 0.000005 -12.000000
v 12.500000 0.000005 -12.000000
v 12.500000 1.000005 -12.000000
v 8.500000 1.000005 -12.000000
v 12.500000 0.000010 -24.500000
v 12.500000 1.000010 -24.500000
v 15.500000 1.000010 -26.000000
v 15.500000 0.000010 -26.000000
v 15.500000 0.000005 -9.500000
v 15.500000 1.000005 -9.500000
v 12.500000 0.000005 -9.500000
v 12.500000 1.000005 -9.500000
v 12.500000 0.000003 -3.500000
v 12.500000 1.000003 -3.500000
v 13.500000 0.000003 -3.500000
v 13.500000 1.000003 -3.500000
v 13.500000 -0.000000 -2.500000
v 13.500000 1.000000 -2.500000
v 14.500000 -0.000000 -2.500000
v 14.500000 1.000000 -2.500000
v 14.500000 -0.000000 -1.500000
v 14.500000 1.000000 -1.500000
v 15.500000 -0.000000 -1.500000
v 15.500000 1.000000 -1.500000
v 15.500000 -0.000000 -0.500000
v 15.500000 1.000000 -0.500000
v 16.500000 -0.000000 -0.500000
v 16.500000 1.000000 -0.500000
v 8.500000 1.000000 -0.500000
v 8.500000 -0.000000 -0.500000
v 9.300000 1.000000 -0.500000
v 9.300000 -0.000000 -0.500000
v 9.300000 0.999997 4.500000
v 9.300000 -0.000003 4.500000
v 5.500000 0.000010 -26.000000
v 5.500000 1.000010 -26.000000
v 10.700000 -0.000003 4.500000
v 10.700000 0.999997 4.500000
v 10.700000 1.000000 -0.500000
v 10.700000 -0.000000 -0.500000
v 11.500000 1.000000 -0.500000
v 11.500000 -0.000000 -0.500000
v 11.500000 1.000000 1.000000
v 11.500000 0.000000 1.000000
v 16.500000 1.000000 1.000000
v 16.500000 0.000000 1.000000
v 8.500000 1.000010 -24.500000
v 8.500000 0.000010 -24.500000
v 13.500000 0.000010 -27.000000
v 14.500000 0.000010 -27.000000
v 14.500000 1.000010 -27.000000
v 13.500000 1.000010 -27.000000
v 14.500000 1.000010 -26.000000
v 14.500000 0.000010 -26.000000
v 7.500000 0.000010 -27.000000
v 7.500000 1.000010 -27.000000
v 7.500000 0.000010 -26.000000
v 13.500000 0.000010 -26.000000
v 13.500000 1.000010 -26.000000
v 7.500000 1.000010 -26.000000
v 9.500000 0.000005 -12.000000
v 11.500000 0.000005 -12.000000
v 11.500000 1.000005 -12.000000
v 9.500000 1.000005 -12.000000
v 9.500000 0.000005 -11.000000
v 11.500000 0.000005 -11.000000
v 11.500000 1.000005 -11.000000
v 9.500000 1.000005 -11.000000
vn 1.0000 -0.0000 -0.0000
vn -0.0000 -0.0000 1.0000
vn -0.0000 -0.0000 -1.0000
vn 0.7071 -0.0000 0.7071
vn -1.0000 -0.0000 -0.0000
vn -0.7071 -0.0000 0.7071
vn -0.7071 -0.0000 -0.7071
s 1
f 1//1 3//1 4//1
f 6//2 8//2 5//2
f 10//2 1//2 9//2
f 12//3 14//3 11//3
f 15//1 10//1 9//1
f 18//2 15//2 17//2
f 20//1 17//1 19//1
f 21//1 7//1 6//1
f 3//3 24//3 4//3
f 21//2 19//2 22//2
f 26//1 28//1 25//1
f 30//2 91//4 90//4
f 30//1 34//1 31//1
f 36//5 38//5 35//5
f 37//3 40//3 38//3
f 39//5 42//5 40//5
f 41//2 44//2 42//2
f 43//5 46//5 44//5
f 45//2 48//2 46//2
f 47//5 50//5 48//5
f 49//2 52//2 50//2
f 51//5 54//5 52//5
f 53//2 56//6 54//2
f 14//5 58//5 11//5
f 57//3 60//3 58//3
f 60//1 61//1 62//1
f 23//1 64//1 24//1
f 66//5 68//5 65//5
f 67//3 70//3 68//3
f 69//1 72//1 70//1
f 71//3 74//7 72//3
f 32//5 76//5 29//5
f 75//3 33//3 76//3
f 78//2 80//2 77//2
f 63//2 25//2 64//2
f 82//2 35//2 81//2
f 78//5 81//5 79//5
f 83//2 28//2 27//2
f 86//2 88//2 85//2
f 77//1 87//1 86//1
f 85//5 84//5 83//5
f 89//6 32//2 29//2
f 91//4 94//4 90//4
f 94//4 96//6 93//6
f 92//6 93//6 96//6
f 1//1 2//1 3//1
f 6//2 7//2 8//2
f 10//2 2//2 1//2
f 12//3 13//3 14//3
f 15//1 16//1 10//1
f 18//2 16//2 15//2
f 20//1 18//1 17//1
f 21//1 22//1 7//1
f 3//3 23//3 24//3
f 21//2 20//2 19//2
f 26//1 27//1 28//1
f 30//2 31//2 91//4
f 30//1 33//1 34//1
f 36//5 37//5 38//5
f 37//3 39//3 40//3
f 39//5 41//5 42//5
f 41//2 43//2 44//2
f 43//5 45//5 46//5
f 45//2 47//2 48//2
f 47//5 49//5 50//5
f 49//2 51//2 52//2
f 51//5 53//5 54//5
f 53//2 55//6 56//6
f 14//5 57//5 58//5
f 57//3 59//3 60//3
f 60//1 59//1 61//1
f 23//1 63//1 64//1
f 66//5 67//5 68//5
f 67//3 69//3 70//3
f 69//1 71//1 72//1
f 71//3 73//7 74//7
f 32//5 75//5 76//5
f 75//3 34//3 33//3
f 78//2 79//2 80//2
f 63//2 26//2 25//2
f 82//2 36//2 35//2
f 78//5 82//5 81//5
f 83//2 84//2 28//2
f 86//2 87//2 88//2
f 77//1 80//1 87//1
f 85//5 88//5 84//5
f 89//6 92//6 32//2
f 91//4 95//4 94//4
f 94//4 95//4 96//6
f 92//6 89//6 93//6
f 74//7 56//6 55//6
f 74//7 73//7 56//6
