# Blender 4.0.0
# www.blender.org
o Plane
v 2.500000 -0.000000 1.000000
v 2.500000 1.000000 1.000000
v 12.500000 1.000000 1.000000
v 12.500000 0.000000 1.000000
v 4.500000 0.000001 -12.500000
v 7.500000 0.000001 -12.500000
v 7.500000 1.000001 -12.500000
v 4.500000 1.000001 -12.500000
v 4.500000 -0.000000 -2.600000
v 4.500000 1.000000 -2.600000
v 2.500000 -0.000000 -1.500000
v 2.500000 1.000000 -1.500000
v 14.500000 0.000001 -6.500000
v 14.500000 1.000000 -6.500000
v 17.500000 0.000001 -4.000000
v 12.500000 0.000001 -4.000000
v 12.500000 1.000001 -4.000000
v 17.500000 1.000001 -4.000000
v 14.500000 0.000001 -5.500000
v 17.500000 0.000001 -5.500000
v 17.500000 1.000001 -5.500000
v 14.500000 1.000001 -5.500000
v 5.500000 -0.000000 -1.500000
v 5.500000 1.000000 -1.500000
v 5.500000 -0.000000 -2.600000
v 5.500000 1.000000 -2.600000
v 12.500000 -0.000000 -0.500000
v 12.500000 1.000000 -0.500000
v 12.500000 0.000001 -2.000000
v 12.500000 1.000001 -2.000000
v 11.000000 1.000000 -0.500000
v 11.000000 -0.000000 -0.500000
v 11.000000 0.000001 -2.000000
v 11.000000 1.000001 -2.000000
v 11.000000 0.000001 -6.500000
v 11.000000 1.000000 -6.500000
v 11.000000 1.000001 -5.000000
v 7.500000 1.000001 -5.000000
v 7.500000 0.000001 -5.000000
v 11.000000 0.000001 -5.000000
v 5.400000 0.000001 -12.500000
v 6.600000 0.000001 -12.500000
v 6.600000 1.000001 -12.500000
v 5.400000 1.000001 -12.500000
v 5.400000 0.000001 -15.500000
v 6.600000 0.000001 -15.500000
v 6.600000 1.000001 -15.500000
v 5.400000 1.000001 -15.500000
vn -0.0000 -0.0000 -1.0000
vn -0.0000 -0.0000 1.0000
vn -0.7071 -0.0000 0.7071
vn 1.0000 -0.0000 -0.0000
vn 0.7071 -0.0000 0.7071
vn -1.0000 -0.0000 -0.0000
vn -0.7071 -0.0000 -0.7071
s 1
f 2//1 3//1 4//1
f 7//2 42//3 6//2
f 5//4 10//4 9//4
f 11//4 2//4 1//4
f 13//2 36//5 35//5
f 16//1 18//1 15//1
f 20//2 22//2 19//2
f 22//6 13//6 19//6
f 29//7 17//6 16//6
f 23//2 12//2 11//2
f 25//4 24//4 23//4
f 10//1 25//1 9//1
f 4//6 28//3 27//3
f 28//3 32//3 27//3
f 31//3 33//7 32//3
f 29//7 34//7 30//7
f 40//5 38//2 39//2
f 39//6 7//6 6//6
f 36//5 40//5 35//5
f 2//1 4//1 1//1
f 43//3 46//3 42//3
f 5//4 8//4 10//4
f 11//4 12//4 2//4
f 13//2 14//2 36//5
f 16//1 17//1 18//1
f 20//2 21//2 22//2
f 22//6 14//6 13//6
f 29//7 30//7 17//6
f 23//2 24//2 12//2
f 25//4 26//4 24//4
f 10//1 26//1 25//1
f 4//6 3//6 28//3
f 28//3 31//3 32//3
f 31//3 34//7 33//7
f 29//7 33//7 34//7
f 40//5 37//5 38//2
f 39//6 38//6 7//6
f 36//5 37//5 40//5
f 44//5 5//2 41//5
f 41//5 48//5 44//5
f 7//2 43//3 42//3
f 43//3 47//3 46//3
f 44//5 8//2 5//2
f 41//5 45//5 48//5
