# Blender v2.79 (sub 0) OBJ File: 'oddcare0_blender27.blend'
# www.blender.org
o Plane
v 1.500000 1.000000 1.500000
v -1.500000 0.000000 2.500000
v -1.500000 0.000000 4.500000
v -0.500000 0.000000 3.500000
v -0.500000 0.000000 4.500000
v 1.500000 0.000000 4.500000
v 0.500000 0.000000 3.500000
v 1.500000 0.000000 1.500000
v 0.500000 0.000000 4.500000
v 1.500000 0.000000 3.500000
v 0.500000 1.000000 1.500000
v 0.500000 0.000000 1.500000
v 1.500000 0.000000 5.500000
v -0.500000 0.000000 7.500000
v 0.500000 0.000000 7.500000
v -0.500000 0.000000 2.500000
v -1.500000 0.000000 1.500000
v 0.500000 0.000000 2.500000
v 1.500000 0.000000 2.500000
v 2.500000 0.000000 1.500000
v 2.500000 1.000000 1.500000
v -0.500000 1.000000 1.500000
v -0.500000 0.000000 1.500000
v -1.500000 1.000000 1.500000
v -1.500000 1.000000 2.500000
v -1.500000 1.000000 3.500000
v -1.500000 0.000000 3.500000
v -1.500000 1.000000 4.500000
v 2.500000 0.000000 2.500000
v 2.500000 1.000000 2.500000
v 2.500000 1.000000 3.500000
v 2.500000 0.000000 3.500000
v 2.500000 1.000000 4.500000
v 2.500000 0.000000 4.500000
v 2.500000 1.000000 5.500000
v -0.500000 0.000000 8.500000
v 0.500000 0.000000 8.500000
v -1.500000 0.000000 5.500000
v -0.500000 0.000000 5.500000
v 0.500000 0.000000 5.500000
v 1.500000 0.000000 6.500000
v -0.500000 0.000000 6.500000
v 0.500000 0.000000 6.500000
v -1.500000 1.000000 5.500000
v -1.500000 1.000000 6.500000
v -1.500000 0.000000 6.500000
v 2.500000 0.000000 6.500000
v 2.500000 0.000000 5.500000
v 2.500000 1.000000 6.500000
vt 0.250000 0.666667
vt 0.375000 0.666667
vt 0.375000 0.777778
vt 0.250000 0.777778
vt 0.250000 0.666667
vt 0.375000 0.666667
vt 0.375000 0.777778
vt 0.250000 0.777778
vt 0.250000 0.666667
vt 0.375000 0.666667
vt 0.375000 0.777778
vt 0.250000 0.777778
vt 0.250000 0.666667
vt 0.375000 0.666667
vt 0.375000 0.777778
vt 0.250000 0.777778
vt 0.250000 0.666667
vt 0.375000 0.666667
vt 0.375000 0.777778
vt 0.250000 0.777778
vt 0.250000 0.666667
vt 0.375000 0.666667
vt 0.375000 0.777778
vt 0.250000 0.777778
vt 0.250000 0.666667
vt 0.375000 0.666667
vt 0.375000 0.777778
vt 0.250000 0.777778
vt 0.250000 0.666667
vt 0.375000 0.666667
vt 0.375000 0.777778
vt 0.250000 0.777778
vt 0.250000 0.666667
vt 0.375000 0.666667
vt 0.375000 0.777778
vt 0.250000 0.777778
vt 0.250000 0.666667
vt 0.375000 0.666667
vt 0.375000 0.777778
vt 0.250000 0.777778
vt 0.250000 0.666667
vt 0.375000 0.666667
vt 0.375000 0.777778
vt 0.250000 0.777778
vt 0.250000 0.666667
vt 0.375000 0.666667
vt 0.375000 0.777778
vt 0.250000 0.777778
vt 0.250000 0.666667
vt 0.375000 0.666667
vt 0.375000 0.777778
vt 0.250000 0.777778
vt 0.250000 0.666667
vt 0.375000 0.666667
vt 0.375000 0.777778
vt 0.250000 0.777778
vt 0.250000 0.666667
vt 0.375000 0.666667
vt 0.375000 0.777778
vt 0.250000 0.777778
vt 0.250000 0.666667
vt 0.375000 0.666667
vt 0.375000 0.777778
vt 0.250000 0.777778
vt 0.250000 0.666667
vt 0.375000 0.666667
vt 0.375000 0.777778
vt 0.250000 0.777778
vt 0.250000 0.666667
vt 0.375000 0.666667
vt 0.375000 0.777778
vt 0.250000 0.777778
vt 0.000000 0.888889
vt 0.125000 0.888889
vt 0.125000 1.000000
vt 0.000000 1.000000
vt 0.000000 0.888889
vt 0.125000 0.888889
vt 0.125000 1.000000
vt 0.000000 1.000000
vt 0.000000 0.888889
vt 0.125000 0.888889
vt 0.125000 1.000000
vt 0.000000 1.000000
vt 0.000000 0.888889
vt 0.125000 0.888889
vt 0.125000 1.000000
vt 0.000000 1.000000
vt 0.000000 0.888889
vt 0.125000 0.888889
vt 0.125000 1.000000
vt 0.000000 1.000000
vt 0.000000 0.888889
vt 0.125000 0.888889
vt 0.125000 1.000000
vt 0.000000 1.000000
vt 0.000000 0.888889
vt 0.125000 0.888889
vt 0.125000 1.000000
vt 0.000000 1.000000
vt 0.000000 0.888889
vt 0.125000 0.888889
vt 0.125000 1.000000
vt 0.000000 1.000000
vt 0.000000 0.888889
vt 0.125000 0.888889
vt 0.125000 1.000000
vt 0.000000 1.000000
vt 0.000000 0.888889
vt 0.125000 0.888889
vt 0.125000 1.000000
vt 0.000000 1.000000
vt 0.000000 0.888889
vt 0.125000 0.888889
vt 0.125000 1.000000
vt 0.000000 1.000000
vt 0.250000 0.666667
vt 0.375000 0.666667
vt 0.375000 0.777778
vt 0.250000 0.777778
vt 0.250000 0.666667
vt 0.375000 0.666667
vt 0.375000 0.777778
vt 0.250000 0.777778
vt 0.250000 0.666667
vt 0.375000 0.666667
vt 0.375000 0.777778
vt 0.250000 0.777778
vt 0.250000 0.666667
vt 0.375000 0.666667
vt 0.375000 0.777778
vt 0.250000 0.777778
vt 0.000000 0.888889
vt 0.125000 0.888889
vt 0.125000 1.000000
vt 0.000000 1.000000
vt 0.000000 0.888889
vt 0.125000 0.888889
vt 0.125000 1.000000
vt 0.000000 1.000000
vn 0.0000 1.0000 0.0000
vn 0.0000 0.0000 1.0000
vn 1.0000 0.0000 0.0000
vn -1.0000 0.0000 0.0000
s off
f 5/1/1 9/2/1 7/3/1 4/4/1
f 4/5/1 7/6/1 18/7/1 16/8/1
f 39/9/1 40/10/1 9/11/1 5/12/1
f 3/13/1 5/14/1 4/15/1 27/16/1
f 27/17/1 4/18/1 16/19/1 2/20/1
f 38/21/1 39/22/1 5/23/1 3/24/1
f 9/25/1 6/26/1 10/27/1 7/28/1
f 7/29/1 10/30/1 19/31/1 18/32/1
f 40/33/1 13/34/1 6/35/1 9/36/1
f 6/37/1 34/38/1 32/39/1 10/40/1
f 10/41/1 32/42/1 29/43/1 19/44/1
f 13/45/1 48/46/1 34/47/1 6/48/1
f 42/49/1 43/50/1 40/51/1 39/52/1
f 14/53/1 15/54/1 43/55/1 42/56/1
f 16/57/1 18/58/1 12/59/1 23/60/1
f 2/61/1 16/62/1 23/63/1 17/64/1
f 18/65/1 19/66/1 8/67/1 12/68/1
f 19/69/1 29/70/1 20/71/1 8/72/1
f 12/73/2 8/74/2 1/75/2 11/76/2
f 8/77/2 20/78/2 21/79/2 1/80/2
f 17/81/2 23/82/2 22/83/2 24/84/2
f 2/85/3 17/86/3 24/87/3 25/88/3
f 27/89/3 2/90/3 25/91/3 26/92/3
f 3/93/3 27/94/3 26/95/3 28/96/3
f 38/97/3 3/98/3 28/99/3 44/100/3
f 20/101/4 29/102/4 30/103/4 21/104/4
f 29/105/4 32/106/4 31/107/4 30/108/4
f 32/109/4 34/110/4 33/111/4 31/112/4
f 34/113/4 48/114/4 35/115/4 33/116/4
f 36/117/1 37/118/1 15/119/1 14/120/1
f 46/121/1 42/122/1 39/123/1 38/124/1
f 43/125/1 41/126/1 13/127/1 40/128/1
f 41/129/1 47/130/1 48/131/1 13/132/1
f 46/133/3 38/134/3 44/135/3 45/136/3
f 48/137/4 47/138/4 49/139/4 35/140/4
