# Blender 4.0.0
# www.blender.org
o Furniture.002
v -1.314130 1.223887 -2.487536 0.2510 0.2510 0.2510
v -1.179064 0.000000 -2.487536 0.3490 0.3490 0.3490
v -1.179064 1.223887 -2.487536 0.2510 0.2510 0.2510
v -1.314130 0.000000 -2.352469 0.2510 0.2510 0.2510
v -1.314130 1.223887 -2.352469 0.2510 0.2510 0.2510
v -1.179064 0.000000 -2.352469 0.2510 0.2510 0.2510
v -1.179064 1.223887 -2.352469 0.2510 0.2510 0.2510
v -2.689131 1.223887 -2.487536 0.2510 0.2510 0.2510
v -2.554065 1.223887 -2.487536 0.2510 0.2510 0.2510
v -2.689131 0.000000 -2.352469 0.2510 0.2510 0.2510
v -2.689131 1.223887 -2.352469 0.2510 0.2510 0.2510
v -2.554065 0.000000 -2.352469 0.2510 0.2510 0.2510
v -2.554065 1.223887 -2.352469 0.2510 0.2510 0.2510
v -1.314130 1.223887 -5.942320 0.2510 0.2510 0.2510
v -1.179064 1.223887 -5.942320 0.2510 0.2510 0.2510
v -1.314130 0.000000 -5.807254 0.2510 0.2510 0.2510
v -1.314130 1.223887 -5.807254 0.2510 0.2510 0.2510
v -1.179064 0.000000 -5.807254 0.2510 0.2510 0.2510
v -1.179064 1.223887 -5.807254 0.2510 0.2510 0.2510
v -2.689131 1.223887 -5.942320 0.2510 0.2510 0.2510
v -2.554065 0.000000 -5.942320 0.3490 0.3490 0.3490
v -2.554065 1.223887 -5.942320 0.2980 0.2980 0.2980
v -2.689131 0.000000 -5.807254 0.2510 0.2510 0.2510
v -2.689131 1.223887 -5.807254 0.2510 0.2510 0.2510
v -2.554065 0.000000 -5.807254 0.2980 0.2980 0.2980
v -2.554065 1.223887 -5.807254 0.2823 0.2823 0.2823
v -2.554065 0.327068 -2.360569 0.2510 0.2510 0.2510
v -2.554065 0.486271 -2.360569 0.2510 0.2510 0.2510
v -1.314130 0.327068 -2.360569 0.2510 0.2510 0.2510
v -1.314130 0.486271 -2.360569 0.2510 0.2510 0.2510
v -2.554065 0.973415 -2.352469 0.2510 0.2510 0.2510
v -2.554065 1.088292 -2.352469 0.2510 0.2510 0.2510
v -1.314130 0.973415 -2.352469 0.2510 0.2510 0.2510
v -1.314130 1.088292 -2.352469 0.2510 0.2510 0.2510
v -2.554065 0.973415 -5.819533 0.2510 0.2510 0.2510
v -2.554065 1.088292 -5.810445 0.2510 0.2510 0.2510
v -1.314130 0.973415 -5.819533 0.2510 0.2510 0.2510
v -1.314130 1.088292 -5.810445 0.2510 0.2510 0.2510
v -1.125784 1.361262 -2.420110 0.2510 0.2510 0.2510
v -1.246310 1.361262 -2.299583 0.2510 0.2510 0.2510
v -1.246310 1.500434 -2.420110 0.2510 0.2510 0.2510
v -1.366836 1.361262 -2.420110 0.2510 0.2510 0.2510
v -2.501562 1.361262 -2.420110 0.2510 0.2510 0.2510
v -1.246310 1.222090 -2.420110 0.2510 0.2510 0.2510
v -2.622088 1.361262 -2.299583 0.2510 0.2510 0.2510
v -2.622088 1.500434 -2.420110 0.2510 0.2510 0.2510
v -2.742615 1.361262 -2.420110 0.2510 0.2510 0.2510
v -2.622088 1.222090 -2.420110 0.2510 0.2510 0.2510
v -1.125783 1.361262 -5.877519 0.2510 0.2510 0.2510
v -1.246310 1.361262 -5.756992 0.2510 0.2510 0.2510
v -1.246310 1.500434 -5.877519 0.2510 0.2510 0.2510
v -1.366836 1.361262 -5.877519 0.2510 0.2510 0.2510
v -2.501562 1.361262 -5.877519 0.2510 0.2510 0.2510
v -1.246310 1.222090 -5.877519 0.2510 0.2510 0.2510
v -2.622088 1.361262 -5.756992 0.2510 0.2510 0.2510
v -2.622088 1.500434 -5.877519 0.2510 0.2510 0.2510
v -2.742615 1.361262 -5.877519 0.2510 0.2510 0.2510
v -2.622088 1.222090 -5.877519 0.2510 0.2510 0.2510
v -2.554065 0.000000 -2.487536 0.3490 0.3490 0.3490
v -2.554065 1.223887 -2.487536 0.3490 0.3490 0.3490
v -2.554065 0.000000 -2.352469 0.3490 0.3490 0.3490
v -2.554065 1.223887 -2.352469 0.3490 0.3490 0.3490
v -1.179064 0.000000 -5.942320 0.3490 0.3490 0.3490
v -1.179064 1.223887 -5.942320 0.3490 0.3490 0.3490
v -1.179064 0.000000 -5.807254 0.3490 0.3490 0.3490
v -1.179064 1.223887 -5.807254 0.3490 0.3490 0.3490
v -2.554065 1.088292 -2.446502 0.3490 0.3490 0.3490
v -1.193639 0.486271 -2.487536 0.3490 0.3490 0.3490
v -1.193639 0.327068 -2.487536 0.3490 0.3490 0.3490
v -1.193639 0.327068 -5.807254 0.3490 0.3490 0.3490
v -1.193639 0.486271 -5.807254 0.3490 0.3490 0.3490
v -1.314130 1.088292 -2.446502 0.3490 0.3490 0.3490
v -2.554065 1.088292 -2.352469 0.3490 0.3490 0.3490
v -1.314130 1.088292 -2.352469 0.3490 0.3490 0.3490
v -2.554065 1.088292 -5.904478 0.3490 0.3490 0.3490
v -1.314130 1.088292 -5.904478 0.3490 0.3490 0.3490
v -2.554065 1.088292 -5.810445 0.3490 0.3490 0.3490
v -1.314130 1.088292 -5.810445 0.3490 0.3490 0.3490
v -1.179064 1.223887 -2.352469 0.3490 0.3490 0.3490
v -1.179064 0.000000 -2.352469 0.3490 0.3490 0.3490
v -1.179064 1.223887 -2.487536 0.3490 0.3490 0.3490
v -1.190893 0.835558 -5.339236 0.4510 0.4510 0.4510
v -2.463137 1.071371 -5.652367 0.5019 0.4980 0.4980
v -2.708964 0.484275 -2.357851 0.4510 0.4510 0.4510
v -2.708964 0.835558 -2.357851 0.4510 0.4510 0.4510
v -1.190893 0.484275 -2.357851 0.4510 0.4510 0.4510
v -1.190893 0.835558 -2.357851 0.4510 0.4510 0.4510
v -1.386390 0.829092 -5.229363 0.5019 0.4980 0.4980
v -1.386390 1.071371 -5.652367 0.5019 0.4980 0.4980
v -2.463137 0.829092 -4.766876 0.5019 0.4980 0.4980
v -2.463137 0.954073 -5.213257 0.5019 0.4980 0.4980
v -1.386390 0.829092 -4.766876 0.5019 0.4980 0.4980
v -1.386390 0.954073 -5.213257 0.5019 0.4980 0.4980
v -1.190893 0.835558 -5.339236 0.4510 0.4510 0.4510
v -2.708964 0.835558 -5.339236 0.4510 0.4510 0.4510
v -2.708964 0.835558 -2.357851 0.4510 0.4510 0.4510
v -1.190893 0.835558 -2.357851 0.4510 0.4510 0.4510
v -1.190893 0.484275 -5.339236 0.4510 0.4510 0.4510
v -1.190893 0.484275 -2.357851 0.4510 0.4510 0.4510
v -1.190893 0.835558 -2.357851 0.4510 0.4510 0.4510
vn 1.0000 -0.0000 -0.0000
vn -0.0000 -0.0000 1.0000
vn -0.0000 1.0000 -0.0000
vn -0.0000 -0.0789 0.9969
vn 0.6030 -0.5222 0.6030
vn 0.6030 0.5222 0.6030
vn -0.6030 -0.5222 0.6030
vn -0.6030 0.5222 0.6030
vn -0.0000 0.9630 0.2696
vn -0.0000 0.9661 0.2581
s 0
f 2//1 81//1 79//1 80//1
f 6//2 7//2 5//2 4//2
f 7//3 3//3 1//3 5//3
f 12//2 13//2 11//2 10//2
f 13//3 9//3 8//3 11//3
f 18//2 19//2 17//2 16//2
f 19//3 15//3 14//3 17//3
f 21//1 22//1 26//1 25//1
f 25//2 26//2 24//2 23//2
f 33//2 34//2 32//2 31//2
f 26//3 22//3 20//3 24//3
f 29//2 30//2 28//2 27//2
f 37//4 38//4 36//4 35//4
f 44//5 39//5 40//5
f 39//6 41//6 40//6
f 44//7 40//7 42//7
f 40//8 41//8 42//8
f 45//8 46//8 47//8
f 48//7 45//7 47//7
f 43//6 46//6 45//6
f 48//5 43//5 45//5
f 54//5 49//5 50//5
f 49//6 51//6 50//6
f 54//7 50//7 52//7
f 50//8 51//8 52//8
f 55//8 56//8 57//8
f 58//7 55//7 57//7
f 53//6 56//6 55//6
f 58//5 53//5 55//5
f 59//1 60//1 62//1 61//1
f 63//1 64//1 66//1 65//1
f 78//3 76//3 75//3 77//3
f 74//3 72//3 67//3 73//3
f 70//1 71//1 68//1 69//1
f 98//1 82//1 100//1 99//1
f 86//2 87//2 85//2 84//2
f 88//1 89//1 93//1 92//1
f 92//9 93//9 91//9 90//9
f 93//10 89//10 83//10 91//10
f 97//3 94//3 95//3 96//3
