# Blender 4.0.0
# www.blender.org
o Furniture
v 3.896392 1.704717 -2.500000 0.5019 0.4980 0.4980
v 3.896393 2.896883 -4.500000 0.2510 0.2510 0.2510
v 4.500000 2.896883 -4.500000 0.2510 0.2510 0.2510
v 3.896392 2.896883 -2.500000 0.2510 0.2510 0.2510
v 4.500000 2.896883 -2.500000 0.2510 0.2510 0.2510
v 3.848518 0.837725 -2.562282 0.2000 0.2000 0.2000
v 3.848518 1.013637 -2.562282 0.3019 0.2980 0.2980
v 3.435864 0.837725 -1.566049 0.2000 0.2000 0.2000
v 3.435864 1.013637 -1.566049 0.3019 0.2980 0.2980
v 2.439631 0.837725 -1.153396 0.2000 0.2000 0.2000
v 2.439631 1.013637 -1.153396 0.3019 0.2980 0.2980
v 1.443398 0.837725 -1.566049 0.2000 0.2000 0.2000
v 1.443398 1.013637 -1.566049 0.3019 0.2980 0.2980
v 1.030745 0.837725 -2.562283 0.2000 0.2000 0.2000
v 1.030745 1.013637 -2.562283 0.3019 0.2980 0.2980
v 1.443398 1.013637 -3.558517 0.3019 0.2980 0.2980
v 2.439631 1.013637 -3.971169 0.3019 0.2980 0.2980
v 2.439631 1.013637 -2.562283 0.5019 0.4980 0.4980
v 3.435865 1.013637 -3.558516 0.3019 0.2980 0.2980
v 2.613710 0.000000 -2.562283 0.2000 0.2000 0.2000
v 2.613710 0.837725 -2.562283 0.1765 0.1765 0.1765
v 2.562724 0.000000 -2.439190 0.2000 0.2000 0.2000
v 2.562724 0.837725 -2.439190 0.1765 0.1765 0.1765
v 2.439631 0.000000 -2.388203 0.2000 0.2000 0.2000
v 2.439631 0.837725 -2.388203 0.1765 0.1765 0.1765
v 2.316539 0.000000 -2.439190 0.2000 0.2000 0.2000
v 2.316539 0.837725 -2.439190 0.1765 0.1765 0.1765
v 2.265552 0.000000 -2.562283 0.2000 0.2000 0.2000
v 2.265552 0.837725 -2.562283 0.1765 0.1765 0.1765
v -1.314130 1.223887 -2.487536 0.2510 0.2510 0.2510
v -1.179064 0.000000 -2.487536 0.3490 0.3490 0.3490
v -1.179064 1.223887 -2.487536 0.2510 0.2510 0.2510
v -1.314130 0.000000 -2.352469 0.2510 0.2510 0.2510
v -1.314130 1.223887 -2.352469 0.2510 0.2510 0.2510
v -1.179064 0.000000 -2.352469 0.2510 0.2510 0.2510
v -1.179064 1.223887 -2.352469 0.2510 0.2510 0.2510
v -2.689131 1.223887 -2.487536 0.2510 0.2510 0.2510
v -2.554065 1.223887 -2.487536 0.2510 0.2510 0.2510
v -2.689131 0.000000 -2.352469 0.2510 0.2510 0.2510
v -2.689131 1.223887 -2.352469 0.2510 0.2510 0.2510
v -2.554065 0.000000 -2.352469 0.2510 0.2510 0.2510
v -2.554065 1.223887 -2.352469 0.2510 0.2510 0.2510
v -1.190893 0.835558 -5.339236 0.4510 0.4510 0.4510
v -1.314130 1.223887 -5.942320 0.2510 0.2510 0.2510
v -1.179064 1.223887 -5.942320 0.2510 0.2510 0.2510
v -1.314130 0.000000 -5.807254 0.2510 0.2510 0.2510
v -1.314130 1.223887 -5.807254 0.2510 0.2510 0.2510
v -1.179064 0.000000 -5.807254 0.2510 0.2510 0.2510
v -1.179064 1.223887 -5.807254 0.2510 0.2510 0.2510
v -2.689131 1.223887 -5.942320 0.2510 0.2510 0.2510
v -2.554065 0.000000 -5.942320 0.3490 0.3490 0.3490
v -2.554065 1.223887 -5.942320 0.2980 0.2980 0.2980
v -2.689131 0.000000 -5.807254 0.2510 0.2510 0.2510
v -2.689131 1.223887 -5.807254 0.2510 0.2510 0.2510
v -2.554065 0.000000 -5.807254 0.2980 0.2980 0.2980
v -2.554065 1.223887 -5.807254 0.2823 0.2823 0.2823
v -2.463137 1.071371 -5.652367 0.5019 0.4980 0.4980
v -2.554065 0.327068 -2.360569 0.2510 0.2510 0.2510
v -2.554065 0.486271 -2.360569 0.2510 0.2510 0.2510
v -1.314130 0.327068 -2.360569 0.2510 0.2510 0.2510
v -1.314130 0.486271 -2.360569 0.2510 0.2510 0.2510
v -2.708964 0.484275 -2.357851 0.4510 0.4510 0.4510
v -2.708964 0.835558 -2.357851 0.4510 0.4510 0.4510
v -1.190893 0.484275 -2.357851 0.4510 0.4510 0.4510
v -1.190893 0.835558 -2.357851 0.4510 0.4510 0.4510
v -2.554065 0.973415 -2.352469 0.2510 0.2510 0.2510
v -2.554065 1.088292 -2.352469 0.2510 0.2510 0.2510
v -1.314130 0.973415 -2.352469 0.2510 0.2510 0.2510
v -1.314130 1.088292 -2.352469 0.2510 0.2510 0.2510
v -2.554065 0.973415 -5.819533 0.2510 0.2510 0.2510
v -2.554065 1.088292 -5.810445 0.2510 0.2510 0.2510
v -1.314130 0.973415 -5.819533 0.2510 0.2510 0.2510
v -1.314130 1.088292 -5.810445 0.2510 0.2510 0.2510
v -1.125784 1.361262 -2.420110 0.2510 0.2510 0.2510
v -1.246310 1.361262 -2.299583 0.2510 0.2510 0.2510
v -1.246310 1.500434 -2.420110 0.2510 0.2510 0.2510
v -1.366836 1.361262 -2.420110 0.2510 0.2510 0.2510
v -2.501562 1.361262 -2.420110 0.2510 0.2510 0.2510
v -1.246310 1.222090 -2.420110 0.2510 0.2510 0.2510
v -2.622088 1.361262 -2.299583 0.2510 0.2510 0.2510
v -2.622088 1.500434 -2.420110 0.2510 0.2510 0.2510
v -2.742615 1.361262 -2.420110 0.2510 0.2510 0.2510
v -2.622088 1.222090 -2.420110 0.2510 0.2510 0.2510
v -1.125783 1.361262 -5.877519 0.2510 0.2510 0.2510
v -1.246310 1.361262 -5.756992 0.2510 0.2510 0.2510
v -1.246310 1.500434 -5.877519 0.2510 0.2510 0.2510
v -1.366836 1.361262 -5.877519 0.2510 0.2510 0.2510
v -2.501562 1.361262 -5.877519 0.2510 0.2510 0.2510
v -1.246310 1.222090 -5.877519 0.2510 0.2510 0.2510
v -2.622088 1.361262 -5.756992 0.2510 0.2510 0.2510
v -2.622088 1.500434 -5.877519 0.2510 0.2510 0.2510
v -2.742615 1.361262 -5.877519 0.2510 0.2510 0.2510
v -2.622088 1.222090 -5.877519 0.2510 0.2510 0.2510
v -1.386390 0.829092 -5.229363 0.5019 0.4980 0.4980
v -1.386390 1.071371 -5.652367 0.5019 0.4980 0.4980
v -2.463137 0.829092 -4.766876 0.5019 0.4980 0.4980
v -2.463137 0.954073 -5.213257 0.5019 0.4980 0.4980
v -1.386390 0.829092 -4.766876 0.5019 0.4980 0.4980
v -1.386390 0.954073 -5.213257 0.5019 0.4980 0.4980
v 3.435864 1.013637 -1.566049 0.1490 0.1490 0.1490
v 3.848518 1.013637 -2.562282 0.1490 0.1490 0.1490
v 2.439631 1.013637 -1.153396 0.1490 0.1490 0.1490
v 1.443398 1.013637 -1.566049 0.1490 0.1490 0.1490
v 1.030745 1.013637 -2.562283 0.1490 0.1490 0.1490
v 3.896393 1.704717 -4.500000 0.5019 0.4980 0.4980
v 3.896393 2.896883 -4.500000 0.2510 0.2510 0.2510
v 3.896392 1.704717 -2.500000 0.5019 0.4980 0.4980
v 3.896392 2.896883 -2.500000 0.2510 0.2510 0.2510
v 3.896392 2.896883 -2.500000 0.2510 0.2510 0.2510
v 4.500000 1.704717 -2.500000 0.2510 0.2510 0.2510
v 4.500000 2.896883 -2.500000 0.2510 0.2510 0.2510
v -2.554065 0.000000 -2.487536 0.3490 0.3490 0.3490
v -2.554065 1.223887 -2.487536 0.3490 0.3490 0.3490
v -2.554065 0.000000 -2.352469 0.3490 0.3490 0.3490
v -2.554065 1.223887 -2.352469 0.3490 0.3490 0.3490
v -1.179064 0.000000 -5.942320 0.3490 0.3490 0.3490
v -1.179064 1.223887 -5.942320 0.3490 0.3490 0.3490
v -1.179064 0.000000 -5.807254 0.3490 0.3490 0.3490
v -1.179064 1.223887 -5.807254 0.3490 0.3490 0.3490
v -2.554065 1.088292 -2.446502 0.3490 0.3490 0.3490
v -1.193639 0.486271 -2.487536 0.3490 0.3490 0.3490
v -1.193639 0.327068 -2.487536 0.3490 0.3490 0.3490
v -1.193639 0.327068 -5.807254 0.3490 0.3490 0.3490
v -1.193639 0.486271 -5.807254 0.3490 0.3490 0.3490
v -1.314130 1.088292 -2.446502 0.3490 0.3490 0.3490
v -2.554065 1.088292 -2.352469 0.3490 0.3490 0.3490
v -1.314130 1.088292 -2.352469 0.3490 0.3490 0.3490
v -2.554065 1.088292 -5.904478 0.3490 0.3490 0.3490
v -1.314130 1.088292 -5.904478 0.3490 0.3490 0.3490
v -2.554065 1.088292 -5.810445 0.3490 0.3490 0.3490
v -1.314130 1.088292 -5.810445 0.3490 0.3490 0.3490
v -1.190893 0.835558 -5.339236 0.4510 0.4510 0.4510
v -2.708964 0.835558 -5.339236 0.4510 0.4510 0.4510
v -2.708964 0.835558 -2.357851 0.4510 0.4510 0.4510
v -1.190893 0.835558 -2.357851 0.4510 0.4510 0.4510
v -1.190893 0.484275 -5.339236 0.4510 0.4510 0.4510
v -1.190893 0.484275 -2.357851 0.4510 0.4510 0.4510
v -1.190893 0.835558 -2.357851 0.4510 0.4510 0.4510
v -1.179064 1.223887 -2.352469 0.3490 0.3490 0.3490
v -1.179064 0.000000 -2.352469 0.3490 0.3490 0.3490
v -1.179064 1.223887 -2.487536 0.3490 0.3490 0.3490
vn -0.0000 1.0000 -0.0000
vn 0.9239 -0.0000 0.3827
vn 0.3827 -0.0000 0.9239
vn -0.3827 -0.0000 0.9239
vn -0.9239 -0.0000 0.3827
vn 1.0000 -0.0000 -0.0000
vn -0.0000 -0.0000 1.0000
vn -0.0000 -0.0789 0.9969
vn 0.6030 -0.5222 0.6030
vn 0.6030 0.5222 0.6030
vn -0.6030 -0.5222 0.6030
vn -0.6030 0.5222 0.6030
vn -0.0000 0.9630 0.2696
vn -0.0000 0.9661 0.2581
vn -1.0000 -0.0000 -0.0000
s 0
f 5//1 3//1 2//1 4//1
f 6//2 101//2 100//2 8//2
f 8//3 100//3 102//3 10//3
f 10//4 102//4 103//4 12//4
f 12//5 103//5 104//5 14//5
f 19//1 17//1 18//1
f 11//1 9//1 18//1
f 18//1 16//1 15//1
f 18//1 17//1 16//1
f 9//1 7//1 18//1
f 13//1 11//1 18//1
f 20//2 21//2 23//2 22//2
f 22//3 23//3 25//3 24//3
f 24//4 25//4 27//4 26//4
f 26//5 27//5 29//5 28//5
f 7//1 19//1 18//1
f 15//1 13//1 18//1
f 31//6 141//6 139//6 140//6
f 35//7 36//7 34//7 33//7
f 36//1 32//1 30//1 34//1
f 41//7 42//7 40//7 39//7
f 42//1 38//1 37//1 40//1
f 136//6 43//6 138//6 137//6
f 48//7 49//7 47//7 46//7
f 49//1 45//1 44//1 47//1
f 64//7 65//7 63//7 62//7
f 51//6 52//6 56//6 55//6
f 55//7 56//7 54//7 53//7
f 68//7 69//7 67//7 66//7
f 56//1 52//1 50//1 54//1
f 60//7 61//7 59//7 58//7
f 72//8 73//8 71//8 70//8
f 79//9 74//9 75//9
f 74//10 76//10 75//10
f 79//11 75//11 77//11
f 75//12 76//12 77//12
f 80//12 81//12 82//12
f 83//11 80//11 82//11
f 78//10 81//10 80//10
f 83//9 78//9 80//9
f 89//9 84//9 85//9
f 84//10 86//10 85//10
f 89//11 85//11 87//11
f 85//12 86//12 87//12
f 90//12 91//12 92//12
f 93//11 90//11 92//11
f 88//10 91//10 90//10
f 93//9 88//9 90//9
f 94//6 95//6 99//6 98//6
f 98//13 99//13 97//13 96//13
f 99//14 95//14 57//14 97//14
f 110//7 111//7 109//7 1//7
f 112//6 113//6 115//6 114//6
f 116//6 117//6 119//6 118//6
f 131//1 129//1 128//1 130//1
f 127//1 125//1 120//1 126//1
f 123//6 124//6 121//6 122//6
f 135//1 132//1 133//1 134//1
f 107//15 108//15 106//15 105//15
