# Blender 4.0.0
# www.blender.org
o Furniture.001
v 0.044730 0.728541 0.010210 0.7568 0.7568 0.7568
v 0.019907 0.728541 0.041337 0.7490 0.7490 0.7490
v 0.035871 0.728541 -0.028606 0.7490 0.7490 0.7490
v 0.000000 0.728541 -0.045881 0.7490 0.7490 0.7490
v -0.019907 0.728541 0.041337 0.7529 0.7529 0.7529
v -0.044730 0.728541 0.010210 0.7647 0.7647 0.7647
v -0.035871 0.728541 -0.028606 0.7490 0.7490 0.7490
v -0.019907 0.613797 0.041337 0.7490 0.7490 0.7490
v -0.044730 0.613797 0.010210 0.7490 0.7490 0.7490
v 0.019907 0.613797 0.041337 0.7568 0.7568 0.7568
v -0.035871 0.613797 -0.028606 0.7490 0.7490 0.7490
v 0.000000 0.613797 -0.045881 0.7529 0.7529 0.7529
v 0.035871 0.613797 -0.028606 0.7490 0.7490 0.7490
v 0.044730 0.613797 0.010210 0.7490 0.7490 0.7490
v -0.056814 0.573624 0.117976 0.7490 0.7490 0.7490
v -0.127660 0.573624 0.029138 0.7490 0.7490 0.7490
v 0.056815 0.573624 0.117976 0.7490 0.7490 0.7490
v -0.102376 0.573624 -0.081641 0.7490 0.7490 0.7490
v 0.000000 0.573624 -0.130943 0.7490 0.7490 0.7490
v 0.102376 0.573624 -0.081641 0.7490 0.7490 0.7490
v 0.127660 0.573624 0.029138 0.7490 0.7490 0.7490
v -0.102918 0.313086 0.213711 0.5019 0.4980 0.4980
v -0.231253 0.313086 0.052783 0.5019 0.4980 0.4980
v 0.102918 0.313086 0.213711 0.5019 0.4980 0.4980
v -0.185451 0.313086 -0.147892 0.5019 0.4980 0.4980
v 0.000000 0.313086 -0.237201 0.5019 0.4980 0.4980
v 0.185451 0.313086 -0.147892 0.5019 0.4980 0.4980
v 0.231253 0.313086 0.052783 0.5019 0.4980 0.4980
v -0.102918 0.237399 0.213711 0.3490 0.3490 0.3490
v -0.231253 0.237399 0.052783 0.3490 0.3490 0.3490
v 0.102918 0.237399 0.213711 0.3490 0.3490 0.3490
v -0.185451 0.237399 -0.147892 0.3490 0.3490 0.3490
v 0.000000 0.237399 -0.237201 0.3490 0.3490 0.3490
v 0.185451 0.237399 -0.147892 0.3490 0.3490 0.3490
v 0.231253 0.237399 0.052783 0.3490 0.3490 0.3490
v -0.056044 0.046943 0.116377 0.2510 0.2510 0.2510
v -0.125929 0.046943 0.028743 0.2510 0.2510 0.2510
v 0.056044 0.046943 0.116377 0.2510 0.2510 0.2510
v -0.100988 0.046943 -0.080534 0.2510 0.2510 0.2510
v 0.000000 0.046943 -0.129168 0.2510 0.2510 0.2510
v 0.100988 0.046943 -0.080534 0.2510 0.2510 0.2510
v 0.125929 0.046943 0.028743 0.2510 0.2510 0.2510
v -0.084111 0.000000 0.174659 0.3490 0.3490 0.3490
v -0.188995 0.000000 0.043138 0.3490 0.3490 0.3490
v 0.084111 0.000000 0.174659 0.3490 0.3490 0.3490
v -0.151563 0.000000 -0.120867 0.3490 0.3490 0.3490
v 0.000000 0.000000 -0.193856 0.3490 0.3490 0.3490
v 0.151563 0.000000 -0.120867 0.3490 0.3490 0.3490
v 0.188995 0.000000 0.043138 0.3490 0.3490 0.3490
v 0.172781 1.139033 0.039436 1.0000 1.0000 1.0000
v 0.568513 0.728540 0.129760 1.0000 1.0000 1.0000
v 0.253012 0.728540 0.525385 1.0000 1.0000 1.0000
v 0.138560 1.139033 -0.110497 1.0000 1.0000 1.0000
v 0.455913 0.728540 -0.363578 1.0000 1.0000 1.0000
v 0.000000 1.139033 -0.177224 1.0000 1.0000 1.0000
v -0.000000 0.728540 -0.583133 1.0000 1.0000 1.0000
v 0.076895 1.139033 0.159674 1.0000 1.0000 1.0000
v -0.253012 0.728540 0.525385 1.0000 1.0000 1.0000
v -0.076895 1.139033 0.159674 1.0000 1.0000 1.0000
v -0.568514 0.728540 0.129760 1.0000 1.0000 1.0000
v -0.172781 1.139033 0.039436 1.0000 1.0000 1.0000
v -0.455912 0.728540 -0.363577 1.0000 1.0000 1.0000
v -0.138559 1.139033 -0.110497 1.0000 1.0000 1.0000
v 0.172781 1.139033 0.039436 1.0000 1.0000 1.0000
v 0.568513 0.728540 0.129760 1.0000 1.0000 1.0000
v 0.253012 0.728540 0.525385 1.0000 1.0000 1.0000
v 0.138560 1.139033 -0.110497 1.0000 1.0000 1.0000
v 0.455913 0.728540 -0.363578 1.0000 1.0000 1.0000
v 0.000000 1.139033 -0.177224 1.0000 1.0000 1.0000
v -0.000000 0.728540 -0.583133 1.0000 1.0000 1.0000
v 0.076895 1.139033 0.159674 1.0000 1.0000 1.0000
v -0.253012 0.728540 0.525385 1.0000 1.0000 1.0000
v -0.076895 1.139033 0.159674 1.0000 1.0000 1.0000
v -0.568514 0.728540 0.129760 1.0000 1.0000 1.0000
v -0.172781 1.139033 0.039436 1.0000 1.0000 1.0000
v -0.455912 0.728540 -0.363577 1.0000 1.0000 1.0000
v -0.138559 1.139033 -0.110497 1.0000 1.0000 1.0000
vn -0.0000 1.0000 -0.0000
vn 0.3240 -0.6652 0.6727
vn 0.7279 -0.6652 0.1661
vn 0.5838 -0.6652 -0.4655
vn -0.0000 -0.6652 -0.7467
vn -0.7279 -0.6652 0.1661
vn 0.7818 -0.0000 0.6235
vn -0.3240 -0.6652 0.6727
vn -0.5838 -0.6652 -0.4655
vn 0.3630 0.8857 0.2895
vn -0.0000 -0.0000 1.0000
vn -0.7818 -0.0000 0.6235
vn -0.9749 -0.0000 -0.2225
vn 0.4339 -0.0000 -0.9010
vn 0.9749 -0.0000 -0.2225
vn -0.4339 -0.0000 -0.9010
vn -0.4073 0.3449 -0.8457
vn 0.2014 0.8857 -0.4183
vn -0.4526 0.8857 -0.1033
vn -0.3630 0.8857 0.2895
vn 0.4526 0.8857 -0.1033
vn -0.2014 0.8857 -0.4183
vn -0.0000 0.8857 0.4643
vn -0.0000 0.3449 0.9386
vn 0.7339 0.3449 0.5852
vn 0.4073 0.3449 -0.8457
vn -0.9151 0.3449 -0.2089
vn -0.7339 0.3449 0.5852
vn 0.9151 0.3449 -0.2089
vn 0.6962 -0.4551 0.5552
vn 0.6116 0.7788 -0.1396
vn 0.3864 -0.4551 -0.8023
vn -0.8681 -0.4551 -0.1981
vn -0.6962 -0.4551 0.5552
vn 0.8681 -0.4551 -0.1981
vn -0.3864 -0.4551 -0.8023
vn -0.0000 -0.4551 0.8905
vn -0.2722 0.7788 -0.5652
vn -0.0000 0.7788 0.6273
vn 0.4904 0.7788 0.3911
vn 0.2722 0.7788 -0.5652
vn -0.6116 0.7788 -0.1396
vn -0.4904 0.7788 0.3911
vn -0.3240 0.6652 -0.6727
vn -0.7279 0.6652 -0.1661
vn -0.5838 0.6652 0.4655
vn -0.0000 0.6652 0.7467
vn 0.7279 0.6652 -0.1661
vn 0.3240 0.6652 -0.6727
vn 0.5838 0.6652 0.4655
s 0
f 5//1 2//1 1//1 3//1 4//1 7//1 6//1
f 62//2 56//2 55//2 63//2
f 60//3 62//3 63//3 61//3
f 58//4 60//4 61//4 59//4
f 52//5 58//5 59//5 57//5
f 54//6 51//6 50//6 53//6
f 1//7 2//7 10//7 14//7
f 56//8 54//8 53//8 55//8
f 51//9 52//9 57//9 50//9
f 14//10 10//10 17//10 21//10
f 2//11 5//11 8//11 10//11
f 5//12 6//12 9//12 8//12
f 6//13 7//13 11//13 9//13
f 4//14 3//14 13//14 12//14
f 3//15 1//15 14//15 13//15
f 7//16 4//16 12//16 11//16
f 18//17 19//17 26//17 25//17
f 12//18 13//18 20//18 19//18
f 9//19 11//19 18//19 16//19
f 8//20 9//20 16//20 15//20
f 13//21 14//21 21//21 20//21
f 11//22 12//22 19//22 18//22
f 10//23 8//23 15//23 17//23
f 22//12 23//12 30//12 29//12
f 17//24 15//24 22//24 24//24
f 21//25 17//25 24//25 28//25
f 19//26 20//26 27//26 26//26
f 16//27 18//27 25//27 23//27
f 15//28 16//28 23//28 22//28
f 20//29 21//29 28//29 27//29
f 35//30 31//30 38//30 42//30
f 27//15 28//15 35//15 34//15
f 25//16 26//16 33//16 32//16
f 24//11 22//11 29//11 31//11
f 28//7 24//7 31//7 35//7
f 26//14 27//14 34//14 33//14
f 23//13 25//13 32//13 30//13
f 41//31 42//31 49//31 48//31
f 33//32 34//32 41//32 40//32
f 30//33 32//33 39//33 37//33
f 29//34 30//34 37//34 36//34
f 34//35 35//35 42//35 41//35
f 32//36 33//36 40//36 39//36
f 31//37 29//37 36//37 38//37
f 39//38 40//38 47//38 46//38
f 38//39 36//39 43//39 45//39
f 42//40 38//40 45//40 49//40
f 40//41 41//41 48//41 47//41
f 37//42 39//42 46//42 44//42
f 36//43 37//43 44//43 43//43
f 76//44 77//44 69//44 70//44
f 74//45 75//45 77//45 76//45
f 72//46 73//46 75//46 74//46
f 66//47 71//47 73//47 72//47
f 68//48 67//48 64//48 65//48
f 70//49 69//49 67//49 68//49
f 65//50 64//50 71//50 66//50
