# Blender 3.6.2
# www.blender.org
o Cylinder
v -0.581651 3.373839 -4.534016 0.4745 0.2275 0.5019
v -2.458614 1.635228 -4.523046 0.4745 0.2275 0.5019
v -0.984703 2.916917 -5.573532 0.6356 0.4275 0.8588
v -1.784227 2.932494 -4.572063 0.6356 0.4275 0.8588
v -1.907723 2.142411 -5.573532 0.6356 0.4275 0.8588
v -2.427693 1.824827 -4.534014 0.4745 0.2275 0.5019
v -2.024642 2.281749 -3.494495 0.4745 0.2275 0.5019
v -2.006873 2.147348 -3.357949 0.4745 0.2275 0.5019
v -1.101620 3.056255 -3.494495 0.6356 0.4275 0.8588
v -0.972347 3.015418 -3.357949 0.6356 0.4275 0.8588
v -1.200969 2.977947 -5.369946 0.6356 0.4275 0.8588
v -0.389564 3.371368 -4.523046 0.4745 0.2275 0.5019
v -1.930271 2.365988 -5.369946 0.6356 0.4275 0.8588
v -2.341112 2.115058 -4.548596 0.6356 0.4275 0.8588
v -2.022651 2.476084 -3.727247 0.6356 0.4275 0.8588
v -1.293349 3.088040 -3.727247 0.6356 0.4275 0.8588
v -0.882508 3.338972 -4.548596 0.6356 0.4275 0.8588
v -0.841305 2.859246 -5.688142 0.4745 0.2275 0.5019
v -1.875831 1.991178 -5.688142 0.4745 0.2275 0.5019
v -0.389564 3.371368 -4.523046 0.4745 0.2275 0.5019
v -0.972347 3.015418 -3.357949 0.6356 0.4275 0.8588
v -2.006873 2.147348 -3.357949 0.4745 0.2275 0.5019
v -1.784227 2.932494 -4.572063 0.6356 0.4275 0.8588
v -2.458614 1.635228 -4.523046 0.4745 0.2275 0.5019
v -1.875831 1.991178 -5.688142 0.4745 0.2275 0.5019
v -0.841305 2.859246 -5.688142 0.4745 0.2275 0.5019
v -0.882508 3.338972 -4.548596 0.6356 0.4275 0.8588
v -1.293349 3.088040 -3.727247 0.6356 0.4275 0.8588
v -2.022651 2.476084 -3.727247 0.6356 0.4275 0.8588
v -2.341112 2.115058 -4.548596 0.6356 0.4275 0.8588
v -1.930271 2.365988 -5.369946 0.6356 0.4275 0.8588
v -1.200969 2.977947 -5.369946 0.6356 0.4275 0.8588
v -1.101620 3.056255 -3.494495 0.6356 0.4275 0.8588
v -2.024642 2.281749 -3.494495 0.4745 0.2275 0.5019
v -2.427693 1.824827 -4.534014 0.4745 0.2275 0.5019
v -1.907723 2.142411 -5.573532 0.6356 0.4275 0.8588
v -0.984703 2.916917 -5.573532 0.6356 0.4275 0.8588
v -0.581651 3.373839 -4.534016 0.4745 0.2275 0.5019
v -0.859922 1.868242 -4.571941 0.4157 0.1647 0.1569
v -0.926085 1.795962 -4.572254 0.4157 0.1647 0.1569
v -1.546270 2.751188 -4.571873 0.2510 0.0980 0.0941
v -1.612433 2.678907 -4.572186 0.2510 0.0980 0.0941
vn -0.2022 0.7497 -0.6302
vn -0.2375 0.7631 -0.6010
vn -0.0311 0.9972 -0.0686
vn 0.0166 0.9977 -0.0659
vn -0.7032 0.3293 -0.6302
vn -0.7103 0.3664 -0.6010
vn -0.9854 0.1569 -0.0659
vn -0.9766 0.2038 -0.0686
vn -0.7666 0.4049 0.4983
vn -0.7702 0.4378 0.4639
vn 0.9197 -0.3849 0.0775
vn 0.7224 -0.5054 0.4719
vn 0.6403 -0.7631 0.0872
vn -0.2656 0.8253 0.4983
vn -0.2974 0.8345 0.4639
vn 0.7668 -0.5583 -0.3168
vn -0.2194 0.9726 -0.0775
vn -0.4166 0.8521 0.3168
vn -0.7668 0.5583 0.3168
vn -0.9197 0.3849 -0.0775
vn -0.7224 0.5054 -0.4719
vn -0.3723 0.7992 -0.4719
vn -0.6403 0.7631 -0.0872
vn 0.4166 -0.8521 -0.3168
vn 0.2194 -0.9726 0.0775
vn 0.3723 -0.7992 0.4719
vn 0.2375 -0.7631 0.6010
vn 0.0311 -0.9972 0.0686
vn 0.7103 -0.3664 0.6010
vn 0.9766 -0.2038 0.0686
vn 0.7702 -0.4378 -0.4639
vn 0.2974 -0.8345 -0.4639
vn -0.0166 -0.9977 0.0659
vn 0.2656 -0.8253 -0.4983
vn 0.7666 -0.4049 -0.4983
vn 0.9854 -0.1569 0.0659
vn 0.7032 -0.3293 0.6302
vn 0.2022 -0.7497 0.6302
vn -0.0025 -0.0020 1.0000
s 1
f 18//1 3//2 1//3 20//4
f 19//5 5//6 3//2 18//1
f 24//7 6//8 5//6 19//5
f 22//9 7//10 6//8 24//7
f 30//11 31//12 4//13
f 21//14 9//15 7//10 22//9
f 20//4 1//3 9//15 21//14
f 29//16 30//11 4//13
f 1//3 17//17 16//18 9//15
f 9//15 16//18 15//19 7//10
f 7//10 15//19 14//20 6//8
f 6//8 14//20 13//21 5//6
f 5//6 13//21 11//22 3//2
f 3//2 11//22 17//17 1//3
f 11//22 23//23 17//17
f 13//21 23//23 11//22
f 17//17 23//23 16//18
f 16//18 23//23 15//19
f 15//19 23//23 14//20
f 14//20 23//23 13//21
f 28//24 29//16 4//13
f 27//25 28//24 4//13
f 31//12 32//26 4//13
f 32//26 27//25 4//13
f 37//27 38//28 27//25 32//26
f 36//29 37//27 32//26 31//12
f 35//30 36//29 31//12 30//11
f 34//31 35//30 30//11 29//16
f 33//32 34//31 29//16 28//24
f 38//28 33//32 28//24 27//25
f 12//33 10//34 33//32 38//28
f 10//34 8//35 34//31 33//32
f 8//35 2//36 35//30 34//31
f 2//36 25//37 36//29 35//30
f 25//37 26//38 37//27 36//29
f 26//38 12//33 38//28 37//27
f 40//39 39//39 41//39 42//39
