# Blender v2.79 (sub 0) OBJ File: 'evencare1.blend'
# www.blender.org
mtllib evencare1_col.mtl
o Plane
v -0.500000 0.000000 -0.500000
v 2.500000 0.000000 -0.500000
v 2.500000 1.000000 -0.500000
v -0.500000 1.000000 -0.500000
v -0.500000 -0.000000 1.000000
v -0.500000 1.000000 1.000000
v 12.500000 1.000000 1.000000
v 12.500000 -0.000000 1.000000
v 4.500000 0.000002 -12.500000
v 7.500000 0.000002 -12.500000
v 7.500000 1.000002 -12.500000
v 4.500000 1.000002 -12.500000
v 4.500000 0.000000 -2.600000
v 4.500000 1.000000 -2.600000
v 2.500000 0.000000 -1.500000
v 2.500000 1.000000 -1.500000
v 14.500000 0.000001 -6.500000
v 14.500000 1.000001 -6.500000
v 17.500000 0.000001 -4.000000
v 12.500000 0.000001 -4.000000
v 12.500000 1.000001 -4.000000
v 17.500000 1.000001 -4.000000
v 14.500000 0.000001 -5.500000
v 17.500000 0.000001 -5.500000
v 17.500000 1.000001 -5.500000
v 14.500000 1.000001 -5.500000
v 5.500000 0.000000 -1.500000
v 5.500000 1.000000 -1.500000
v 5.500000 0.000000 -2.600000
v 5.500000 1.000000 -2.600000
v 12.500000 0.000000 -0.500000
v 12.500000 1.000000 -0.500000
v 12.500000 0.000001 -2.000000
v 12.500000 1.000001 -2.000000
v 11.000000 1.000000 -0.500000
v 11.000000 0.000000 -0.500000
v 11.000000 0.000001 -2.000000
v 11.000000 1.000001 -2.000000
v 11.000000 0.000001 -6.500000
v 11.000000 1.000001 -6.500000
v 11.000000 1.000001 -5.000000
v 7.500000 1.000001 -5.000000
v 7.500000 0.000001 -5.000000
v 11.000000 0.000001 -5.000000
vn 0.0000 -0.0000 1.0000
vn 0.0000 0.0000 -1.0000
vn 1.0000 -0.0000 0.0000
vn 0.7071 0.0000 0.7071
vn -1.0000 0.0000 0.0000
vn -0.7071 -0.0000 -0.7071
vn -0.7071 -0.0000 0.7071
usemtl None
s 1
f 2//1 4//1 1//1
f 6//2 8//2 5//2
f 10//1 12//1 9//1
f 9//3 14//3 13//3
f 15//3 3//3 2//3
f 17//1 40//4 39//4
f 20//2 22//2 19//2
f 24//1 26//1 23//1
f 26//5 17//5 23//5
f 33//6 21//5 20//5
f 27//1 16//1 15//1
f 29//3 28//3 27//3
f 14//2 29//2 13//2
f 8//5 32//7 31//7
f 32//7 36//7 31//7
f 35//7 37//6 36//7
f 33//6 38//6 34//6
f 44//4 42//1 43//1
f 43//5 11//5 10//5
f 40//4 44//4 39//4
f 2//1 3//1 4//1
f 6//2 7//2 8//2
f 10//1 11//1 12//1
f 9//3 12//3 14//3
f 15//3 16//3 3//3
f 17//1 18//1 40//4
f 20//2 21//2 22//2
f 24//1 25//1 26//1
f 26//5 18//5 17//5
f 33//6 34//6 21//5
f 27//1 28//1 16//1
f 29//3 30//3 28//3
f 14//2 30//2 29//2
f 8//5 7//5 32//7
f 32//7 35//7 36//7
f 35//7 38//6 37//6
f 33//6 37//6 38//6
f 44//4 41//4 42//1
f 43//5 42//5 11//5
f 40//4 41//4 44//4
