# Blender v2.79 (sub 0) OBJ File: 'evencare6gen2.blend'
# www.blender.org
o Cube.000
v -2.500000 -0.000000 0.500000
v -2.500000 1.000000 2.000000
v -2.500000 -0.000000 2.000000
v 2.500000 -0.000000 3.000000
v 2.500000 1.000000 0.700000
v 2.500000 -0.000000 0.700000
v -1.500000 -0.000000 3.000000
v -1.500000 1.000000 2.000000
v -1.500000 1.000000 3.000000
v 2.500000 0.000000 -1.500000
v 0.000000 1.000000 -1.500000
v 0.000000 0.000000 -1.500000
v 0.000000 -0.000000 0.500000
v -2.500000 1.000000 0.500000
v 0.000000 1.000000 0.500000
v 2.500000 1.000000 -0.700000
v 2.500000 0.000000 -0.700000
v 6.500000 -0.000000 0.700000
v 6.500000 1.000000 -0.700000
v 0.700000 -0.000000 3.000000
v 2.500000 1.000000 3.000000
v 0.700000 0.999997 6.500000
v 0.700000 1.000000 3.000000
v -0.700000 1.000000 3.000000
v -0.700000 -0.000003 6.500000
v -0.700000 -0.000000 3.000000
v -1.500000 -0.000000 2.000000
v 2.500000 1.000000 -1.500000
v 6.500000 1.000000 0.700000
v 6.500000 0.000000 -0.700000
v 0.700000 -0.000003 6.500000
v -0.700000 0.999997 6.500000
vn 1.0000 -0.0000 0.0000
vn 0.6457 0.0000 -0.7636
vn 0.7071 0.0000 -0.7071
vn -1.0000 -0.0000 0.0000
vn 0.0000 -0.0000 1.0000
vn 0.0000 0.0000 -1.0000
s 1
f 1//1 2//2 3//3
f 4//4 5//4 6//4
f 7//3 8//1 9//3
f 10//5 11//5 12//5
f 13//5 14//5 1//5
f 13//1 11//1 15//1
f 16//4 10//4 17//4
f 5//6 18//6 6//6
f 17//5 19//5 16//5
f 20//6 21//6 4//6
f 20//4 22//4 23//4
f 24//1 25//1 26//1
f 7//3 24//6 26//6
f 3//3 8//6 27//6
f 1//1 14//1 2//3
f 4//4 21//4 5//4
f 7//3 27//1 8//1
f 10//5 28//5 11//5
f 13//5 15//5 14//5
f 13//1 12//1 11//1
f 16//4 28//4 10//4
f 5//6 29//6 18//6
f 17//5 30//5 19//5
f 20//6 23//6 21//6
f 20//4 31//4 22//4
f 24//1 32//1 25//1
f 7//3 9//3 24//6
f 3//3 2//2 8//6
