# Blender 3.6.2
# www.blender.org
o Cube.002
v -0.700000 0.000000 1.500000
v -0.700000 1.000000 1.500000
v -0.700000 -0.000000 -1.500000
v -0.700000 1.000000 -1.500000
v 0.700000 0.000000 1.500000
v 0.700000 1.000000 1.500000
v 0.700000 -0.000000 -1.500000
v 0.700000 1.000000 -1.500000
v 2.500000 0.000000 1.500000
v 2.500000 1.000000 1.500000
v 2.500000 0.000000 7.000000
v 2.500000 1.000000 7.000000
v -21.500000 0.000000 7.000000
v -21.500000 1.000000 7.000000
v -21.500000 0.000000 5.000000
v -21.500000 1.000000 5.000000
v -25.500000 0.000000 5.000000
v -25.500000 1.000000 5.000000
v -21.500000 0.000000 1.500000
v -21.500000 1.000000 1.500000
v -21.500000 0.000000 3.500000
v -21.500000 1.000000 3.500000
v -25.500000 0.000000 3.500000
v -25.500000 1.000000 3.500000
vn 1.0000 -0.0000 -0.0000
vn -1.0000 -0.0000 -0.0000
vn -0.0000 -0.0000 1.0000
vn -0.0000 -0.0000 -1.0000
s 0
f 3//1 2//1 1//1
f 13//1 16//1 14//1
f 5//2 8//2 7//2
f 5//3 10//3 6//3
f 11//4 14//4 12//4
f 9//2 12//2 10//2
f 15//4 18//4 16//4
f 2//3 19//3 1//3
f 20//1 21//1 19//1
f 22//3 23//3 21//3
f 3//1 4//1 2//1
f 13//1 15//1 16//1
f 5//2 6//2 8//2
f 5//3 9//3 10//3
f 11//4 13//4 14//4
f 9//2 11//2 12//2
f 15//4 17//4 18//4
f 2//3 20//3 19//3
f 20//1 22//1 21//1
f 22//3 24//3 23//3
