# Blender 3.6.2
# www.blender.org
o Cube.002
v 0.300000 0.000002 -15.500000
v -0.500000 1.000002 -15.500000
v -0.500000 0.000002 -15.500000
v 11.500000 0.000001 -6.500000
v 6.500000 1.000000 -6.500000
v 6.500000 0.000001 -6.500000
v 11.500000 0.000000 1.000000
v 11.500000 1.000000 -6.500000
v -0.500000 0.000000 1.000000
v 11.500000 1.000000 1.000000
v 6.500000 0.000001 -10.500000
v 3.500000 1.000001 -11.500000
v 3.500000 0.000001 -11.500000
v -0.500000 1.000000 1.000000
v 0.300000 1.000002 -18.500000
v 0.300000 1.000002 -15.500000
v 1.700000 1.000002 -15.500000
v 1.700000 0.000002 -18.500000
v 1.700000 0.000002 -15.500000
v 3.500000 1.000002 -15.500000
v 3.500000 0.000002 -15.500000
v 6.500000 1.000001 -10.500000
v 0.300000 0.000002 -18.500000
v 1.700000 1.000002 -18.500000
v 4.500000 0.000001 -10.500000
v 4.500000 1.000001 -10.500000
v 4.500000 0.000001 -11.500000
v 4.500000 1.000001 -11.500000
vn -0.0000 -0.0000 1.0000
vn -1.0000 -0.0000 -0.0000
vn -0.7071 -0.0000 0.7071
vn 1.0000 -0.0000 -0.0000
vn -0.0000 -0.0000 -1.0000
s 1
f 4//1 8//1 5//1 6//1
f 21//1 20//1 17//1 19//1
f 5//2 22//2 11//2 6//2
f 26//3 28//3 27//3 25//3
f 1//4 23//4 15//4 16//4
f 3//4 2//4 14//4 9//4
f 17//2 24//2 18//2 19//2
f 28//3 12//1 13//1 27//3
f 7//2 10//2 8//2 4//2
f 9//5 14//5 10//5 7//5
f 22//1 26//3 25//3 11//1
f 13//2 12//2 20//2 21//2
f 1//1 16//1 2//1 3//1
