# Blender 3.6.2
# www.blender.org
o Cube.001
v 9.907299 1.329199 -12.350472 0.3921 0.3098 0.6157
v 9.831071 1.186999 -12.417001 0.3921 0.3098 0.6157
v 10.377748 1.329199 -12.350472 0.1451 0.1176 0.4157
v 10.464772 1.186999 -12.417000 0.3921 0.3098 0.6157
v 9.831071 1.186999 -11.822999 0.3921 0.3098 0.6157
v 10.377748 1.176991 -12.350472 0.1451 0.1176 0.4157
v 10.464772 1.186999 -11.822998 0.3921 0.3098 0.6157
v 10.377748 1.329199 -12.350472 0.3921 0.3098 0.6157
v 9.907299 1.329199 -11.880023 0.3921 0.3098 0.6157
v 10.377748 1.329199 -11.880023 0.3921 0.3098 0.6157
v 10.128311 1.318614 -12.104280 0.1451 0.1176 0.4157
v 10.170992 1.318614 -12.104280 0.1451 0.1176 0.4157
v 10.149652 1.652188 -12.104280 0.1451 0.1176 0.4157
v 9.831071 1.092999 -11.822999 0.1451 0.1176 0.4157
v 9.831071 1.186999 -11.822999 0.1451 0.1176 0.4157
v 10.464772 1.092999 -11.822998 0.1451 0.1176 0.4157
v 10.464772 1.186999 -11.822998 0.1451 0.1176 0.4157
v 9.907299 1.176991 -11.880023 0.1451 0.1176 0.4157
v 9.907299 1.329199 -11.880023 0.1451 0.1176 0.4157
v 10.377748 1.176991 -11.880023 0.1451 0.1176 0.4157
v 10.377748 1.329199 -11.880023 0.1451 0.1176 0.4157
v 10.377748 1.176991 -11.880023 0.1451 0.1176 0.4157
v 10.377748 1.329199 -11.880023 0.1451 0.1176 0.4157
v 9.907300 1.329199 -11.880023 0.1451 0.1176 0.4157
v 9.907300 1.176991 -11.880023 0.1451 0.1176 0.4157
v 9.907300 1.176991 -12.350472 0.1451 0.1176 0.4157
v 9.907300 1.329199 -12.350472 0.1451 0.1176 0.4157
v 9.831071 1.092999 -12.417001 0.1451 0.1176 0.4157
v 9.831071 1.186999 -12.417001 0.1451 0.1176 0.4157
v 10.464772 1.092999 -12.417000 0.1451 0.1176 0.4157
v 10.464772 1.186999 -12.417000 0.1451 0.1176 0.4157
vn -0.0000 1.0000 -0.0000
vn 1.0000 -0.0000 -0.0000
vn -0.0000 -0.0000 1.0000
vn -1.0000 -0.0000 -0.0000
s 0
f 8//1 9//1 10//1
f 3//2 22//2 6//2
f 4//1 5//1 7//1
f 12//3 13//3 11//3
f 17//3 14//3 16//3
f 21//3 18//3 20//3
f 24//4 26//4 25//4
f 15//4 28//4 14//4
f 16//2 31//2 17//2
f 8//1 1//1 9//1
f 3//2 23//2 22//2
f 4//1 2//1 5//1
f 17//3 15//3 14//3
f 21//3 19//3 18//3
f 24//4 27//4 26//4
f 15//4 29//4 28//4
f 16//2 30//2 31//2
