# Blender 3.6.2
# www.blender.org
mtllib evencare6_furnituregen2.mtl
o Cube.002
v -1.288700 0.678648 2.070824 1.0000 1.0000 1.0000
v -1.383825 0.661283 2.045335 0.8823 0.8941 0.8745
v -1.529685 2.330000 1.185266 1.0000 0.3608 0.4000
v -2.039285 0.000000 1.075514 1.0000 0.3608 0.4000
v -1.421503 2.330000 1.214253 1.0000 0.3608 0.4000
v -1.584036 2.330000 1.388111 1.0000 0.3608 0.4000
v -2.093637 0.000000 1.278359 0.9999 0.3608 0.4000
v -1.475855 2.330000 1.417098 1.0000 0.3608 0.4000
v -0.914081 0.000000 1.033650 1.0000 0.3608 0.4000
v -1.419113 2.400000 1.208130 1.0000 0.3608 0.4000
v -1.527294 2.400000 1.179142 1.0000 0.3608 0.4000
v -0.859729 0.000000 0.830805 1.0000 0.3608 0.4000
v -1.364760 2.400000 1.005285 1.0000 0.3608 0.4000
v -1.183470 2.006731 0.707609 1.0000 1.0000 1.0000
v -1.472942 2.400000 0.976298 0.9860 0.3537 0.4000
v -1.184081 0.000000 2.043650 1.0000 0.3608 0.4000
v -1.531845 2.400000 1.625446 1.0000 0.3608 0.4000
v -1.640026 2.400000 1.596459 0.9981 0.3599 0.4000
v -1.129729 0.000000 1.840806 0.9996 0.3606 0.4000
v -1.477492 2.400000 1.422601 1.0000 0.3608 0.4000
v -0.940847 0.678648 0.772619 1.0000 1.0000 1.0000
v -1.585674 2.400000 1.393614 0.9998 0.3607 0.4000
v -1.345493 0.680713 2.294134 0.9997 0.3607 0.4000
v -1.314720 0.542439 2.302380 1.0000 0.3608 0.4000
v -1.440617 0.663348 2.268646 0.9948 0.3582 0.4000
v -0.827726 0.542439 0.484893 1.0000 0.3608 0.4000
v -0.953623 0.663348 0.451159 1.0000 0.3608 0.4000
v -1.436243 2.330000 0.936990 0.7921 0.2275 0.3412
v -1.407265 2.270000 0.944755 0.7921 0.2275 0.3412
v -1.378287 2.330000 0.952520 0.7921 0.2275 0.3412
v -1.598274 2.270000 1.657609 0.7921 0.2275 0.3412
v -1.627252 2.330000 1.649844 0.7921 0.2275 0.3412
v -1.569296 2.330000 1.665373 0.7921 0.2275 0.3412
v -1.531323 2.006731 2.005813 1.0000 1.0000 1.0000
v -1.626448 1.989366 1.980325 0.8823 0.8941 0.8745
v -1.288700 0.678648 2.070824 0.8823 0.8941 0.8745
v -1.531323 2.006731 2.005813 0.8823 0.8941 0.8745
v -2.228864 0.000000 1.242125 0.7921 0.2275 0.3412
v -1.584036 2.330000 1.388111 0.7921 0.2275 0.3412
v -2.093637 0.000000 1.278359 0.7921 0.2275 0.3412
v -1.475855 2.330000 1.417098 0.7921 0.2275 0.3412
v -0.914081 0.000000 1.033650 0.7921 0.2275 0.3412
v -1.419113 2.400000 1.208130 0.7921 0.2275 0.3412
v -1.049308 0.000000 0.997416 0.7921 0.2275 0.3412
v -1.527294 2.400000 1.179142 0.7921 0.2275 0.3412
v -1.184081 0.000000 2.043650 0.7921 0.2275 0.3412
v -1.531845 2.400000 1.625446 0.7921 0.2275 0.3412
v -1.319308 0.000000 2.007416 0.7921 0.2275 0.3412
v -1.640026 2.400000 1.596459 0.7921 0.2275 0.3412
v -1.278372 1.988149 0.682181 1.0000 1.0000 1.0000
v -1.626225 1.988148 1.980384 1.0000 1.0000 1.0000
v -1.345493 0.680713 2.294134 0.7921 0.2275 0.3412
v -1.314720 0.542439 2.302380 0.7921 0.2275 0.3412
v -1.440617 0.663348 2.268646 0.7921 0.2275 0.3412
v -1.419387 0.523521 2.274334 0.7921 0.2275 0.3412
vn -0.2588 -0.0000 0.9659
vn 0.9322 -0.2620 0.2498
vn -0.0000 1.0000 -0.0000
vn 0.9499 0.1814 0.2545
vn 0.9491 0.1858 0.2543
vn 0.9498 0.1820 0.2545
vn -0.1677 0.9848 -0.0449
vn 0.8249 0.5303 0.1955
vn 0.8639 -0.4472 0.2315
vn -0.2588 0.0111 0.9659
vn -0.2568 -0.1237 0.9585
vn -0.2566 0.1297 0.9578
vn -0.1795 0.9826 -0.0481
s 0
f 36//1 37//1 35//1 2//1
f 4//2 5//2 8//2 7//2
f 8//3 5//3 3//3 6//3
f 12//4 13//4 10//4 9//4
f 15//3 11//3 10//3 13//3
f 21//5 14//5 34//5 1//5
f 19//6 20//6 17//6 16//6
f 22//3 18//3 17//3 20//3
f 23//7 27//7 25//7
f 26//8 27//8 23//8 24//8
f 29//9 30//9 33//9 31//9
f 31//1 33//1 32//1
f 33//3 30//3 28//3 32//3
f 40//10 41//10 39//10 38//10
f 42//11 43//11 45//11 44//11
f 46//12 47//12 49//12 48//12
f 34//13 14//13 50//13 51//13
f 53//1 52//1 54//1 55//1
