# Blender 4.0.0
# www.blender.org
o Scene
v 1.500000 -0.000000 -0.500000 1.0000 1.0000 1.0000
v 0.500000 -0.000000 -0.500000 1.0000 1.0000 1.0000
v 1.500000 -0.000000 0.500000 1.0000 1.0000 1.0000
v -0.500000 -0.000000 0.500000 1.0000 1.0000 1.0000
v -0.500000 -0.000000 -0.500000 1.0000 1.0000 1.0000
v 3.500000 -0.000000 0.500000 1.0000 1.0000 1.0000
v 4.500000 -0.000000 0.500000 1.0000 1.0000 1.0000
v 4.500000 -0.000000 1.500000 1.0000 1.0000 1.0000
v 4.500000 -0.000000 -0.500000 1.0000 1.0000 1.0000
v 3.500000 -0.000000 -0.500000 1.0000 1.0000 1.0000
v 3.500000 0.000000 -1.500000 1.0000 1.0000 1.0000
v 3.500000 0.000000 -2.500001 1.0000 1.0000 1.0000
v 4.500000 0.000000 -1.500000 1.0000 1.0000 1.0000
v 5.500000 -0.000000 1.500000 1.0000 1.0000 1.0000
v 5.500000 0.000000 -2.500001 1.0000 1.0000 1.0000
v 5.500000 0.000000 -1.500000 1.0000 1.0000 1.0000
v 6.500000 -0.000000 0.500000 1.0000 1.0000 1.0000
v 5.500000 -0.000000 0.500000 1.0000 1.0000 1.0000
v 8.500000 -0.000000 0.500000 1.0000 1.0000 1.0000
v 9.500000 -0.000000 -0.500000 1.0000 1.0000 1.0000
v 8.500000 -0.000000 -0.500000 1.0000 1.0000 1.0000
v 5.500000 -0.000000 -0.500000 1.0000 1.0000 1.0000
v 6.500000 0.000000 -1.500000 1.0000 1.0000 1.0000
v 7.500000 0.000000 -2.500001 1.0000 1.0000 1.0000
v 6.500000 0.000000 -2.500001 1.0000 1.0000 1.0000
v 7.500000 0.000000 -1.500000 1.0000 1.0000 1.0000
v 8.500000 0.000000 -1.500000 1.0000 1.0000 1.0000
v 7.500000 -0.000000 -0.500000 1.0000 1.0000 1.0000
v 7.500000 -0.000000 0.500000 1.0000 1.0000 1.0000
v 6.500000 -0.000000 -0.500000 1.0000 1.0000 1.0000
v 6.500000 -0.000000 1.500000 1.0000 1.0000 1.0000
v 7.500000 -0.000000 2.499953 1.0000 1.0000 1.0000
v 8.500000 -0.000000 1.500000 1.0000 1.0000 1.0000
v 7.500000 -0.000000 1.500000 1.0000 1.0000 1.0000
v 9.500000 0.000000 -1.500000 1.0000 1.0000 1.0000
v 11.500000 -0.000000 0.500000 1.0000 1.0000 1.0000
v 12.500000 -0.000000 0.500000 1.0000 1.0000 1.0000
v 12.500000 0.000000 -1.500000 1.0000 1.0000 1.0000
v 12.500000 -0.000000 -0.500000 1.0000 1.0000 1.0000
v 9.500000 0.000000 -2.500001 1.0000 1.0000 1.0000
v 10.500000 0.000000 -1.500000 1.0000 1.0000 1.0000
v 11.500000 0.000000 -2.500001 1.0000 1.0000 1.0000
v 10.500000 -0.000000 -0.500000 1.0000 1.0000 1.0000
v 11.500000 -0.000000 -0.500000 1.0000 1.0000 1.0000
v 10.500000 -0.000000 1.500000 1.0000 1.0000 1.0000
v 11.500000 -0.000000 1.500000 1.0000 1.0000 1.0000
v 11.500000 -0.000000 2.499953 1.0000 1.0000 1.0000
v 9.500000 -0.000000 1.500000 1.0000 1.0000 1.0000
v 10.500000 -0.000000 2.499953 1.0000 1.0000 1.0000
v 10.500000 -0.000000 0.500000 1.0000 1.0000 1.0000
v 9.500000 -0.000000 0.500000 1.0000 1.0000 1.0000
v 12.500000 -0.000000 1.500000 1.0000 1.0000 1.0000
v 11.500000 0.000000 -1.500000 1.0000 1.0000 1.0000
v 13.500000 0.000000 -1.500000 1.0000 1.0000 1.0000
v 13.500000 -0.000000 -0.500000 1.0000 1.0000 1.0000
v 13.500000 -0.000000 0.500000 1.0000 1.0000 1.0000
v 14.500000 -0.000000 1.500000 1.0000 1.0000 1.0000
v 14.500000 -0.000000 -0.500000 1.0000 1.0000 1.0000
v 14.500000 0.000000 -1.500000 1.0000 1.0000 1.0000
v 13.500000 -0.000000 1.500000 1.0000 1.0000 1.0000
v 13.500000 -0.000000 2.499953 1.0000 1.0000 1.0000
v 15.500000 -0.000000 -0.500000 1.0000 1.0000 1.0000
v 15.500000 0.000000 -2.500001 1.0000 1.0000 1.0000
v 15.500000 0.000000 -1.500000 1.0000 1.0000 1.0000
v 14.500000 -0.000000 0.500000 1.0000 1.0000 1.0000
v 16.500000 0.000000 3.500000 1.0000 1.0000 1.0000
v 15.500000 -0.000000 0.500000 1.0000 1.0000 1.0000
v 16.500000 -0.000000 0.500000 1.0000 1.0000 1.0000
v 16.500000 -1.000000 3.500000 0.2000 0.2000 0.5804
v 14.500000 -1.000000 2.499953 0.2000 0.2000 0.5804
v 14.500000 -0.000000 2.499953 1.0000 1.0000 1.0000
v 15.500000 -1.000000 2.499953 0.2000 0.2000 0.5804
v 12.500000 -0.000000 2.499953 1.0000 1.0000 1.0000
v 13.500000 -1.000000 2.499953 0.2000 0.2000 0.5804
v 11.500000 -1.000000 2.499953 0.2000 0.2000 0.5804
v 12.500000 -1.000000 2.499953 0.2000 0.2000 0.5804
v 10.500000 -1.000000 2.499953 0.2000 0.2000 0.5804
v 9.500000 -0.000000 2.499953 1.0000 1.0000 1.0000
v 8.500000 -1.000000 2.499953 0.2000 0.2000 0.5804
v 9.500000 -1.000000 2.499953 0.2000 0.2000 0.5804
v 7.500000 -1.000000 2.499953 0.2000 0.2000 0.5804
v 8.500000 -0.000000 2.499953 1.0000 1.0000 1.0000
v 6.500000 -0.000000 2.499953 1.0000 1.0000 1.0000
v 5.500000 -1.000000 2.499953 0.2000 0.2000 0.5804
v 5.500000 -0.000000 2.499953 1.0000 1.0000 1.0000
v 6.500000 -1.000000 2.499953 0.2000 0.2000 0.5804
v 4.500000 -1.000000 2.499953 0.2000 0.2000 0.5804
v 4.500000 -0.000000 2.499953 1.0000 1.0000 1.0000
v 3.500000 -1.000000 2.499953 0.2000 0.2000 0.5804
v 2.500000 -1.000000 1.500000 0.2000 0.2000 0.5804
v 2.500000 -0.000000 1.500000 1.0000 1.0000 1.0000
v 1.500000 -1.000000 0.500000 0.2000 0.2000 0.5804
v 0.500000 -1.000000 0.500000 0.2000 0.2000 0.5804
v 0.500000 -0.000000 0.500000 1.0000 1.0000 1.0000
v -0.500000 -1.000000 0.500000 0.2000 0.2000 0.5804
v 2.500000 -1.000000 0.500000 0.2000 0.2000 0.5804
v 4.500000 0.000000 -2.500001 1.0000 1.0000 1.0000
v 5.500000 1.000000 -2.500001 1.0000 1.0000 1.0000
v 10.500000 0.000000 -2.500001 1.0000 1.0000 1.0000
v 12.500000 0.000000 -2.500001 1.0000 1.0000 1.0000
v 12.500000 1.000000 -2.500001 1.0000 1.0000 1.0000
v 14.500000 0.000000 -2.500001 1.0000 1.0000 1.0000
v 15.500000 1.000000 -2.500001 1.0000 1.0000 1.0000
v 13.500000 0.000000 -2.500001 1.0000 1.0000 1.0000
v 8.500000 0.000000 -2.500001 1.0000 1.0000 1.0000
v 16.500000 1.000000 -3.499999 1.0000 1.0000 1.0000
v 14.500000 1.000000 -2.500001 1.0000 1.0000 1.0000
v 11.500000 1.000000 -2.500001 1.0000 1.0000 1.0000
v 9.500000 1.000000 -2.500001 1.0000 1.0000 1.0000
v 5.500000 2.000000 -2.500001 1.0000 1.0000 1.0000
v 3.500000 1.000000 -2.500001 1.0000 1.0000 1.0000
v 4.500000 2.000000 -2.500001 1.0000 1.0000 1.0000
v 3.500000 2.000000 -2.500001 1.0000 1.0000 1.0000
v 2.500000 1.000000 -1.500000 1.0000 1.0000 1.0000
v 13.500000 3.000000 -2.500001 1.0000 1.0000 1.0000
v 15.500000 2.000000 -2.500001 1.0000 1.0000 1.0000
v 16.500000 3.000000 -3.499999 1.0000 1.0000 1.0000
v 15.500000 3.000000 -2.500001 1.0000 1.0000 1.0000
v 14.500000 3.000000 -2.500001 1.0000 1.0000 1.0000
v 12.500000 3.000000 -2.500001 1.0000 1.0000 1.0000
v 11.500000 3.000000 -2.500001 1.0000 1.0000 1.0000
v 12.500000 2.000000 -2.500001 1.0000 1.0000 1.0000
v 10.500000 3.000000 -2.500001 1.0000 1.0000 1.0000
v 9.500000 3.000000 -2.500001 1.0000 1.0000 1.0000
v 8.500000 3.000000 -2.500001 1.0000 1.0000 1.0000
v 8.500000 2.000000 -2.500001 1.0000 1.0000 1.0000
v 7.500000 3.000000 -2.500001 1.0000 1.0000 1.0000
v 7.500000 2.000000 -2.500001 1.0000 1.0000 1.0000
v 6.500000 3.000000 -2.500001 1.0000 1.0000 1.0000
v 5.500000 3.000000 -2.500001 1.0000 1.0000 1.0000
v 4.500000 3.000000 -2.500001 1.0000 1.0000 1.0000
v 2.500000 2.000000 -1.500000 1.0000 1.0000 1.0000
v 3.500000 3.000000 -2.500001 1.0000 1.0000 1.0000
v 2.500000 3.000000 -1.500000 1.0000 1.0000 1.0000
v 16.500000 -0.000000 -3.499999 1.0000 1.0000 1.0000
v 16.500000 1.000000 -2.500001 1.0000 1.0000 1.0000
v 16.500000 0.000000 -1.500000 1.0000 1.0000 1.0000
v 16.500000 1.000000 2.499953 1.0000 1.0000 1.0000
v 16.500000 1.000000 3.500000 1.0000 1.0000 1.0000
v 16.500000 1.000000 1.500000 1.0000 1.0000 1.0000
v 16.500000 1.000000 0.500000 1.0000 1.0000 1.0000
v 16.500000 2.000000 1.500000 1.0000 1.0000 1.0000
v 16.500000 2.000000 0.500000 1.0000 1.0000 1.0000
v 16.500000 2.000000 -0.500000 1.0000 1.0000 1.0000
v 16.500000 1.000000 -1.500000 1.0000 1.0000 1.0000
v 16.500000 2.000000 -2.500001 1.0000 1.0000 1.0000
v 16.500000 2.000000 -3.499999 1.0000 1.0000 1.0000
v 16.500000 3.000000 -1.500000 1.0000 1.0000 1.0000
v 16.500000 3.000000 -2.500001 1.0000 1.0000 1.0000
v 16.500000 2.000000 -1.500000 1.0000 1.0000 1.0000
v 16.500000 3.000000 1.500000 1.0000 1.0000 1.0000
v 16.500000 2.000000 2.499953 1.0000 1.0000 1.0000
v 16.500000 3.000000 3.500000 1.0000 1.0000 1.0000
v 16.500000 3.000000 2.499953 1.0000 1.0000 1.0000
v 16.500000 2.000000 3.500000 1.0000 1.0000 1.0000
v 16.500000 -0.000000 -0.500000 1.0000 1.0000 1.0000
v 17.500000 -0.000000 0.500000 1.0000 1.0000 1.0000
v 17.500000 -0.000000 -0.500000 1.0000 1.0000 1.0000
v 18.500000 -0.000000 0.500000 1.0000 1.0000 1.0000
v 19.500000 -0.000000 -0.500000 1.0000 1.0000 1.0000
v 18.500000 -0.000000 -0.500000 1.0000 1.0000 1.0000
v 18.500000 -1.000000 0.500000 0.2000 0.2000 0.5804
v 19.500000 -0.000000 0.500000 1.0000 1.0000 1.0000
v 19.500000 -1.000000 0.500000 0.2000 0.2000 0.5804
v 16.500000 -1.000000 0.500000 0.2000 0.2000 0.5804
v 17.500000 -1.000000 0.500000 0.2000 0.2000 0.5804
v 16.500000 -0.000000 2.499953 1.0000 1.0000 1.0000
v 13.500000 2.000000 -2.500001 1.0000 1.0000 1.0000
v 13.500000 1.000000 -2.500001 1.0000 1.0000 1.0000
v 15.500000 1.000000 -3.499999 1.0000 1.0000 1.0000
v 14.500000 1.000000 -3.499999 1.0000 1.0000 1.0000
v 13.500000 1.000000 -3.499999 1.0000 1.0000 1.0000
v 12.500000 1.000000 -3.499999 1.0000 1.0000 1.0000
v 11.500000 1.000000 -3.499999 1.0000 1.0000 1.0000
v 10.500000 1.000000 -3.499999 1.0000 1.0000 1.0000
v 9.500000 1.000000 -3.499999 1.0000 1.0000 1.0000
v 6.500000 1.000000 -3.499999 1.0000 1.0000 1.0000
v 7.500000 1.000000 -2.500001 1.0000 1.0000 1.0000
v 4.500000 1.000000 -3.499999 1.0000 1.0000 1.0000
v 9.500000 2.000000 -2.500001 1.0000 1.0000 1.0000
v 7.500000 1.000000 -3.499999 1.0000 1.0000 1.0000
v 5.500000 1.000000 -3.499999 1.0000 1.0000 1.0000
v 5.500000 2.000000 -3.499999 1.0000 1.0000 1.0000
v 4.500000 1.000000 -2.500001 1.0000 1.0000 1.0000
v 4.500000 2.000000 -3.499999 1.0000 1.0000 1.0000
v 6.500000 1.000000 -2.500001 1.0000 1.0000 1.0000
v 6.500000 2.000000 -3.499999 1.0000 1.0000 1.0000
v 8.500000 1.000000 -2.500001 1.0000 1.0000 1.0000
v 8.500000 2.000000 -3.499999 1.0000 1.0000 1.0000
v 8.500000 1.000000 -3.499999 1.0000 1.0000 1.0000
v 10.500000 1.000000 -2.500001 1.0000 1.0000 1.0000
v 10.500000 2.000000 -3.499999 1.0000 1.0000 1.0000
v 10.500000 2.000000 -2.500001 1.0000 1.0000 1.0000
v 12.500000 2.000000 -3.499999 1.0000 1.0000 1.0000
v 14.500000 2.000000 -2.500001 1.0000 1.0000 1.0000
v 14.500000 2.000000 -3.499999 1.0000 1.0000 1.0000
v 15.500000 2.000000 -3.499999 1.0000 1.0000 1.0000
v 13.500000 2.000000 -3.499999 1.0000 1.0000 1.0000
v 11.500000 2.000000 -2.500001 1.0000 1.0000 1.0000
v 11.500000 2.000000 -3.499999 1.0000 1.0000 1.0000
v 9.500000 2.000000 -3.499999 1.0000 1.0000 1.0000
v 6.500000 2.000000 -2.500001 1.0000 1.0000 1.0000
v 7.500000 2.000000 -3.499999 1.0000 1.0000 1.0000
v 2.500000 1.000000 -0.500000 1.0000 1.0000 1.0000
v 2.500000 -0.000000 0.500000 1.0000 1.0000 1.0000
v 15.500000 -0.000000 2.499953 1.0000 1.0000 1.0000
v 2.500000 3.000000 -0.500000 1.0000 1.0000 1.0000
v 15.500000 -0.000000 1.500000 1.0000 1.0000 1.0000
v 2.500000 1.000000 1.500000 1.0000 1.0000 1.0000
v 2.500000 2.000000 1.500000 1.0000 1.0000 1.0000
v 2.500000 1.000000 0.500000 1.0000 1.0000 1.0000
v 16.500000 -0.000000 1.500000 1.0000 1.0000 1.0000
v 2.500000 3.000000 0.500000 1.0000 1.0000 1.0000
v 2.500000 3.000000 1.500000 1.0000 1.0000 1.0000
v 16.500000 0.000000 3.500000 1.0000 1.0000 1.0000
v 2.500000 2.000000 0.500000 1.0000 1.0000 1.0000
v 15.500000 0.000000 3.500000 1.0000 1.0000 1.0000
v 2.500000 -0.000000 2.499953 1.0000 1.0000 1.0000
v 3.500000 -0.000000 2.499953 1.0000 1.0000 1.0000
v 3.500000 -0.000000 1.500000 1.0000 1.0000 1.0000
v 2.500000 -0.000000 -0.500000 1.0000 1.0000 1.0000
v 2.500000 2.000000 -0.500000 1.0000 1.0000 1.0000
v 16.500000 3.000000 0.500000 1.0000 1.0000 1.0000
v 16.500000 3.000000 -0.500000 1.0000 1.0000 1.0000
v 16.500000 1.000000 -0.500000 1.0000 1.0000 1.0000
v 2.500000 0.000000 -1.500000 1.0000 1.0000 1.0000
v 16.500000 0.000000 -2.500001 1.0000 1.0000 1.0000
v 16.500000 -0.000000 -3.499999 1.0000 1.0000 1.0000
v 17.500000 2.000000 -1.500000 1.0000 1.0000 1.0000
v 15.500000 -0.000000 -3.499999 1.0000 1.0000 1.0000
v 17.500000 1.000000 -1.500000 1.0000 1.0000 1.0000
v 16.500000 -0.000000 -0.500000 0.1373 0.1137 0.3961
v 16.500000 1.000000 -0.500000 1.0000 1.0000 1.0000
v 17.500000 0.000000 -1.500000 0.1373 0.1137 0.3961
v 17.500000 1.000000 -1.500000 1.0000 1.0000 1.0000
v 3.500000 0.000000 -2.500001 1.0000 1.0000 1.0000
v 2.500000 0.000000 -1.500000 1.0000 1.0000 1.0000
v 2.500000 0.000000 -2.500001 1.0000 1.0000 1.0000
v 2.500000 2.000000 -0.500000 1.0000 1.0000 1.0000
v 2.500000 1.000000 -0.500000 1.0000 1.0000 1.0000
v 3.500000 2.000000 -1.500000 1.0000 1.0000 1.0000
v 3.500000 1.000000 -1.500000 1.0000 1.0000 1.0000
v 2.500000 -0.000000 -0.500000 0.1373 0.1137 0.3961
v 2.500000 1.000000 -0.500000 1.0000 1.0000 1.0000
v 3.500000 0.000000 -1.500000 0.1373 0.1137 0.3961
v 3.500000 1.000000 -1.500000 1.0000 1.0000 1.0000
vn 0.3162 0.9487 -0.0000
vn -0.0000 1.0000 -0.0000
vn 0.7173 0.6302 0.2971
vn -0.0000 0.7071 0.7071
vn -0.3015 0.3015 0.9045
vn 0.3015 0.3015 0.9045
vn -1.0000 -0.0000 -0.0000
vn 0.2972 0.6302 0.7173
vn -0.0000 -0.0000 1.0000
vn 0.3015 0.9045 0.3015
vn -0.3162 -0.0000 0.9487
vn 0.3162 -0.0000 0.9487
vn 0.2007 0.8515 0.4845
vn -0.7071 0.7071 -0.0000
vn 0.7071 0.7071 -0.0000
vn 1.0000 -0.0000 -0.0000
vn -0.3015 0.9045 0.3015
vn -0.3162 0.9487 -0.0000
vn 0.3827 -0.0000 0.9239
vn 0.4472 0.8944 -0.0000
vn -0.2007 0.8515 0.4845
vn 0.9239 -0.0000 0.3827
vn 0.1313 0.9607 0.2444
vn -0.3827 -0.0000 0.9239
vn -0.7071 -0.0000 0.7071
vn 0.1691 -0.0000 0.9856
vn 0.7071 -0.0000 0.7071
vn -0.2597 0.7345 0.6269
vn 0.1566 0.3780 0.9125
vt 0.250000 0.666667
vt 0.375000 0.666667
vt 0.375000 0.777778
vt 0.250000 0.777778
vt 0.125000 0.777778
vt 0.250000 0.888889
vt 0.125000 0.888889
vt 0.125000 0.111111
vt 0.250000 0.111111
vt 0.250000 0.222222
vt 0.125000 0.222222
vt 0.000000 0.666667
vt 0.125000 0.666667
vt 0.000000 0.777778
vt 0.125000 0.555556
vt 0.250000 0.555556
vt 0.625000 0.888889
vt 0.750000 0.888889
vt 0.750000 1.000000
vt 0.625000 1.000000
vt 0.250000 1.000000
vt 0.125000 1.000000
vt 0.000000 0.888889
vt 0.000000 1.000000
vt 0.750000 0.333333
vt 0.750000 0.444444
vt 0.878906 0.444444
vt 0.878906 0.333333
vt 0.500000 0.555556
vt 0.375000 0.555556
vt 0.375000 0.444444
vt 0.500000 0.444444
vt 0.375000 0.333333
vt 0.500000 0.333333
s 1
f 221/1/1 10/2/2 11/3/2 226/4/3
f 97/5/4 15/4/4 98/6/5 184/7/6
f 152/8/7 155/9/7 153/10/7 154/11/7
f 11/1/2 13/2/2 97/3/4 12/4/8
f 19/12/2 51/13/2 20/5/2 21/14/2
f 43/1/2 44/2/2 53/3/2 41/4/2
f 93/15/9 92/16/9 3/1/4 94/13/4
f 3/1/4 205/2/10 221/3/1 1/4/2
f 199/8/11 122/9/12 120/10/9 121/11/9
f 38/1/2 54/2/2 104/3/4 100/4/4
f 41/1/2 53/2/2 42/3/4 99/4/4
f 45/1/2 46/2/2 36/3/2 50/4/2
f 228/3/2 230/4/2 63/1/13 227/2/14
f 84/15/9 86/16/9 83/1/4 85/13/4
f 13/1/2 16/2/2 15/3/4 97/4/4
f 60/1/2 57/2/2 65/3/2 56/4/2
f 56/1/2 65/2/2 58/3/2 55/4/2
f 9/1/2 22/2/2 16/3/2 13/4/2
f 107/17/6 171/18/15 196/19/16 195/20/12
f 26/1/2 27/2/2 105/3/4 24/4/4
f 76/15/9 74/16/9 61/1/4 73/13/4
f 211/7/16 204/6/16 222/21/16 216/22/16
f 6/1/2 7/2/2 9/3/2 10/4/2
f 27/1/2 35/2/2 40/3/4 105/4/4
f 10/1/2 9/2/2 13/3/2 11/4/2
f 50/1/2 36/2/2 44/3/2 43/4/2
f 101/17/6 173/18/15 194/19/16 122/20/12
f 64/1/2 137/2/14 227/3/14 63/4/13
f 208/1/2 212/2/14 68/3/17 67/4/2
f 29/1/2 19/2/2 21/3/2 28/4/2
f 67/1/2 68/2/17 156/3/18 62/4/2
f 77/15/9 75/16/9 47/1/4 49/13/4
f 42/14/4 100/5/4 101/7/6 108/23/5
f 98/23/5 186/7/6 202/22/12 110/24/11
f 46/1/2 52/2/2 37/3/2 36/4/2
f 61/1/4 71/2/4 57/3/2 60/4/2
f 65/12/2 67/13/2 62/5/2 58/14/2
f 21/1/2 20/2/2 35/3/2 27/4/2
f 82/1/4 78/2/4 48/3/2 33/4/2
f 113/8/19 112/9/12 131/10/9 133/11/19
f 54/1/2 59/2/2 102/3/4 104/4/4
f 181/17/14 178/18/5 128/19/11 203/20/7
f 91/14/20 205/5/10 211/7/16 209/23/16
f 51/1/2 50/2/2 43/3/2 20/4/2
f 31/1/2 34/2/2 29/3/2 17/4/2
f 210/8/16 216/9/16 213/10/16 214/11/16
f 49/1/4 47/2/4 46/3/2 45/4/2
f 14/12/2 31/13/2 17/5/2 18/14/2
f 17/1/2 29/2/2 28/3/2 30/4/2
f 216/8/16 222/9/16 207/10/16 213/11/16
f 206/1/21 167/2/14 212/3/14 208/4/2
f 36/12/2 37/13/2 39/5/2 44/14/2
f 87/15/9 84/16/9 85/1/4 88/13/4
f 222/8/16 132/9/22 134/10/22 207/11/16
f 55/1/2 58/2/2 59/3/2 54/4/2
f 188/17/6 190/18/15 189/19/16 126/20/12
f 34/1/2 33/2/2 19/3/2 29/4/2
f 7/1/2 18/2/2 22/3/2 9/4/2
f 205/12/10 6/13/2 10/5/2 221/14/1
f 62/1/2 156/2/18 137/3/14 64/4/2
f 182/17/14 98/18/5 110/19/11 183/20/7
f 109/23/5 191/7/6 193/22/12 180/24/11
f 88/1/4 85/2/4 14/3/2 8/4/2
f 157/1/4 159/2/4 161/3/2 158/4/2
f 79/15/9 80/16/9 78/1/4 82/13/4
f 16/1/2 23/2/2 25/3/4 15/4/4
f 48/1/2 45/2/2 50/3/2 51/4/2
f 220/1/2 8/2/2 7/3/2 6/4/2
f 92/15/9 96/16/9 205/1/10 3/13/4
f 237/1/2 11/2/2 236/3/2 238/4/23
f 37/1/2 56/2/2 55/3/2 39/4/2
f 22/1/2 30/2/2 23/3/2 16/4/2
f 59/1/2 64/2/2 63/3/13 102/4/4
f 72/15/24 69/16/25 66/1/25 206/13/21
f 52/1/2 60/2/2 56/3/2 37/4/2
f 135/14/24 227/5/14 136/7/7 106/23/24
f 178/23/5 188/7/6 126/22/12 128/24/11
f 47/1/4 73/2/4 52/3/2 46/4/2
f 71/1/4 206/2/21 208/3/2 57/4/2
f 80/15/9 77/16/9 49/1/4 78/13/4
f 74/15/9 70/16/9 71/1/4 61/13/4
f 94/1/4 3/2/4 1/3/2 2/4/2
f 136/23/7 145/7/7 150/22/7 146/24/7
f 186/17/6 178/18/5 181/19/14 177/20/15
f 128/8/11 126/9/12 125/10/9 127/11/9
f 81/15/9 79/16/9 82/1/4 32/13/4
f 32/1/4 82/2/4 33/3/2 34/4/2
f 83/1/4 32/2/4 34/3/2 31/4/2
f 212/14/14 167/5/14 138/7/7 140/23/7
f 70/15/9 72/16/24 206/1/21 71/13/4
f 217/25/2 215/26/2 167/27/14 206/28/21
f 91/1/20 220/2/2 6/3/2 205/4/10
f 221/14/1 226/5/3 114/7/22 204/23/16
f 195/8/12 116/9/26 118/10/19 119/11/9
f 105/14/4 40/5/4 109/7/5 188/23/6
f 168/8/11 195/9/12 119/10/9 115/11/9
f 193/8/12 199/9/11 121/10/9 123/11/9
f 44/12/2 39/13/2 38/5/2 53/14/2
s 0
f 229/29/27 144/30/27 225/31/27 231/32/27
s 1
f 86/15/9 81/16/9 32/1/4 83/13/4
f 184/17/6 98/18/5 182/19/14 179/20/15
f 143/8/7 142/9/7 151/10/7 223/11/7
f 89/15/24 87/16/9 88/1/4 219/13/28
f 122/8/12 168/9/11 115/10/9 120/11/9
s 0
f 235/32/27 233/31/27 232/33/27 234/34/27
s 1
f 57/1/2 208/2/2 67/3/2 65/4/2
f 209/23/16 211/7/16 216/22/16 210/24/16
f 126/8/12 180/9/11 124/10/9 125/11/9
f 75/15/9 76/16/9 73/1/4 47/13/4
f 108/23/5 101/7/6 122/22/12 199/24/11
f 78/1/4 49/2/4 45/3/2 48/4/2
f 180/8/11 193/9/12 123/10/9 124/11/9
f 116/8/26 147/9/24 117/10/24 118/11/19
f 102/14/4 63/5/13 103/7/29 107/23/6
f 140/23/7 138/7/7 152/22/7 142/24/7
f 191/17/6 108/18/5 174/19/14 175/20/15
f 73/1/4 61/2/4 60/3/2 52/4/2
f 33/1/2 48/2/2 51/3/2 19/4/2
f 169/23/5 107/7/6 195/22/12 168/24/11
f 85/1/4 83/2/4 31/3/2 14/4/2
f 12/14/8 97/5/4 184/7/6 111/23/19
f 146/8/7 150/9/7 148/10/7 149/11/7
f 15/14/4 25/5/4 186/7/6 98/23/5
f 111/23/19 184/7/6 112/22/12 113/24/19
f 104/5/4 102/4/4 107/6/6 169/7/5
f 40/14/4 99/5/4 191/7/6 109/23/5
f 114/23/22 111/7/19 113/22/19 132/24/22
f 68/1/17 157/2/4 158/3/2 156/4/18
f 63/14/13 135/5/24 106/7/24 103/23/29
f 226/14/3 12/5/8 111/7/19 114/23/22
f 227/14/14 137/5/14 145/7/7 136/23/7
f 58/1/2 62/2/2 64/3/2 59/4/2
f 95/15/9 93/16/9 94/1/4 4/13/4
f 101/17/6 169/18/5 172/19/14 173/20/15
f 103/23/29 106/7/24 147/22/24 116/24/26
f 142/8/7 152/9/7 154/10/7 151/11/7
f 4/1/4 94/2/4 2/3/2 5/4/2
f 225/7/7 141/6/7 143/21/7 144/22/7
f 202/8/12 128/9/11 127/10/9 129/11/9
f 90/15/25 89/16/24 219/1/28 91/13/25
f 8/1/2 14/2/2 18/3/2 7/4/2
f 53/1/2 38/2/2 100/3/4 42/4/4
f 138/23/7 139/7/7 155/22/7 152/24/7
f 110/8/11 202/9/12 129/10/9 130/11/9
f 166/15/9 162/16/9 159/1/4 157/13/4
f 112/8/12 110/9/11 130/10/9 131/11/9
f 165/15/9 166/16/9 157/1/4 68/13/17
f 172/17/14 169/18/5 168/19/11 198/20/7
f 99/5/4 42/4/4 108/6/5 191/7/6
f 147/8/24 146/9/7 149/10/7 117/11/24
f 162/15/9 164/16/9 163/1/4 159/13/4
f 170/17/14 103/18/29 116/19/26 197/20/7
f 106/23/24 136/7/7 146/22/7 147/24/24
f 23/1/2 26/2/2 24/3/4 25/4/4
f 107/17/6 103/18/29 170/19/14 171/20/15
f 100/14/4 104/5/4 169/7/5 101/23/6
f 219/1/28 88/2/4 8/3/2 220/4/2
f 159/1/4 163/2/4 160/3/2 161/4/2
f 132/8/22 113/9/19 133/10/19 134/11/22
f 191/17/6 175/18/15 192/19/16 193/20/12
f 28/1/2 21/2/2 27/3/2 26/4/2
f 186/17/6 177/18/15 187/19/16 202/20/12
f 184/17/6 179/18/15 185/19/16 112/20/12
f 167/14/14 66/5/7 139/7/7 138/23/7
f 35/1/2 41/2/2 99/3/4 40/4/4
f 176/17/14 109/18/5 180/19/11 201/20/7
f 18/12/2 17/13/2 30/5/2 22/14/2
f 174/17/14 108/18/5 199/19/11 200/20/7
f 68/14/17 212/5/14 140/7/7 141/23/7
f 137/14/14 156/5/18 225/7/7 145/23/7
f 39/1/2 55/2/2 54/3/2 38/4/2
f 145/23/7 225/7/7 144/22/7 150/24/7
f 150/8/7 144/9/7 224/10/7 148/11/7
f 24/5/4 105/4/4 188/6/6 178/7/5
f 220/27/2 91/28/20 218/25/2 219/26/28
f 204/23/16 114/7/22 132/22/22 222/24/16
f 144/8/7 143/9/7 223/10/7 224/11/7
f 30/1/2 28/2/2 26/3/2 23/4/2
f 20/1/2 43/2/2 41/3/2 35/4/2
f 25/14/4 24/5/4 178/7/5 186/23/6
f 141/23/7 140/7/7 142/22/7 143/24/7
f 188/17/6 109/18/5 176/19/14 190/20/15
s 0
f 241/29/27 239/30/27 240/31/27 242/32/27
f 246/32/27 244/31/27 243/33/27 245/34/27
