# Blender 3.6.2
# www.blender.org
o Cube.003
v 9.935811 1.344586 -12.321960 0.3921 0.3098 0.6157
v 9.840771 1.186998 -12.417001 0.3921 0.3098 0.6157
v 10.363492 1.344586 -12.321960 0.1451 0.1176 0.4157
v 10.434772 1.186998 -12.417000 0.3921 0.3098 0.6157
v 9.840771 1.186998 -11.822999 0.3921 0.3098 0.6157
v 10.363492 1.186214 -12.321960 0.1451 0.1176 0.4157
v 10.434772 1.186998 -11.822998 0.3921 0.3098 0.6157
v 10.363492 1.344586 -12.321960 0.3921 0.3098 0.6157
v 9.935811 1.344586 -11.894279 0.3921 0.3098 0.6157
v 10.363492 1.344586 -11.894279 0.3921 0.3098 0.6157
v 10.120012 1.338613 -12.104280 0.1451 0.1176 0.4157
v 10.179291 1.338613 -12.104280 0.1451 0.1176 0.4157
v 10.149652 1.652187 -12.104280 0.1451 0.1176 0.4157
v 9.840771 1.092998 -11.822999 0.1451 0.1176 0.4157
v 9.840771 1.186998 -11.822999 0.1451 0.1176 0.4157
v 10.434772 1.092998 -11.822998 0.1451 0.1176 0.4157
v 10.434772 1.186998 -11.822998 0.1451 0.1176 0.4157
v 9.935811 1.186214 -11.894279 0.1451 0.1176 0.4157
v 9.935811 1.344586 -11.894279 0.1451 0.1176 0.4157
v 10.363492 1.186214 -11.894279 0.1451 0.1176 0.4157
v 10.363492 1.344586 -11.894279 0.1451 0.1176 0.4157
v 10.434772 1.092998 -12.417000 0.1451 0.1176 0.4157
v 10.434772 1.186998 -12.417000 0.1451 0.1176 0.4157
v 10.434772 1.092998 -11.822998 0.1451 0.1176 0.4157
v 10.434772 1.186998 -11.822998 0.1451 0.1176 0.4157
v 10.363492 1.186214 -11.894279 0.1451 0.1176 0.4157
v 10.363492 1.344586 -11.894279 0.1451 0.1176 0.4157
v 9.840772 1.092998 -11.822998 0.1451 0.1176 0.4157
v 9.840772 1.186998 -11.822998 0.1451 0.1176 0.4157
v 9.840772 1.092998 -12.417000 0.1451 0.1176 0.4157
v 9.840772 1.186998 -12.417000 0.1451 0.1176 0.4157
v 9.935811 1.344586 -11.894279 0.1451 0.1176 0.4157
v 9.935811 1.186214 -11.894279 0.1451 0.1176 0.4157
v 9.935811 1.186214 -12.321961 0.1451 0.1176 0.4157
v 9.935811 1.344586 -12.321961 0.1451 0.1176 0.4157
vn -0.0000 1.0000 -0.0000
vn 1.0000 -0.0000 -0.0000
vn -0.0000 -0.0000 1.0000
vn -1.0000 -0.0000 -0.0000
s 0
f 8//1 9//1 10//1
f 3//2 26//2 6//2
f 4//1 5//1 7//1
f 12//3 13//3 11//3
f 17//3 14//3 16//3
f 21//3 18//3 20//3
f 23//2 24//2 22//2
f 29//4 30//4 28//4
f 32//4 34//4 33//4
f 8//1 1//1 9//1
f 3//2 27//2 26//2
f 4//1 2//1 5//1
f 17//3 15//3 14//3
f 21//3 19//3 18//3
f 23//2 25//2 24//2
f 29//4 31//4 30//4
f 32//4 35//4 34//4
