# Blender 3.6.2
# www.blender.org
o Cylinder
v 10.813698 0.687399 -5.614667 1.0000 1.0000 1.0000
v 10.813698 0.785886 -5.614667 1.0000 1.0000 1.0000
v 10.566938 0.687399 -5.189313 1.0000 0.7490 0.9215
v 10.566938 0.785886 -5.189313 1.0000 0.7490 0.9215
v 10.091682 0.687399 -5.063029 0.9411 0.4784 0.8039
v 10.091682 0.785886 -5.063029 0.9137 0.3961 0.7020
v 9.666328 0.687399 -5.309789 0.9137 0.3961 0.7020
v 9.666328 0.785886 -5.309789 0.9137 0.3961 0.7020
v 9.540045 0.687399 -5.785045 0.9137 0.3961 0.7020
v 9.540045 0.785886 -5.785045 0.9137 0.3961 0.7020
v 10.412406 0.703398 -5.516620 0.9137 0.3961 0.7020
v 10.397596 -0.002845 -5.484327 0.9411 0.4784 0.8039
v 9.702105 -0.002845 -5.553447 0.9411 0.4784 0.8039
v 9.735411 0.703398 -5.565809 0.9137 0.3961 0.7020
v 9.829408 -0.002845 -5.707135 0.9411 0.4784 0.8039
v 9.823462 0.703398 -5.672110 0.9137 0.3961 0.7020
v 9.898853 -0.002845 -5.520042 0.9411 0.4784 0.8039
v 9.871494 0.703398 -5.542705 0.9137 0.3961 0.7020
v 10.378940 -0.002845 -5.683018 0.9411 0.4784 0.8039
v 10.399502 0.703398 -5.654047 0.9137 0.3961 0.7020
v 10.560340 -0.002845 -5.599830 0.9411 0.4784 0.8039
v 10.524968 0.703398 -5.596508 0.9137 0.3961 0.7020
v 10.237986 0.703398 -6.065789 0.9137 0.3961 0.7020
v 10.250348 -0.002845 -6.032483 0.9411 0.4784 0.8039
v 10.096661 -0.002845 -6.159786 0.9411 0.4784 0.8039
v 10.131685 0.703398 -6.153840 0.9137 0.3961 0.7020
v 10.283752 -0.002845 -6.229232 0.9411 0.4784 0.8039
v 10.261089 0.703398 -6.201872 0.9137 0.3961 0.7020
v 10.262060 0.785886 -6.336683 1.0000 0.7490 0.9215
v 10.687413 0.785886 -6.089923 1.0000 0.7490 0.9215
v 10.813698 0.785886 -5.614667 1.0000 0.7490 0.9215
v 10.566938 0.785886 -5.189313 1.0000 0.7490 0.9215
v 10.091682 0.785886 -5.063029 1.0000 0.7490 0.9215
v 9.666328 0.785886 -5.309789 1.0000 0.7490 0.9215
v 9.540045 0.785886 -5.785045 1.0000 0.7490 0.9215
v 9.786804 0.785886 -6.210398 1.0000 0.7490 0.9215
v 8.224030 0.592140 -6.155015 1.0000 0.4353 0.7686
v 8.224030 1.299749 -6.155015 1.0000 0.7490 0.9215
v 8.099439 0.660708 -5.546157 1.0000 0.4353 0.7686
v 8.099439 0.592141 -5.546157 1.0000 0.4353 0.7686
v 8.097427 0.739362 -6.180922 0.9137 0.3961 0.7020
v 8.224030 0.739362 -6.155015 0.9137 0.3961 0.7020
v 8.224030 0.739362 -6.155015 0.9137 0.3961 0.7020
v 7.709414 0.739362 -6.260322 0.9137 0.3961 0.7020
v 8.204370 1.299749 -6.058940 1.0000 0.7490 0.9215
v 7.582811 1.299749 -6.286229 1.0000 0.7490 0.9215
v 8.077767 1.299749 -6.084847 1.0000 0.7490 0.9215
v 8.097427 1.299749 -6.180922 0.9137 0.3961 0.7020
v 8.077767 0.739362 -6.084847 1.0000 0.7490 0.9215
v 7.458220 0.660708 -5.677372 1.0000 0.4353 0.7686
v 7.458220 0.592141 -5.677372 1.0000 0.4353 0.7686
v 7.458220 0.660708 -5.677372 1.0000 0.4353 0.7686
v 7.458220 0.592141 -5.677372 1.0000 0.4353 0.7686
v 7.582811 0.660708 -6.286229 1.0000 0.4353 0.7686
v 7.582811 0.592140 -6.286229 1.0000 0.4353 0.7686
v 7.563151 1.299749 -6.190154 1.0000 0.7490 0.9215
v 8.224030 1.299749 -6.155015 1.0000 0.4353 0.7686
v 8.204370 1.299749 -6.058940 1.0000 0.4353 0.7686
v 7.582811 0.739362 -6.286229 0.9137 0.3961 0.7020
v 8.077767 1.200844 -6.084847 1.0000 0.7490 0.9215
v 8.097427 1.200844 -6.180922 0.9137 0.3961 0.7020
v 8.204370 0.739362 -6.058940 1.0000 0.7490 0.9215
v 8.204370 0.660708 -6.058940 1.0000 0.7490 0.9215
v 7.689754 1.200844 -6.164247 1.0000 0.7490 0.9215
v 7.709414 1.200844 -6.260322 0.9137 0.3961 0.7020
v 8.077767 1.299749 -6.084847 1.0000 0.7490 0.9215
v 8.097427 1.299749 -6.180922 0.9137 0.3961 0.7020
v 7.563151 0.739362 -6.190154 1.0000 0.7490 0.9215
v 7.563151 0.660708 -6.190154 1.0000 0.7490 0.9215
v 7.689754 1.299749 -6.164247 1.0000 0.7490 0.9215
v 7.709414 1.299749 -6.260322 0.9137 0.3961 0.7020
v 7.542346 -0.024701 -6.059066 0.9529 0.5804 0.8353
v 7.681183 0.634630 -5.995424 0.9137 0.3961 0.7020
v 7.617397 -0.024701 -5.945396 0.9529 0.5804 0.8353
v 7.729338 0.634630 -5.922490 0.9137 0.3961 0.7020
v 7.428676 -0.024701 -5.984014 0.9529 0.5804 0.8353
v 7.608249 0.634630 -5.947268 0.9137 0.3961 0.7020
v 7.503727 -0.024701 -5.870345 0.9529 0.5804 0.8353
v 7.656404 0.634630 -5.874334 0.9137 0.3961 0.7020
v 7.990920 0.634630 -5.965672 0.9137 0.3961 0.7020
v 8.142227 -0.024701 -5.986466 0.9529 0.5804 0.8353
v 8.046822 0.634630 -5.898490 0.9137 0.3961 0.7020
v 8.229350 -0.024701 -5.881762 0.9529 0.5804 0.8353
v 7.923738 0.634630 -5.909771 0.9137 0.3961 0.7020
v 8.037522 -0.024701 -5.899343 0.9529 0.5804 0.8353
v 7.979639 0.634630 -5.842589 0.9255 0.4353 0.7529
v 8.124645 -0.024701 -5.794638 0.9529 0.5804 0.8353
v 7.871720 0.634630 -5.769175 0.9137 0.3961 0.7020
v 7.892514 -0.024701 -5.617868 0.9529 0.5804 0.8353
v 7.804538 0.634630 -5.713274 0.9137 0.3961 0.7020
v 7.787809 -0.024701 -5.530745 0.9529 0.5804 0.8353
v 7.815819 0.634630 -5.836357 0.9137 0.3961 0.7020
v 7.805391 -0.024701 -5.722573 0.9529 0.5804 0.8353
v 7.748637 0.634630 -5.780456 0.9137 0.3961 0.7020
v 7.700686 -0.024701 -5.635450 0.9529 0.5804 0.8353
v 7.919259 0.634630 -6.041704 0.9137 0.3961 0.7020
v 7.898465 -0.024701 -6.193010 0.9529 0.5804 0.8353
v 7.986441 0.634630 -6.097605 0.9137 0.3961 0.7020
v 8.003170 -0.024701 -6.280134 0.9529 0.5804 0.8353
v 7.975161 0.634630 -5.974522 0.9137 0.3961 0.7020
v 7.985588 -0.024701 -6.088306 0.9529 0.5804 0.8353
v 8.042342 0.634630 -6.030423 0.9137 0.3961 0.7020
v 8.090293 -0.024701 -6.175429 0.9529 0.5804 0.8353
v 8.099439 0.592141 -5.546157 1.0000 0.4353 0.7686
v 8.099439 0.660708 -5.546157 1.0000 0.4353 0.7686
v 8.099439 0.660708 -5.546157 1.0000 0.7490 0.9215
v 7.458220 0.660708 -5.677372 1.0000 0.7490 0.9215
v 8.204370 0.660708 -6.058940 1.0000 0.7490 0.9215
v 7.563151 0.660708 -6.190154 1.0000 0.7490 0.9215
v 7.582811 0.739362 -6.286229 0.9137 0.3961 0.7020
v 7.563151 1.299749 -6.190154 1.0000 0.4353 0.7686
v 8.224030 0.660708 -6.155015 1.0000 0.4353 0.7686
v 7.582811 1.299749 -6.286229 1.0000 0.4353 0.7686
v 7.582811 0.592140 -6.286229 0.9137 0.3961 0.7020
v 8.224030 0.592140 -6.155015 0.9137 0.3961 0.7020
v 8.224030 0.660708 -6.155015 1.0000 0.4353 0.7686
v 8.204370 0.660708 -6.058940 1.0000 0.4353 0.7686
v 7.582811 0.660708 -6.286229 1.0000 0.4353 0.7686
v 7.563151 0.660708 -6.190154 1.0000 0.4353 0.7686
v 7.582811 1.299749 -6.286229 0.9137 0.3961 0.7020
v 7.709414 1.299749 -6.260322 0.9137 0.3961 0.7020
v 8.224030 1.299749 -6.155015 0.9137 0.3961 0.7020
v 8.204370 0.739362 -6.058940 1.0000 0.7490 0.9215
v 7.689754 0.739362 -6.164247 1.0000 0.7490 0.9215
v 7.563151 0.739362 -6.190154 1.0000 0.7490 0.9215
v 7.563151 1.299749 -6.190154 1.0000 0.7490 0.9215
v 7.689754 1.299749 -6.164247 1.0000 0.7490 0.9215
v 8.204370 1.299749 -6.058940 1.0000 0.7490 0.9215
v 7.689754 0.739362 -6.164247 1.0000 0.7490 0.9215
v 8.077767 0.739362 -6.084847 1.0000 0.7490 0.9215
v 7.709414 0.739362 -6.260322 1.0000 0.7490 0.9215
v 8.097427 0.739362 -6.180922 1.0000 0.7490 0.9215
v 8.077767 1.200844 -6.084847 1.0000 0.7490 0.9215
v 8.097427 1.200844 -6.180922 1.0000 0.7490 0.9215
v 7.689754 1.200844 -6.164247 1.0000 0.7490 0.9215
v 7.709414 1.200844 -6.260322 1.0000 0.7490 0.9215
v 9.271362 0.592140 -6.149981 1.0000 0.4353 0.7686
v 9.271362 1.299749 -6.149981 1.0000 0.7490 0.9215
v 9.242320 0.660708 -5.529186 1.0000 0.4353 0.7686
v 9.242320 0.592141 -5.529186 1.0000 0.4353 0.7686
v 9.142278 0.739362 -6.156020 0.9137 0.3961 0.7020
v 9.271362 0.739362 -6.149981 0.9137 0.3961 0.7020
v 9.271362 0.739362 -6.149981 0.9137 0.3961 0.7020
v 8.746655 0.739362 -6.174529 0.9137 0.3961 0.7020
v 9.266780 1.299749 -6.052022 1.0000 0.7490 0.9215
v 8.617571 1.299749 -6.180568 1.0000 0.7490 0.9215
v 9.137694 1.299749 -6.058062 1.0000 0.7490 0.9215
v 9.142278 1.299749 -6.156020 0.9137 0.3961 0.7020
v 9.137694 0.739362 -6.058062 1.0000 0.7490 0.9215
v 8.588528 0.660708 -5.559772 1.0000 0.4353 0.7686
v 8.588528 0.592141 -5.559772 1.0000 0.4353 0.7686
v 8.588528 0.660708 -5.559772 1.0000 0.4353 0.7686
v 8.588528 0.592141 -5.559772 1.0000 0.4353 0.7686
v 8.617571 0.660708 -6.180568 1.0000 0.4353 0.7686
v 8.617571 0.592140 -6.180568 1.0000 0.4353 0.7686
v 8.612988 1.299749 -6.082609 1.0000 0.7490 0.9215
v 9.271362 1.299749 -6.149981 1.0000 0.4353 0.7686
v 9.266780 1.299749 -6.052022 1.0000 0.4353 0.7686
v 8.617571 0.739362 -6.180568 0.9137 0.3961 0.7020
v 9.137694 1.200844 -6.058062 1.0000 0.7490 0.9215
v 9.142278 1.200844 -6.156020 0.9137 0.3961 0.7020
v 9.266780 0.739362 -6.052022 1.0000 0.7490 0.9215
v 9.266780 0.660708 -6.052022 1.0000 0.7490 0.9215
v 8.742073 1.200844 -6.076570 1.0000 0.7490 0.9215
v 8.746655 1.200844 -6.174529 0.9137 0.3961 0.7020
v 9.137694 1.299749 -6.058062 1.0000 0.7490 0.9215
v 9.142278 1.299749 -6.156020 0.9137 0.3961 0.7020
v 8.612988 0.739362 -6.082609 1.0000 0.7490 0.9215
v 8.612988 0.660708 -6.082609 1.0000 0.7490 0.9215
v 8.742073 1.299749 -6.076570 1.0000 0.7490 0.9215
v 8.746655 1.299749 -6.174529 0.9137 0.3961 0.7020
v 8.612682 -0.024701 -5.949880 0.9529 0.5804 0.8353
v 8.759684 0.634630 -5.908449 0.9137 0.3961 0.7020
v 8.704391 -0.024701 -5.849168 0.9529 0.5804 0.8353
v 8.818528 0.634630 -5.843829 0.9137 0.3961 0.7020
v 8.511971 -0.024701 -5.858170 0.9529 0.5804 0.8353
v 8.695064 0.634630 -5.849605 0.9137 0.3961 0.7020
v 8.603680 -0.024701 -5.757459 0.9529 0.5804 0.8353
v 8.753908 0.634630 -5.784985 0.9137 0.3961 0.7020
v 9.070299 0.634630 -5.926901 0.9137 0.3961 0.7020
v 9.216578 -0.024701 -5.970819 0.9529 0.5804 0.8353
v 9.135907 0.634630 -5.869161 0.9137 0.3961 0.7020
v 9.318830 -0.024701 -5.880829 0.9529 0.5804 0.8353
v 9.012559 0.634630 -5.861293 0.9137 0.3961 0.7020
v 9.126588 -0.024701 -5.868567 0.9529 0.5804 0.8353
v 9.078167 0.634630 -5.803553 0.9255 0.4353 0.7529
v 9.228840 -0.024701 -5.778578 0.9529 0.5804 0.8353
v 8.982883 0.634630 -5.714349 0.9137 0.3961 0.7020
v 9.026801 -0.024701 -5.568071 0.9529 0.5804 0.8353
v 8.925143 0.634630 -5.648741 0.9137 0.3961 0.7020
v 8.936811 -0.024701 -5.465819 0.9529 0.5804 0.8353
v 8.917275 0.634630 -5.772089 0.9137 0.3961 0.7020
v 8.924550 -0.024701 -5.658060 0.9529 0.5804 0.8353
v 8.859535 0.634630 -5.706481 0.9137 0.3961 0.7020
v 8.834560 -0.024701 -5.555809 0.9529 0.5804 0.8353
v 8.987754 0.634630 -5.990951 0.9137 0.3961 0.7020
v 8.943836 -0.024701 -6.137229 0.9529 0.5804 0.8353
v 9.045494 0.634630 -6.056559 0.9137 0.3961 0.7020
v 9.033825 -0.024701 -6.239480 0.9529 0.5804 0.8353
v 9.053362 0.634630 -5.933210 0.9137 0.3961 0.7020
v 9.046087 -0.024701 -6.047239 0.9529 0.5804 0.8353
v 9.111102 0.634630 -5.998818 0.9137 0.3961 0.7020
v 9.136077 -0.024701 -6.149491 0.9529 0.5804 0.8353
v 9.242320 0.592141 -5.529186 1.0000 0.4353 0.7686
v 9.242320 0.660708 -5.529186 1.0000 0.4353 0.7686
v 9.242320 0.660708 -5.529186 1.0000 0.7490 0.9215
v 8.588528 0.660708 -5.559772 1.0000 0.7490 0.9215
v 9.266780 0.660708 -6.052022 1.0000 0.7490 0.9215
v 8.612988 0.660708 -6.082609 1.0000 0.7490 0.9215
v 8.617571 0.739362 -6.180568 0.9137 0.3961 0.7020
v 8.612988 1.299749 -6.082609 1.0000 0.4353 0.7686
v 9.271362 0.660708 -6.149981 1.0000 0.4353 0.7686
v 8.617571 1.299749 -6.180568 1.0000 0.4353 0.7686
v 8.617571 0.592140 -6.180568 0.9137 0.3961 0.7020
v 9.271362 0.592140 -6.149981 0.9137 0.3961 0.7020
v 9.271362 0.660708 -6.149981 1.0000 0.4353 0.7686
v 9.266780 0.660708 -6.052022 1.0000 0.4353 0.7686
v 8.617571 0.660708 -6.180568 1.0000 0.4353 0.7686
v 8.612988 0.660708 -6.082609 1.0000 0.4353 0.7686
v 8.617571 1.299749 -6.180568 0.9137 0.3961 0.7020
v 8.746655 1.299749 -6.174529 0.9137 0.3961 0.7020
v 9.271362 1.299749 -6.149981 0.9137 0.3961 0.7020
v 9.266780 0.739362 -6.052022 1.0000 0.7490 0.9215
v 8.742073 0.739362 -6.076570 1.0000 0.7490 0.9215
v 8.612988 0.739362 -6.082609 1.0000 0.7490 0.9215
v 8.612988 1.299749 -6.082609 1.0000 0.7490 0.9215
v 8.742073 1.299749 -6.076570 1.0000 0.7490 0.9215
v 9.266780 1.299749 -6.052022 1.0000 0.7490 0.9215
v 8.742073 0.739362 -6.076570 1.0000 0.7490 0.9215
v 9.137694 0.739362 -6.058062 1.0000 0.7490 0.9215
v 8.746655 0.739362 -6.174529 1.0000 0.7490 0.9215
v 9.142278 0.739362 -6.156021 1.0000 0.7490 0.9215
v 9.137694 1.200844 -6.058062 1.0000 0.7490 0.9215
v 9.142278 1.200844 -6.156021 1.0000 0.7490 0.9215
v 8.742073 1.200844 -6.076570 1.0000 0.7490 0.9215
v 8.746655 1.200844 -6.174529 1.0000 0.7490 0.9215
v 11.193218 0.592141 -1.596170 1.0000 0.4353 0.7686
v 11.193218 1.299750 -1.596170 1.0000 0.7490 0.9215
v 11.786723 0.660708 -1.780512 1.0000 0.4353 0.7686
v 11.786723 0.592141 -1.780512 1.0000 0.4353 0.7686
v 11.231549 0.739362 -1.472759 0.9137 0.3961 0.7020
v 11.193218 0.739362 -1.596170 0.9137 0.3961 0.7020
v 11.193218 0.739362 -1.596170 0.9137 0.3961 0.7020
v 11.349027 0.739362 -1.094529 0.9137 0.3961 0.7020
v 11.286870 1.299750 -1.625258 1.0000 0.7490 0.9215
v 11.387358 1.299750 -0.971118 1.0000 0.7490 0.9215
v 11.325201 1.299750 -1.501848 1.0000 0.7490 0.9215
v 11.231549 1.299750 -1.472759 0.9137 0.3961 0.7020
v 11.325201 0.739362 -1.501848 1.0000 0.7490 0.9215
v 11.980864 0.660708 -1.155460 1.0000 0.4353 0.7686
v 11.980864 0.592141 -1.155460 1.0000 0.4353 0.7686
v 11.980864 0.660708 -1.155460 1.0000 0.4353 0.7686
v 11.980864 0.592141 -1.155460 1.0000 0.4353 0.7686
v 11.387358 0.660708 -0.971118 1.0000 0.4353 0.7686
v 11.387358 0.592141 -0.971118 1.0000 0.4353 0.7686
v 11.481010 1.299750 -1.000207 1.0000 0.7490 0.9215
v 11.193218 1.299750 -1.596170 1.0000 0.4353 0.7686
v 11.286870 1.299750 -1.625258 1.0000 0.4353 0.7686
v 11.387358 0.739362 -0.971118 0.9137 0.3961 0.7020
v 11.325201 1.200844 -1.501848 1.0000 0.7490 0.9215
v 11.231549 1.200844 -1.472759 0.9137 0.3961 0.7020
v 11.286870 0.739362 -1.625258 1.0000 0.7490 0.9215
v 11.286870 0.660708 -1.625258 1.0000 0.7490 0.9215
v 11.442679 1.200844 -1.123618 1.0000 0.7490 0.9215
v 11.349027 1.200844 -1.094529 0.9137 0.3961 0.7020
v 11.325201 1.299750 -1.501848 1.0000 0.7490 0.9215
v 11.231549 1.299750 -1.472759 0.9137 0.3961 0.7020
v 11.481010 0.739362 -1.000207 1.0000 0.7490 0.9215
v 11.481010 0.660708 -1.000207 1.0000 0.7490 0.9215
v 11.442679 1.299750 -1.123618 1.0000 0.7490 0.9215
v 11.349027 1.299750 -1.094529 0.9137 0.3961 0.7020
v 11.605892 -0.024701 -1.045170 0.9529 0.5804 0.8353
v 11.594724 0.634630 -1.197490 0.9137 0.3961 0.7020
v 11.669304 -0.024701 -1.165720 0.9529 0.5804 0.8353
v 11.635411 0.634630 -1.274839 0.9137 0.3961 0.7020
v 11.726442 -0.024701 -0.981758 0.9529 0.5804 0.8353
v 11.672073 0.634630 -1.156803 0.9137 0.3961 0.7020
v 11.789854 -0.024701 -1.102309 0.9529 0.5804 0.8353
v 11.712760 0.634630 -1.234152 0.9137 0.3961 0.7020
v 11.471481 0.634630 -1.483206 0.9137 0.3961 0.7020
v 11.380324 -0.024701 -1.605748 0.9529 0.5804 0.8353
v 11.503394 0.634630 -1.564568 0.9137 0.3961 0.7020
v 11.430062 -0.024701 -1.732553 0.9529 0.5804 0.8353
v 11.552843 0.634630 -1.451292 0.9137 0.3961 0.7020
v 11.507130 -0.024701 -1.556010 0.9529 0.5804 0.8353
v 11.584757 0.634630 -1.532655 0.9255 0.4353 0.7529
v 11.556868 -0.024701 -1.682816 0.9529 0.5804 0.8353
v 11.701101 0.634630 -1.473492 0.9137 0.3961 0.7020
v 11.823644 -0.024701 -1.564648 0.9529 0.5804 0.8353
v 11.782464 0.634630 -1.441578 0.9137 0.3961 0.7020
v 11.950449 -0.024701 -1.514910 0.9529 0.5804 0.8353
v 11.669188 0.634630 -1.392129 0.9137 0.3961 0.7020
v 11.773906 -0.024701 -1.437842 0.9529 0.5804 0.8353
v 11.750550 0.634630 -1.360215 0.9137 0.3961 0.7020
v 11.900711 -0.024701 -1.388104 0.9529 0.5804 0.8353
v 11.439410 0.634630 -1.383770 0.9137 0.3961 0.7020
v 11.316868 -0.024701 -1.292613 0.9529 0.5804 0.8353
v 11.358048 0.634630 -1.415683 0.9137 0.3961 0.7020
v 11.190063 -0.024701 -1.342351 0.9529 0.5804 0.8353
v 11.471324 0.634630 -1.465132 0.9137 0.3961 0.7020
v 11.366607 -0.024701 -1.419418 0.9529 0.5804 0.8353
v 11.389961 0.634630 -1.497046 0.9137 0.3961 0.7020
v 11.239801 -0.024701 -1.469156 0.9529 0.5804 0.8353
v 11.786723 0.592141 -1.780512 1.0000 0.4353 0.7686
v 11.786723 0.660708 -1.780512 1.0000 0.4353 0.7686
v 11.786723 0.660708 -1.780512 1.0000 0.7490 0.9215
v 11.980864 0.660708 -1.155460 1.0000 0.7490 0.9215
v 11.286870 0.660708 -1.625258 1.0000 0.7490 0.9215
v 11.481010 0.660708 -1.000207 1.0000 0.7490 0.9215
v 11.387358 0.739362 -0.971118 0.9137 0.3961 0.7020
v 11.481010 1.299750 -1.000207 1.0000 0.4353 0.7686
v 11.193218 0.660708 -1.596170 1.0000 0.4353 0.7686
v 11.387358 1.299750 -0.971118 1.0000 0.4353 0.7686
v 11.387358 0.592141 -0.971118 0.9137 0.3961 0.7020
v 11.193218 0.592141 -1.596170 0.9137 0.3961 0.7020
v 11.193218 0.660708 -1.596170 1.0000 0.4353 0.7686
v 11.286870 0.660708 -1.625258 1.0000 0.4353 0.7686
v 11.387358 0.660708 -0.971118 1.0000 0.4353 0.7686
v 11.481010 0.660708 -1.000207 1.0000 0.4353 0.7686
v 11.387358 1.299750 -0.971118 0.9137 0.3961 0.7020
v 11.349027 1.299750 -1.094529 0.9137 0.3961 0.7020
v 11.193218 1.299750 -1.596170 0.9137 0.3961 0.7020
v 11.286870 0.739362 -1.625258 1.0000 0.7490 0.9215
v 11.442679 0.739362 -1.123618 1.0000 0.7490 0.9215
v 11.481010 0.739362 -1.000207 1.0000 0.7490 0.9215
v 11.481010 1.299750 -1.000207 1.0000 0.7490 0.9215
v 11.442679 1.299750 -1.123618 1.0000 0.7490 0.9215
v 11.286870 1.299750 -1.625258 1.0000 0.7490 0.9215
v 11.442679 0.739362 -1.123618 1.0000 0.7490 0.9215
v 11.325201 0.739362 -1.501848 1.0000 0.7490 0.9215
v 11.349027 0.739362 -1.094529 1.0000 0.7490 0.9215
v 11.231549 0.739362 -1.472759 1.0000 0.7490 0.9215
v 11.325201 1.200844 -1.501848 1.0000 0.7490 0.9215
v 11.231549 1.200844 -1.472759 1.0000 0.7490 0.9215
v 11.442679 1.200844 -1.123618 1.0000 0.7490 0.9215
v 11.349027 1.200844 -1.094529 1.0000 0.7490 0.9215
v 12.500000 0.000000 0.000000 0.9529 0.5804 0.8353
v 12.500000 1.100000 -0.000000 0.9137 0.3961 0.7020
v 12.500000 -0.000000 -4.000000 0.9529 0.5804 0.8353
v 12.500000 1.100000 -4.000000 0.9137 0.3961 0.7020
v 13.900000 0.000000 0.000000 0.9529 0.5804 0.8353
v 13.900000 1.100000 -0.000000 0.9137 0.3961 0.7020
v 13.971231 1.236059 -4.046803 1.0000 1.0000 1.0000
v 13.971231 1.236059 0.046803 1.0000 1.0000 1.0000
v 12.454277 1.236059 -4.046803 1.0000 1.0000 1.0000
v 12.454277 1.236059 0.046803 1.0000 1.0000 1.0000
v 12.487878 1.082059 0.046803 0.9529 0.5804 0.8353
v 12.454277 1.236059 0.046803 0.9529 0.5804 0.8353
v 12.454277 1.082059 -4.046803 0.9529 0.5804 0.8353
v 12.454277 1.236059 -4.046803 0.9529 0.5804 0.8353
v 13.971231 1.082059 0.046803 0.9529 0.5804 0.8353
v 13.971231 1.236059 0.046803 0.9529 0.5804 0.8353
v 9.786804 0.785886 -6.210398 1.0000 0.7490 0.9215
v 10.262060 0.785886 -6.336683 1.0000 0.7490 0.9215
v 10.687413 0.785886 -6.089923 1.0000 0.7490 0.9215
v 9.666328 0.785886 -5.309789 1.0000 0.7490 0.9215
v 10.566938 0.785886 -5.189313 1.0000 0.7490 0.9215
vn -0.9665 -0.0000 0.2568
vn 0.9372 0.0251 -0.3479
vn 0.8650 -0.0000 0.5018
vn 0.2568 -0.0000 0.9665
vn -0.9953 0.0251 0.0935
vn -0.3479 0.0251 -0.9372
vn 0.5786 0.0251 0.8152
vn 0.9856 0.0251 0.1673
vn -0.6377 0.0251 0.7699
vn -0.1673 0.0251 0.9856
vn 0.4167 0.0251 -0.9087
vn -0.7699 0.0251 -0.6377
vn -0.0000 1.0000 -0.0000
vn 0.9989 -0.0000 0.0467
vn 0.9797 -0.0000 0.2005
vn 0.2005 -0.0000 -0.9797
vn -0.0000 -1.0000 -0.0000
vn -0.9989 -0.0000 -0.0467
vn -0.2005 -0.0000 0.9797
vn -0.6558 -0.1216 0.7451
vn 0.7339 -0.1216 -0.6683
vn 0.7543 0.1929 -0.6276
vn -0.6607 0.1929 -0.7255
vn 0.6483 0.1929 -0.7366
vn 0.6276 0.1929 0.7543
vn 0.7630 -0.1216 -0.6349
vn -0.7451 -0.1216 -0.6558
vn -0.5406 0.1929 -0.8188
vn -0.7630 -0.1216 0.6349
vn 0.8283 -0.1216 -0.5469
vn -0.7543 0.1929 0.6276
vn -0.7255 0.1929 0.6606
vn -0.6349 -0.1216 -0.7630
vn 0.5469 -0.1216 0.8283
vn -0.9797 -0.0000 -0.2005
vn -0.0467 -0.0000 0.9989
vn -0.7366 0.1929 -0.6483
vn 0.0467 -0.0000 -0.9989
vn -0.5018 -0.0000 0.8650
vn 0.6349 -0.1216 0.7630
vn -0.6483 0.1929 0.7366
vn -0.8188 0.1929 0.5406
vn -0.6276 0.1929 -0.7543
vn 0.7366 0.1929 0.6483
vn 0.6558 -0.1216 -0.7451
vn 0.7451 -0.1216 0.6558
vn 0.6683 -0.1216 0.7339
vn 0.9550 -0.0000 -0.2966
vn -0.2966 -0.0000 -0.9550
vn 0.8684 0.1929 0.4568
vn -0.9550 -0.0000 0.2966
vn 0.2966 -0.0000 0.9550
vn 0.9240 -0.1216 0.3624
vn -0.3624 -0.1216 0.9240
vn -0.4568 0.1929 0.8684
vn 0.3583 0.1929 -0.9135
vn -0.9135 0.1929 -0.3583
vn -0.8785 -0.1216 -0.4621
vn -0.3583 0.1929 0.9135
vn 0.9135 0.1929 0.3583
vn 0.3624 -0.1216 -0.9240
vn 0.4621 -0.1216 -0.8785
vn -0.9240 -0.1216 -0.3624
vn -0.0000 -0.0000 1.0000
vn -1.0000 -0.0000 -0.0000
vn -0.9770 -0.2132 0.0080
s 0
f 8//1 10//1 9//1 7//1
f 16//2 18//2 17//2 15//2
f 2//3 4//3 3//3 1//3
f 4//4 6//4 5//4 3//4
f 11//5 20//5 19//5 12//5
f 25//6 26//6 28//6 27//6
f 22//7 11//7 12//7 21//7
f 28//8 23//8 24//8 27//8
f 23//9 26//9 25//9 24//9
f 17//10 18//10 14//10 13//10
f 19//11 20//11 22//11 21//11
f 13//12 14//12 16//12 15//12
f 209//13 207//13 206//13 208//13
f 137//14 212//14 139//14 140//14
f 116//15 57//15 58//15 117//15
f 41//16 48//16 122//16 43//16
f 42//16 115//16 114//16 110//16
f 236//17 234//17 233//17 235//17
f 108//13 109//13 107//13 106//13
f 230//18 233//18 234//18 232//18
f 128//19 47//19 49//19 123//19
f 50//19 51//19 104//19 105//19
f 60//19 66//19 70//19 64//19
f 120//16 121//16 44//16 59//16
f 129//13 130//13 132//13 131//13
f 211//18 213//18 218//18 219//18
f 201//20 200//20 196//20 197//20
f 173//21 175//21 174//21 172//21
f 98//22 102//22 103//22 99//22
f 177//23 173//23 172//23 176//23
f 198//24 202//24 203//24 199//24
f 89//25 88//25 90//25 91//25
f 93//26 92//26 88//26 89//26
f 185//27 184//27 180//27 181//27
f 181//24 180//24 182//24 183//24
f 77//28 73//28 72//28 76//28
f 101//29 100//29 96//29 97//29
f 73//30 75//30 74//30 72//30
f 90//31 94//31 95//31 91//31
f 178//32 179//32 177//32 176//32
f 94//33 92//33 93//33 95//33
f 74//34 75//34 79//34 78//34
f 130//35 133//35 134//35 132//35
f 228//36 147//36 149//36 223//36
f 134//17 133//17 135//17 136//17
f 61//16 65//16 71//16 67//16
f 54//35 55//35 53//35 52//35
f 154//18 155//18 153//18 152//18
f 37//15 112//15 39//15 40//15
f 150//36 151//36 204//36 205//36
f 163//36 162//36 168//36 169//36
f 227//36 226//36 225//36 224//36
f 56//13 45//13 38//13 46//13
f 197//37 196//37 198//37 199//37
f 161//38 165//38 171//38 167//38
f 127//19 126//19 125//19 124//19
f 131//15 136//15 135//15 129//15
f 141//38 148//38 222//38 143//38
f 63//19 62//19 68//19 69//19
f 160//36 166//36 170//36 164//36
f 231//14 236//14 235//14 229//14
f 6//39 8//39 7//39 5//39
f 102//40 100//40 101//40 103//40
f 190//41 194//41 195//41 191//41
f 78//42 79//42 77//42 76//42
f 97//43 96//43 98//43 99//43
f 182//44 186//44 187//44 183//44
f 193//45 192//45 188//45 189//45
f 194//27 192//27 193//27 195//27
f 82//25 86//25 87//25 83//25
f 81//22 80//22 82//22 83//22
f 85//33 84//33 80//33 81//33
f 86//29 84//29 85//29 87//29
f 202//46 200//46 201//46 203//46
f 189//44 188//44 190//44 191//44
f 174//47 175//47 179//47 178//47
f 186//20 184//20 185//20 187//20
f 142//38 215//38 214//38 210//38
f 111//35 113//35 118//35 119//35
f 156//13 145//13 138//13 146//13
f 216//14 157//14 158//14 217//14
f 230//13 232//13 231//13 229//13
f 250//48 251//48 304//48 305//48
f 237//49 312//49 239//49 240//49
f 278//50 279//50 277//50 276//50
f 261//51 265//51 271//51 267//51
f 309//13 307//13 306//13 308//13
f 316//49 257//49 258//49 317//49
f 329//13 330//13 332//13 331//13
f 260//48 266//48 270//48 264//48
f 328//48 247//48 249//48 323//48
f 311//52 313//52 318//52 319//52
f 263//48 262//48 268//48 269//48
f 256//13 245//13 238//13 246//13
f 331//49 336//49 335//49 329//49
f 320//51 321//51 244//51 259//51
f 301//53 300//53 296//53 297//53
f 285//54 284//54 280//54 281//54
f 277//55 273//55 272//55 276//55
f 31//13 355//13 30//13 35//13 33//13
f 289//56 288//56 290//56 291//56
f 298//57 302//57 303//57 299//57
f 254//52 255//52 253//52 252//52
f 273//58 275//58 274//58 272//58
f 297//59 296//59 298//59 299//59
f 290//60 294//60 295//60 291//60
f 294//54 292//54 293//54 295//54
f 286//53 284//53 285//53 287//53
f 302//61 300//61 301//61 303//61
f 281//57 280//57 282//57 283//57
f 274//62 275//62 279//62 278//62
f 293//63 292//63 288//63 289//63
f 330//52 333//52 334//52 332//52
f 327//48 326//48 325//48 324//48
f 334//17 333//17 335//17 336//17
f 241//51 248//51 322//51 243//51
f 220//38 221//38 144//38 159//38
f 352//64 348//64 347//64 351//64
f 345//13 346//13 344//13 343//13
f 338//65 340//65 339//65 337//65
f 348//65 350//65 349//66 347//66
f 30//13 354//13 29//13 35//13
f 29//13 353//13 36//13 35//13
f 35//13 34//13 356//13 33//13
f 33//13 357//13 32//13 31//13
f 342//64 338//64 337//64 341//64
f 282//56 286//56 287//56 283//56
f 242//51 315//51 314//51 310//51
