o bucket
v 0.425188 0.000000 0.070678 0.9686 0.7255 1.0000
v 0.425188 0.862044 0.070678 0.9647 0.7255 1.0000
v 0.319480 0.862044 0.289332 0.9255 0.5255 0.9568
v 0.319480 0.000000 0.289332 0.9058 0.5255 0.9490
v 0.319480 0.000000 0.289332 0.9255 0.5294 0.9568
v 0.319480 0.862044 0.289332 0.9255 0.5294 0.9568
v 0.112338 0.862044 0.416125 0.9411 0.5255 0.9607
v 0.112338 0.000000 0.416125 0.9451 0.5255 0.9607
v 0.112338 0.000000 0.416125 0.9372 0.5255 0.9607
v 0.112338 0.862044 0.416125 0.9333 0.5255 0.9607
v -0.130469 0.862044 0.410801 0.8000 0.3921 0.7764
v -0.130469 0.000000 0.410801 0.8000 0.3921 0.7764
v -0.130469 0.000000 0.410801 0.8000 0.3921 0.7764
v -0.130469 0.862044 0.410801 0.8000 0.3921 0.7764
v -0.331854 0.862044 0.275051 0.6354 0.3882 0.6197
v -0.331854 0.000000 0.275051 0.6393 0.3882 0.6197
v -0.331854 0.000000 0.275051 0.6393 0.3882 0.6197
v -0.331854 0.862044 0.275051 0.6393 0.3882 0.6197
v -0.427877 0.862044 0.051974 0.5333 0.2863 0.5412
v -0.427877 0.000000 0.051974 0.5333 0.2863 0.5412
v -0.113076 0.862044 0.356036 0.9607 0.7059 0.9960
v 0.097362 0.862044 0.360650 0.9607 0.7059 0.9960
v 0.097362 0.044800 0.360650 0.9607 0.7059 0.9960
v -0.113076 0.044800 0.356036 0.9607 0.7059 0.9960
v 0.368505 0.862044 0.061255 0.9686 0.7255 1.0000
v 0.276889 0.862044 0.250760 0.9686 0.7255 1.0000
v 0.319480 0.862044 0.289332 0.9686 0.7255 1.0000
v 0.425188 0.862044 0.070678 0.9686 0.7255 1.0000
v 0.097362 0.862044 0.360650 0.9686 0.7255 1.0000
v 0.112338 0.862044 0.416125 0.9686 0.7255 1.0000
v -0.113076 0.862044 0.356036 0.9686 0.7255 1.0000
v -0.130469 0.862044 0.410801 0.9686 0.7255 1.0000
v -0.287614 0.862044 0.238383 0.9686 0.7255 1.0000
v -0.331854 0.862044 0.275051 0.9686 0.7255 1.0000
v -0.370836 0.862044 0.045045 0.9686 0.7255 1.0000
v -0.427877 0.862044 0.051974 0.9686 0.7255 1.0000
v -0.287614 0.862044 0.238383 0.9607 0.7098 0.9960
v -0.113076 0.862044 0.356036 0.9607 0.7059 0.9960
v -0.113076 0.044800 0.356036 0.9607 0.7059 0.9960
v -0.287614 0.044800 0.238383 0.9607 0.7059 0.9960
v 0.276889 0.862044 0.250760 0.9607 0.7059 0.9960
v 0.368505 0.862044 0.061255 0.9607 0.7059 0.9960
v 0.368505 0.044800 0.061255 0.9607 0.7059 0.9960
v 0.276889 0.044800 0.250760 0.9607 0.7059 0.9960
v -0.370836 0.862044 0.045045 0.9607 0.7059 0.9960
v -0.287614 0.862044 0.238383 0.9529 0.6980 0.9882
v -0.287614 0.044800 0.238383 0.9607 0.7059 0.9960
v -0.370836 0.044800 0.045045 0.9607 0.7059 0.9960
v 0.097362 0.862044 0.360650 0.9607 0.7059 0.9960
v 0.276889 0.862044 0.250760 0.9607 0.7059 0.9960
v 0.276889 0.044800 0.250760 0.9607 0.7059 0.9960
v 0.097362 0.044800 0.360650 0.9607 0.7059 0.9960
v 0.401733 0.856798 0.141700 0.7176 0.7333 0.8000
v 0.364311 1.074683 0.128575 1.0000 1.0000 1.0000
v 0.332420 1.064846 0.148586 1.0000 1.0000 1.0000
v 0.367525 0.860458 0.160898 0.7176 0.7333 0.8000
v 0.367525 0.860458 0.160898 0.7176 0.7333 0.8000
v 0.332420 1.064846 0.148586 1.0000 1.0000 1.0000
v 0.318725 1.054819 0.113570 1.0000 1.0000 1.0000
v 0.351511 0.863929 0.125069 0.7176 0.7333 0.8000
v 0.351511 0.863929 0.125069 1.0000 1.0000 1.0000
v 0.318725 1.054819 0.113570 1.0000 1.0000 1.0000
v 0.350615 1.064656 0.093560 1.0000 1.0000 1.0000
v 0.385720 0.860269 0.105872 1.0000 1.0000 1.0000
v 0.401733 0.856798 0.141700 1.0000 1.0000 1.0000
v 0.385720 0.860269 0.105872 1.0000 1.0000 1.0000
v 0.350615 1.064656 0.093560 1.0000 1.0000 1.0000
v 0.364311 1.074683 0.128575 1.0000 1.0000 1.0000
v 0.364311 1.074683 0.128575 1.0000 1.0000 1.0000
v 0.210069 1.241664 0.076998 1.0000 1.0000 1.0000
v 0.187733 1.221482 0.100203 1.0000 1.0000 1.0000
v 0.332420 1.064846 0.148586 1.0000 1.0000 1.0000
v 0.332420 1.064846 0.148586 1.0000 1.0000 1.0000
v 0.187733 1.221482 0.100203 1.0000 1.0000 1.0000
v 0.183593 1.201112 0.068382 1.0000 1.0000 1.0000
v 0.318725 1.054819 0.113570 1.0000 1.0000 1.0000
v 0.318725 1.054819 0.113570 1.0000 1.0000 1.0000
v 0.183593 1.201112 0.068382 1.0000 1.0000 1.0000
v 0.205929 1.221293 0.045177 1.0000 1.0000 1.0000
v 0.350615 1.064656 0.093560 1.0000 1.0000 1.0000
v 0.350615 1.064656 0.093560 1.0000 1.0000 1.0000
v 0.205929 1.221293 0.045177 1.0000 1.0000 1.0000
v 0.210069 1.241664 0.076998 1.0000 1.0000 1.0000
v 0.364311 1.074683 0.128575 1.0000 1.0000 1.0000
v 0.210069 1.241664 0.076998 1.0000 1.0000 1.0000
v -0.012021 1.304725 0.003343 1.0000 1.0000 1.0000
v -0.020599 1.280637 0.031111 1.0000 1.0000 1.0000
v 0.187733 1.221482 0.100203 1.0000 1.0000 1.0000
v 0.187733 1.221482 0.100203 1.0000 1.0000 1.0000
v -0.020599 1.280637 0.031111 1.0000 1.0000 1.0000
v -0.010982 1.256360 0.003853 1.0000 1.0000 1.0000
v 0.183593 1.201112 0.068382 1.0000 1.0000 1.0000
v 0.183593 1.201112 0.068382 1.0000 1.0000 1.0000
v -0.010982 1.256360 0.003853 1.0000 1.0000 1.0000
v -0.002403 1.280448 -0.023915 1.0000 1.0000 1.0000
v 0.205929 1.221293 0.045177 1.0000 1.0000 1.0000
v 0.205929 1.221293 0.045177 1.0000 1.0000 1.0000
v -0.002403 1.280448 -0.023915 1.0000 1.0000 1.0000
v -0.012021 1.304725 0.003343 1.0000 1.0000 1.0000
v 0.210069 1.241664 0.076998 1.0000 1.0000 1.0000
v -0.012021 1.304725 0.003343 1.0000 1.0000 1.0000
v -0.231447 1.243846 -0.069005 0.7333 0.7490 0.8117
v -0.226432 1.223530 -0.036755 0.7216 0.7372 0.8000
v -0.020599 1.280637 0.031111 1.0000 1.0000 1.0000
v -0.020599 1.280637 0.031111 1.0000 1.0000 1.0000
v -0.226432 1.223530 -0.036755 0.7216 0.7372 0.8000
v -0.203222 1.203024 -0.059531 0.8235 0.8313 0.8745
v -0.010982 1.256360 0.003853 1.0000 1.0000 1.0000
v -0.010982 1.256360 0.003853 1.0000 1.0000 1.0000
v -0.203222 1.203024 -0.059531 1.0000 1.0000 1.0000
v -0.208237 1.223340 -0.091781 1.0000 1.0000 1.0000
v -0.002403 1.280448 -0.023915 1.0000 1.0000 1.0000
v -0.002403 1.280448 -0.023915 1.0000 1.0000 1.0000
v -0.208237 1.223340 -0.091781 1.0000 1.0000 1.0000
v -0.231447 1.243846 -0.069005 1.0000 1.0000 1.0000
v -0.012021 1.304725 0.003343 1.0000 1.0000 1.0000
v -0.231447 1.243846 -0.069005 0.7333 0.7490 0.8117
v -0.378544 1.078355 -0.117075 0.7176 0.7333 0.8000
v -0.364417 1.068290 -0.081847 0.7176 0.7333 0.8000
v -0.226432 1.223530 -0.036755 0.7216 0.7372 0.8000
v -0.226432 1.223530 -0.036755 0.7216 0.7372 0.8000
v -0.364417 1.068290 -0.081847 0.7176 0.7333 0.8000
v -0.332094 1.058036 -0.101645 0.7176 0.7333 0.8000
v -0.203222 1.203024 -0.059531 0.8235 0.8313 0.8745
v -0.203222 1.203024 -0.059531 1.0000 1.0000 1.0000
v -0.332094 1.058036 -0.101645 1.0000 1.0000 1.0000
v -0.346221 1.068100 -0.136873 1.0000 1.0000 1.0000
v -0.208237 1.223340 -0.091781 1.0000 1.0000 1.0000
v -0.208237 1.223340 -0.091781 1.0000 1.0000 1.0000
v -0.346221 1.068100 -0.136873 1.0000 1.0000 1.0000
v -0.378544 1.078355 -0.117075 1.0000 1.0000 1.0000
v -0.231447 1.243846 -0.069005 1.0000 1.0000 1.0000
v -0.378544 1.078355 -0.117075 0.7176 0.7333 0.8000
v -0.406608 0.860794 -0.125605 0.7176 0.7333 0.8000
v -0.390743 0.864206 -0.089849 0.7216 0.7372 0.8039
v -0.364417 1.068290 -0.081847 0.7176 0.7333 0.8000
v -0.364417 1.068290 -0.081847 0.7176 0.7333 0.8000
v -0.390743 0.864206 -0.089849 0.7216 0.7372 0.8039
v -0.356682 0.867429 -0.109119 0.7176 0.7333 0.8000
v -0.332094 1.058036 -0.101645 0.7176 0.7333 0.8000
v -0.332094 1.058036 -0.101645 1.0000 1.0000 1.0000
v -0.356682 0.867429 -0.109119 1.0000 1.0000 1.0000
v -0.372547 0.864017 -0.144875 1.0000 1.0000 1.0000
v -0.346221 1.068100 -0.136873 1.0000 1.0000 1.0000
v -0.346221 1.068100 -0.136873 1.0000 1.0000 1.0000
v -0.372547 0.864017 -0.144875 1.0000 1.0000 1.0000
v -0.406608 0.860794 -0.125605 1.0000 1.0000 1.0000
v -0.378544 1.078355 -0.117075 1.0000 1.0000 1.0000
v 0.240921 0.000000 -0.357404 0.9647 0.7176 1.0000
v 0.240921 0.862044 -0.357404 0.9647 0.7176 1.0000
v 0.395903 0.862044 -0.170416 0.9647 0.7176 1.0000
v 0.395903 0.000000 -0.170416 0.9647 0.7176 1.0000
v 0.395903 0.000000 -0.170416 0.9647 0.7176 1.0000
v 0.395903 0.862044 -0.170416 0.9647 0.7176 1.0000
v 0.425188 0.862044 0.070678 0.9647 0.7176 1.0000
v 0.425188 0.000000 0.070678 0.9647 0.7176 1.0000
v -0.427877 0.000000 0.051974 0.5333 0.2863 0.5412
v -0.427877 0.862044 0.051974 0.5333 0.2863 0.5412
v -0.388053 0.862044 -0.187605 0.5333 0.2863 0.5412
v -0.388053 0.000000 -0.187605 0.5333 0.2863 0.5412
v -0.388053 0.000000 -0.187605 0.5333 0.2863 0.5412
v -0.388053 0.862044 -0.187605 0.5333 0.2863 0.5412
v -0.225024 0.862044 -0.367620 0.5333 0.2863 0.5412
v -0.225024 0.000000 -0.367620 0.5333 0.2863 0.5412
v 0.009448 0.000000 -0.430919 0.9647 0.7176 1.0000
v 0.009448 0.862044 -0.430919 0.9215 0.6745 0.9529
v 0.240921 0.862044 -0.357404 0.9647 0.7176 1.0000
v 0.240921 0.000000 -0.357404 0.9647 0.7176 1.0000
v -0.225024 0.000000 -0.367620 0.5333 0.2863 0.5412
v -0.225024 0.862044 -0.367620 0.5333 0.2863 0.5412
v 0.009448 0.862044 -0.430919 0.9215 0.6745 0.9529
v 0.009448 0.000000 -0.430919 0.9647 0.7176 1.0000
v 0.208803 0.862044 -0.309758 0.9686 0.7255 1.0000
v 0.343124 0.862044 -0.147698 0.9686 0.7255 1.0000
v 0.395903 0.862044 -0.170416 0.9686 0.7255 1.0000
v 0.240921 0.862044 -0.357404 0.9686 0.7255 1.0000
v 0.368505 0.862044 0.061255 0.9686 0.7255 1.0000
v 0.425188 0.862044 0.070678 0.9686 0.7255 1.0000
v -0.370836 0.862044 0.045045 0.9686 0.7255 1.0000
v -0.336320 0.862044 -0.162595 0.9686 0.7255 1.0000
v -0.388053 0.862044 -0.187605 0.9686 0.7255 1.0000
v -0.427877 0.862044 0.051974 0.9686 0.7255 1.0000
v -0.195025 0.862044 -0.318612 0.9686 0.7255 1.0000
v -0.225024 0.862044 -0.367620 0.9686 0.7255 1.0000
v 0.008189 0.862044 -0.373472 0.9686 0.7255 1.0000
v 0.009448 0.862044 -0.430919 0.9686 0.7255 1.0000
v 0.368505 0.862044 0.061255 0.3961 0.2118 0.5019
v 0.343124 0.862044 -0.147698 0.3961 0.2118 0.5019
v 0.343124 0.044800 -0.147698 0.3961 0.2118 0.5019
v 0.368505 0.044800 0.061255 0.3921 0.2157 0.4980
v -0.195025 0.862044 -0.318612 0.3921 0.2196 0.4941
v -0.336320 0.862044 -0.162595 0.3961 0.2118 0.5019
v -0.336320 0.044800 -0.162595 0.3961 0.2118 0.5019
v -0.195025 0.044800 -0.318612 0.3961 0.2118 0.5019
v 0.008189 0.862044 -0.373472 0.3961 0.2118 0.5019
v -0.195025 0.862044 -0.318612 0.3921 0.2196 0.4941
v -0.195025 0.044800 -0.318612 0.3961 0.2118 0.5019
v 0.008189 0.044800 -0.373472 0.3961 0.2118 0.5019
v 0.208803 0.862044 -0.309758 0.3804 0.2275 0.4784
v 0.008189 0.862044 -0.373472 0.3961 0.2118 0.5019
v 0.008189 0.044800 -0.373472 0.3961 0.2118 0.5019
v 0.208803 0.044800 -0.309758 0.3961 0.2118 0.5019
v 0.343124 0.862044 -0.147698 0.3961 0.2118 0.5019
v 0.208803 0.862044 -0.309758 0.3804 0.2275 0.4784
v 0.208803 0.044800 -0.309758 0.3961 0.2118 0.5019
v 0.343124 0.044800 -0.147698 0.3961 0.2118 0.5019
v -0.336320 0.862044 -0.162595 0.3961 0.2118 0.5019
v -0.370836 0.862044 0.045045 0.3961 0.2118 0.5019
v -0.370836 0.044800 0.045045 0.3961 0.2118 0.5019
v -0.336320 0.044800 -0.162595 0.3961 0.2118 0.5019
vn 0.9003 -0.0000 0.4353
vn 0.5221 -0.0000 0.8529
vn -0.0219 -0.0000 0.9998
vn -0.5589 -0.0000 0.8292
vn -0.9185 -0.0000 0.3954
vn 0.0219 -0.0000 -0.9998
vn -0.0000 1.0000 -0.0000
vn 0.5590 -0.0000 -0.8292
vn -0.9003 -0.0000 -0.4353
vn 0.9185 -0.0000 -0.3954
vn -0.5221 -0.0000 -0.8529
vn 0.4959 0.1368 0.8575
vn -0.9096 -0.1325 0.3937
vn -0.4959 -0.1368 -0.8575
vn 0.9096 0.1325 -0.3937
vn 0.3225 0.5384 0.7786
vn -0.7242 -0.5342 0.4362
vn -0.3225 -0.5384 -0.7786
vn 0.7242 0.5342 -0.4362
vn -0.0026 0.7558 0.6548
vn -0.3899 -0.7517 0.5319
vn 0.0026 -0.7558 -0.6548
vn 0.3899 0.7517 -0.5319
vn -0.3849 0.7527 0.5341
vn -0.0109 -0.7486 0.6629
vn 0.3849 -0.7527 -0.5341
vn 0.0109 0.7486 -0.6629
vn -0.7304 0.5209 0.4417
vn 0.3220 -0.5167 0.7933
vn 0.7304 -0.5209 -0.4417
vn -0.3220 0.5167 -0.7933
vn -0.9129 0.1023 0.3953
vn 0.4970 -0.0979 0.8622
vn 0.9129 -0.1023 -0.3953
vn -0.4970 0.0979 -0.8622
vn 0.7699 -0.0000 -0.6381
vn 0.9927 -0.0000 -0.1206
vn -0.9865 -0.0000 -0.1640
vn -0.7412 -0.0000 -0.6713
vn 0.3027 -0.0000 -0.9531
vn -0.2606 -0.0000 -0.9654
vn -0.9927 -0.0000 0.1206
vn 0.7412 -0.0000 0.6713
vn 0.2606 -0.0000 0.9654
vn -0.3027 -0.0000 0.9531
vn -0.7699 -0.0000 0.6381
vn 0.9865 -0.0000 0.1640
s 0
f 1//1 2//1 3//1 4//1
f 5//2 6//2 7//2 8//2
f 9//3 10//3 11//3 12//3
f 13//4 14//4 15//4 16//4
f 17//5 18//5 19//5 20//5
f 21//6 22//6 23//6 24//6
f 25//7 26//7 27//7 28//7
f 26//7 29//7 30//7 27//7
f 29//7 31//7 32//7 30//7
f 31//7 33//7 34//7 32//7
f 33//7 35//7 36//7 34//7
f 37//8 38//8 39//8 40//8
f 41//9 42//9 43//9 44//9
f 45//10 46//10 47//10 48//10
f 49//11 50//11 51//11 52//11
f 53//12 54//12 55//12 56//12
f 57//13 58//13 59//13 60//13
f 61//14 62//14 63//14 64//14
f 65//15 66//15 67//15 68//15
f 69//16 70//16 71//16 72//16
f 73//17 74//17 75//17 76//17
f 77//18 78//18 79//18 80//18
f 81//19 82//19 83//19 84//19
f 85//20 86//20 87//20 88//20
f 89//21 90//21 91//21 92//21
f 93//22 94//22 95//22 96//22
f 97//23 98//23 99//23 100//23
f 101//24 102//24 103//24 104//24
f 105//25 106//25 107//25 108//25
f 109//26 110//26 111//26 112//26
f 113//27 114//27 115//27 116//27
f 117//28 118//28 119//28 120//28
f 121//29 122//29 123//29 124//29
f 125//30 126//30 127//30 128//30
f 129//31 130//31 131//31 132//31
f 133//32 134//32 135//32 136//32
f 137//33 138//33 139//33 140//33
f 141//34 142//34 143//34 144//34
f 145//35 146//35 147//35 148//35
f 149//36 150//36 151//36 152//36
f 153//37 154//37 155//37 156//37
f 157//38 158//38 159//38 160//38
f 161//39 162//39 163//39 164//39
f 165//40 166//40 167//40 168//40
f 169//41 170//41 171//41 172//41
f 173//7 174//7 175//7 176//7
f 174//7 177//7 178//7 175//7
f 179//7 180//7 181//7 182//7
f 180//7 183//7 184//7 181//7
f 183//7 185//7 186//7 184//7
f 185//7 173//7 176//7 186//7
f 187//42 188//42 189//42 190//42
f 191//43 192//43 193//43 194//43
f 195//44 196//44 197//44 198//44
f 199//45 200//45 201//45 202//45
f 203//46 204//46 205//46 206//46
f 207//47 208//47 209//47 210//47
