# Blender 3.6.2
# www.blender.org
o gate_0
v -1.448175 0.105469 -0.000001 0.6197 0.5569 0.3725
v -1.448175 0.000000 -0.000000 0.6197 0.5569 0.3725
v 1.448175 0.000000 0.000000 0.8196 0.7725 0.6354
v 1.448175 0.105469 0.000000 0.8353 0.7843 0.6315
v 1.448175 0.105469 0.000000 0.7020 0.6589 0.5412
v 1.448175 0.105469 -0.105468 0.7020 0.6589 0.5412
v -1.448175 0.105469 -0.105469 0.6197 0.5569 0.3725
v -1.391287 0.105469 -0.077680 0.8313 0.7882 0.6667
v -1.391287 0.105469 -0.027790 0.8313 0.7882 0.6667
v -1.491068 0.105469 -0.077680 0.8313 0.7882 0.6667
v -1.491068 1.801751 -0.077681 0.5490 0.5216 0.4392
v -1.391287 1.801751 -0.077680 0.5490 0.5216 0.4392
v -1.491068 2.101094 -0.052735 1.0000 1.0000 1.0000
v -1.391287 2.094633 -0.052735 1.0000 1.0000 1.0000
v -1.491068 0.105469 -0.027790 0.8313 0.7882 0.6667
v -1.391287 1.801751 -0.027790 0.5490 0.5216 0.4392
v -1.491068 1.801751 -0.027790 0.5490 0.5216 0.4392
v 0.915640 1.801751 -0.027789 0.5490 0.5216 0.4392
v 1.015421 0.105469 -0.077679 0.8313 0.7882 0.6667
v 1.015421 0.105469 -0.027789 0.8313 0.7882 0.6667
v 1.015421 1.801751 -0.027789 0.5490 0.5216 0.4392
v 0.915640 0.105469 -0.027789 0.8313 0.7882 0.6667
v 0.915640 0.105469 -0.077679 0.8313 0.7882 0.6667
v 0.915640 1.801751 -0.077680 0.5490 0.5216 0.4392
v 1.015421 1.801751 -0.077680 0.5490 0.5216 0.4392
v 0.906436 2.101094 -0.052734 1.0000 1.0000 1.0000
v 1.006217 2.117268 -0.052734 1.0000 1.0000 1.0000
v -0.174600 2.090840 -0.052735 1.0000 1.0000 1.0000
v -0.074819 2.091043 -0.052735 1.0000 1.0000 1.0000
v -0.183934 1.801751 -0.027789 0.5490 0.5216 0.4392
v -0.084152 0.105469 -0.077680 0.8313 0.7882 0.6667
v -0.084152 0.105469 -0.027789 0.8313 0.7882 0.6667
v -0.084152 1.801751 -0.027789 0.5490 0.5216 0.4392
v -0.183933 0.105469 -0.027789 0.8313 0.7882 0.6667
v -0.183933 0.105469 -0.077680 0.8313 0.7882 0.6667
v -0.183933 1.801751 -0.077680 0.5490 0.5216 0.4392
v -0.084152 1.801751 -0.077680 0.5490 0.5216 0.4392
v -1.141834 1.801751 -0.027790 0.5490 0.5216 0.4392
v -1.042052 0.105469 -0.077680 0.8313 0.7882 0.6667
v -1.042052 0.105469 -0.027789 0.8313 0.7882 0.6667
v -1.042052 1.801751 -0.027790 0.5490 0.5216 0.4392
v -1.141834 0.105469 -0.027789 0.8313 0.7882 0.6667
v -1.141834 0.105469 -0.077680 0.8313 0.7882 0.6667
v -1.141834 1.801751 -0.077680 0.5490 0.5216 0.4392
v -1.042052 1.801751 -0.077680 0.5490 0.5216 0.4392
v -1.141834 2.107463 -0.052735 1.0000 0.9960 0.9960
v -1.057621 2.107463 -0.052735 1.0000 1.0000 1.0000
v -0.792599 1.801751 -0.027790 0.5569 0.5294 0.4471
v -0.692818 0.105469 -0.077680 0.8313 0.7882 0.6667
v -0.692818 0.105469 -0.027789 0.8313 0.7882 0.6667
v -0.692818 1.801751 -0.027790 0.5608 0.5333 0.4510
v -0.792599 0.105469 -0.027789 0.8313 0.7882 0.6667
v -0.792599 0.105469 -0.077680 0.8313 0.7882 0.6667
v -0.792599 1.801751 -0.077680 0.5490 0.5216 0.4392
v -0.692818 1.801751 -0.077680 0.5490 0.5216 0.4392
v -0.792599 2.094698 -0.052735 1.0000 1.0000 1.0000
v -0.692818 2.094724 -0.052735 1.0000 1.0000 1.0000
v -0.493256 1.801751 -0.027790 0.5490 0.5216 0.4392
v -0.393474 0.105469 -0.077680 0.8313 0.7882 0.6667
v -0.393474 0.105469 -0.027789 0.8313 0.7882 0.6667
v -0.393474 1.801751 -0.027789 0.5490 0.5216 0.4392
v -0.493255 0.105469 -0.027789 0.8313 0.7882 0.6667
v -0.493255 0.105469 -0.077680 0.8313 0.7882 0.6667
v -0.493255 1.801751 -0.077680 0.5490 0.5216 0.4392
v -0.393474 1.801751 -0.077680 0.5490 0.5216 0.4392
v -0.493255 2.128285 -0.052735 1.0000 1.0000 1.0000
v -0.393474 2.121461 -0.052735 1.0000 1.0000 1.0000
v 0.135367 1.801751 -0.027789 0.5686 0.5412 0.4550
v 0.235148 0.105469 -0.077680 0.8313 0.7882 0.6667
v 0.235148 0.105469 -0.027789 0.8313 0.7882 0.6667
v 0.235148 1.801751 -0.027789 0.5490 0.5216 0.4392
v 0.135367 0.105469 -0.027789 0.8313 0.7882 0.6667
v 0.135367 0.105469 -0.077680 0.8313 0.7882 0.6667
v 0.135367 1.801751 -0.077680 0.5490 0.5216 0.4392
v 0.235148 1.801751 -0.077680 0.5490 0.5216 0.4392
v 0.135367 2.115592 -0.052735 0.9843 0.9764 0.9647
v 0.235148 2.101094 -0.052735 1.0000 1.0000 1.0000
v 0.379831 1.801751 -0.027789 0.5530 0.5255 0.4432
v 0.479612 0.105469 -0.077680 0.8313 0.7882 0.6667
v 0.479612 0.105469 -0.027789 0.8313 0.7882 0.6667
v 0.479612 1.801751 -0.027789 0.5490 0.5216 0.4392
v 0.379831 0.105469 -0.027789 0.8313 0.7882 0.6667
v 0.379831 0.105469 -0.077680 0.8313 0.7882 0.6667
v 0.379831 1.801751 -0.077680 0.5490 0.5216 0.4392
v 0.479612 1.801751 -0.077680 0.5490 0.5216 0.4392
v 0.379831 2.088635 -0.052735 0.9960 0.9960 0.9960
v 0.479612 2.101094 -0.052735 1.0000 1.0000 1.0000
v 0.604339 1.801751 -0.027789 0.5490 0.5216 0.4392
v 0.704120 0.105469 -0.077679 0.8313 0.7882 0.6667
v 0.704120 0.105469 -0.027789 0.8313 0.7882 0.6667
v 0.704120 1.801751 -0.027789 0.5490 0.5216 0.4392
v 0.604339 0.105469 -0.027789 0.8313 0.7882 0.6667
v 0.604339 0.105469 -0.077680 0.8313 0.7882 0.6667
v 0.604339 1.801751 -0.077680 0.5490 0.5216 0.4392
v 0.704120 1.801751 -0.077680 0.5490 0.5216 0.4392
v 0.604339 2.092963 -0.052735 1.0000 0.9960 0.9960
v 0.704120 2.098963 -0.052734 1.0000 1.0000 1.0000
v 1.160484 1.801751 -0.027789 0.5490 0.5216 0.4392
v 1.260266 0.105469 -0.077679 0.8313 0.7882 0.6667
v 1.260266 0.105469 -0.027789 0.8313 0.7882 0.6667
v 1.260266 1.801751 -0.027789 0.5490 0.5216 0.4392
v 1.160485 0.105469 -0.027789 0.8313 0.7882 0.6667
v 1.160485 0.105469 -0.077679 0.8313 0.7882 0.6667
v 1.160485 1.801751 -0.077680 0.5490 0.5216 0.4392
v 1.260266 1.801751 -0.077680 0.5490 0.5216 0.4392
v 1.160484 2.097038 -0.052734 1.0000 1.0000 1.0000
v 1.260266 2.101094 -0.052734 1.0000 1.0000 1.0000
v 1.402589 1.801751 -0.027789 0.5530 0.5255 0.4432
v 1.502370 0.105469 -0.077679 0.8313 0.7882 0.6667
v 1.502370 1.801751 -0.027789 0.5490 0.5216 0.4392
v 1.402589 0.105469 -0.027789 0.8313 0.7882 0.6667
v 1.502370 0.105469 -0.027789 0.8313 0.7882 0.6667
v 1.402589 1.801751 -0.077680 0.5490 0.5216 0.4392
v 1.402589 0.105469 -0.077679 0.8313 0.7882 0.6667
v 1.502370 1.801751 -0.077680 0.5490 0.5216 0.4392
v 1.402589 2.101094 -0.052734 0.9804 0.9764 0.9607
v 1.502370 2.086909 -0.052734 1.0000 1.0000 1.0000
vn -0.7009 0.0413 0.7121
vn -0.7071 -0.0000 0.7071
vn 0.7071 -0.0000 0.7071
vn 0.6940 0.0204 0.7197
vn -0.6982 0.0276 0.7154
vn 0.6989 0.0275 0.7147
vn 0.0972 0.0766 0.9923
vn -0.0984 0.0766 0.9922
vn -0.6957 0.0189 0.7181
vn 0.7002 0.0385 0.7129
vn 0.1024 0.0834 0.9912
vn -0.1037 0.0773 0.9916
vn -0.0000 1.0000 -0.0000
vn -0.0000 0.7071 0.7071
vn -0.6968 0.0305 0.7166
vn 0.6985 0.0305 0.7149
vn 0.1074 0.0846 0.9906
vn -0.1096 0.0845 0.9904
vn -0.6981 0.0300 0.7154
vn 0.6976 0.0300 0.7159
vn 0.1064 0.0831 0.9908
vn -0.1057 0.0831 0.9909
vn -0.6981 0.0303 0.7154
vn 0.6973 0.0303 0.7161
vn -0.1071 0.0835 0.9907
vn -0.6974 0.0301 0.7161
vn 0.6982 0.0301 0.7153
vn 0.1060 0.0835 0.9909
vn -0.6984 0.0304 0.7150
vn 0.6969 0.0304 0.7165
vn -0.6972 0.0291 0.7163
vn 0.6989 0.0290 0.7146
vn 0.1023 0.0807 0.9915
vn -0.1047 0.0806 0.9912
vn 0.1111 0.0818 0.9904
vn -0.1066 0.0889 0.9903
vn -0.6981 0.0291 0.7154
vn 0.7032 0.0458 0.7095
vn 0.1090 0.0843 0.9905
vn -0.1070 0.0843 0.9907
vn 0.1077 0.0840 0.9906
vn -0.1067 0.0840 0.9907
vn -0.0000 -0.0000 1.0000
vn -0.6977 0.0304 0.7158
vn 0.6977 0.0304 0.7158
vn 0.1075 0.0844 0.9906
vn -0.1075 0.0844 0.9906
vn 0.0996 0.0860 0.9913
vn -0.1031 0.0809 0.9914
vn 1.0000 -0.0000 -0.0000
vn -1.0000 -0.0000 -0.0000
vn 0.9999 0.0142 -0.0000
vn -0.9999 -0.0150 -0.0000
vn 0.9999 -0.0157 -0.0000
vn -0.9999 0.0157 -0.0000
vn 0.9997 0.0248 -0.0000
s 1
f 30//1 34//2 32//3 33//4
f 58//5 61//6 67//7 66//8
f 18//9 21//10 27//11 26//12
f 6//13 7//13 1//14 5//13
f 108//15 110//16 117//17 116//18
f 98//19 102//2 100//3 101//20
f 98//19 101//20 107//21 106//22
f 58//5 62//2 60//3 61//6
f 88//23 92//2 90//3 91//24
f 13//25 17//26 16//27 14//28
f 78//29 82//2 80//3 81//30
f 111//2 112//3 110//16 108//15
f 68//31 71//32 77//33 76//34
f 30//1 33//4 29//35 28//36
f 18//9 22//2 20//3 21//10
f 38//37 42//2 40//3 41//38
f 78//29 81//30 87//39 86//40
f 88//23 91//24 97//41 96//42
f 17//26 15//2 9//3 16//27
f 4//43 1//14 2//43 3//43
f 48//44 51//45 57//46 56//47
f 48//44 52//2 50//3 51//45
f 38//37 41//38 47//48 46//49
f 68//31 72//2 70//3 71//32
f 117//17 110//16 115//50
f 116//18 113//51 108//15
f 107//21 101//20 105//50
f 106//22 104//51 98//19
f 27//11 21//10 25//52
f 26//12 24//53 18//9
f 97//41 91//24 95//50
f 96//42 94//51 88//23
f 86//40 84//51 78//29
f 87//39 81//30 85//50
f 77//33 71//32 75//50
f 29//35 33//4 37//54
f 67//7 61//6 65//50
f 76//34 74//51 68//31
f 28//36 36//55 30//1
f 66//8 64//51 58//5
f 56//47 54//51 48//44
f 46//49 44//51 38//37
f 13//25 11//51 17//26
f 14//28 16//27 12//50
f 47//48 41//38 45//56
f 57//46 51//45 55//50
f 110//16 112//3 109//50 115//50
f 101//20 100//3 99//50 105//50
f 25//52 21//10 20//3 19//50
f 95//50 91//24 90//3 89//50
f 81//30 80//3 79//50 85//50
f 71//32 70//3 69//50 75//50
f 37//54 33//4 32//3 31//50
f 65//50 61//6 60//3 59//50
f 51//45 50//3 49//50 55//50
f 41//38 40//3 39//50 45//56
f 12//50 16//27 9//3 8//50
f 17//26 11//51 10//51 15//2
f 43//51 42//2 38//37 44//51
f 53//51 52//2 48//44 54//51
f 58//5 64//51 63//51 62//2
f 35//51 34//2 30//1 36//55
f 73//51 72//2 68//31 74//51
f 83//51 82//2 78//29 84//51
f 88//23 94//51 93//51 92//2
f 23//51 22//2 18//9 24//53
f 103//51 102//2 98//19 104//51
f 111//2 108//15 113//51 114//51
