# Blender 3.6.2
# www.blender.org
mtllib child_wheel_pillow.mtl
o Cube
v -0.496796 0.286753 0.743097 0.4980 0.4980 0.4980
v -0.533985 0.463187 0.780286 0.4980 0.4980 0.4980
v -0.496796 0.286753 -0.250495 0.4980 0.4980 0.4980
v -0.533985 0.463187 -0.287684 0.4980 0.4980 0.4980
v 0.496796 0.286753 0.743097 1.0000 1.0000 1.0000
v 0.533985 0.463187 0.780286 1.0000 1.0000 1.0000
v 0.496796 0.286753 -0.250495 1.0000 1.0000 1.0000
v 0.533985 0.463187 -0.287684 1.0000 1.0000 1.0000
v -0.533985 0.463187 0.780286 1.0000 1.0000 1.0000
v -0.533985 0.463187 -0.287684 1.0000 1.0000 1.0000
v 0.533985 0.463187 0.780286 1.0000 1.0000 1.0000
v 0.533985 0.463187 -0.287684 1.0000 1.0000 1.0000
vn -0.9785 -0.2062 -0.0000
vn 0.9785 -0.2062 -0.0000
vn -0.0000 -0.2062 0.9785
vn -0.0000 1.0000 -0.0000
s 0
f 1//1 2//1 4//1 3//1
f 7//2 8//2 6//2 5//2
f 5//3 6//3 2//3 1//3
f 12//4 10//4 9//4 11//4
