# Blender 3.6.2
# www.blender.org
mtllib child_wheel_alt.mtl
o Cylinder
v 1.000000 0.000000 0.400000 1.0000 1.0000 1.0000
v 1.000000 2.200000 0.400000 1.0000 1.0000 1.0000
v 0.400000 0.000000 1.000000 1.0000 1.0000 1.0000
v 0.400000 2.200000 1.000000 1.0000 1.0000 1.0000
v -0.400000 0.000000 1.000000 1.0000 1.0000 1.0000
v -0.400000 2.200000 1.000000 1.0000 1.0000 1.0000
v -1.000000 0.000000 0.400000 1.0000 1.0000 1.0000
v -1.000000 2.200000 0.400000 1.0000 1.0000 1.0000
v -1.000000 0.000000 -0.400000 1.0000 1.0000 1.0000
v -1.000000 2.200000 -0.400000 1.0000 1.0000 1.0000
v -0.400000 0.000000 -1.000000 1.0000 1.0000 1.0000
v -0.400000 2.200000 -1.000000 1.0000 1.0000 1.0000
v 0.400000 0.000000 -1.000000 1.0000 1.0000 1.0000
v 0.400000 2.200000 -1.000000 1.0000 1.0000 1.0000
v 1.000000 0.000000 -0.400000 1.0000 1.0000 1.0000
v 1.000000 2.200000 -0.400000 1.0000 1.0000 1.0000
v 1.000000 0.300000 0.400000 1.0000 1.0000 1.0000
v 0.400000 0.300000 1.000000 1.0000 1.0000 1.0000
v -0.400000 0.300000 1.000000 1.0000 1.0000 1.0000
v -1.000000 0.300000 0.400000 1.0000 1.0000 1.0000
v -1.000000 0.300000 -0.400000 1.0000 1.0000 1.0000
v -0.400000 0.300000 -1.000000 1.0000 1.0000 1.0000
v 0.400000 0.300000 -1.000000 1.0000 1.0000 1.0000
v 1.000000 0.300000 -0.400000 1.0000 1.0000 1.0000
v 1.000000 1.900000 0.400000 1.0000 1.0000 1.0000
v 0.400000 1.900000 1.000000 1.0000 1.0000 1.0000
v -0.400000 1.900000 1.000000 1.0000 1.0000 1.0000
v -1.000000 1.900000 0.400000 1.0000 1.0000 1.0000
v -1.000000 1.900000 -0.400000 1.0000 1.0000 1.0000
v -0.400000 1.900000 -1.000000 1.0000 1.0000 1.0000
v 0.400000 1.900000 -1.000000 1.0000 1.0000 1.0000
v 1.000000 1.900000 -0.400000 1.0000 1.0000 1.0000
v 0.700000 0.000000 0.700000 1.0000 1.0000 1.0000
v 0.700000 2.200000 0.700000 1.0000 1.0000 1.0000
v 0.700000 0.300000 0.700000 1.0000 1.0000 1.0000
v 0.700000 1.900000 0.700000 1.0000 1.0000 1.0000
v -0.700000 0.000000 0.700000 1.0000 1.0000 1.0000
v -0.700000 2.200000 0.700000 1.0000 1.0000 1.0000
v -0.700000 0.300000 0.700000 1.0000 1.0000 1.0000
v -0.700000 1.900000 0.700000 1.0000 1.0000 1.0000
v 0.700000 0.300000 0.700000 0.7490 0.7490 0.7490
v 0.700000 1.900000 0.700000 0.7490 0.7490 0.7490
v -0.700000 0.300000 0.700000 0.7490 0.7490 0.7490
v -0.700000 1.900000 0.700000 0.7490 0.7490 0.7490
v 0.700000 0.300000 -0.300000 0.7490 0.7490 0.7490
v 0.700000 1.900000 -0.300000 0.7490 0.7490 0.7490
v -0.700000 0.300000 -0.300000 0.7490 0.7490 0.7490
v -0.700000 1.900000 -0.300000 0.7490 0.7490 0.7490
v 0.400000 0.300000 1.000000 0.0000 0.0000 0.0000
v -0.400000 0.300000 1.000000 0.0000 0.0000 0.0000
v 0.700000 0.300000 0.700000 0.0000 0.0000 0.0000
v -0.700000 0.300000 0.700000 0.0000 0.0000 0.0000
v 0.700000 0.300000 -0.400000 0.0000 0.0000 0.0000
v -0.700000 0.300000 -0.400000 0.0000 0.0000 0.0000
v 1.000000 2.200000 0.400000 1.0000 1.0000 1.0000
v 0.400000 2.200000 1.000000 1.0000 1.0000 1.0000
v -0.400000 2.200000 1.000000 1.0000 1.0000 1.0000
v -1.000000 2.200000 0.400000 1.0000 1.0000 1.0000
v -1.000000 2.200000 -0.400000 1.0000 1.0000 1.0000
v -0.400000 2.200000 -1.000000 1.0000 1.0000 1.0000
v 0.400000 2.200000 -1.000000 1.0000 1.0000 1.0000
v 1.000000 2.200000 -0.400000 1.0000 1.0000 1.0000
v -0.276085 1.100000 -0.200000 1.0000 1.0000 1.0000
v -0.276085 1.700000 -0.200000 1.0000 1.0000 1.0000
v 0.276085 1.700000 -0.200000 1.0000 1.0000 1.0000
v 0.276085 1.100000 -0.200000 1.0000 1.0000 1.0000
vn 0.7071 -0.0000 0.7071
vn -0.0000 -0.0000 1.0000
vn -0.7071 -0.0000 0.7071
vn -1.0000 -0.0000 -0.0000
vn -0.7071 -0.0000 -0.7071
vn -0.0000 -0.0000 -1.0000
vn 0.7071 -0.0000 -0.7071
vn 1.0000 -0.0000 -0.0000
vn -0.0000 1.0000 -0.0000
vt 0.604167 0.875000
vt 0.604167 0.968750
vt 0.562500 0.968750
vt 0.562500 0.875000
vt 0.489583 0.968750
vt 0.489583 0.875000
vt 0.447917 0.875000
vt 0.447917 0.968750
vt 0.416667 0.968750
vt 0.416667 0.875000
vt 0.333333 0.968750
vt 0.333333 0.875000
vt 0.250000 0.968750
vt 0.250000 0.875000
vt 0.177083 0.968750
vt 0.177083 0.875000
vt 1.000000 0.500000
vt 0.833333 0.500000
vt 0.833333 0.250000
vt 1.000000 0.250000
vt 0.104167 0.968750
vt 0.104167 0.875000
vt 0.020833 0.968750
vt 0.020833 0.875000
vt 0.104167 0.031250
vt 0.104167 0.125000
vt 0.020833 0.125000
vt 0.020833 0.031250
vt 0.177083 0.031250
vt 0.177083 0.125000
vt 0.250000 0.031250
vt 0.250000 0.125000
vt 0.333333 0.031250
vt 0.333333 0.125000
vt 0.416667 0.031250
vt 0.416667 0.125000
vt 0.447917 0.031250
vt 0.447917 0.125000
vt 0.562500 0.031250
vt 0.562500 0.125000
vt 0.489583 0.125000
vt 0.489583 0.031250
vt 0.604167 0.031250
vt 0.604167 0.125000
vt 0.645833 0.125000
vt 0.645833 0.875000
vt 0.645833 0.031250
vt 0.645833 0.968750
vt 0.031250 0.687500
vt 0.031250 0.312500
vt 0.635417 0.312500
vt 0.635417 0.687500
vt 0.031250 0.031250
vt 0.635417 0.031250
vt 0.635417 0.968750
vt 0.031250 0.968750
vt 0.510243 0.000081
vt 0.510243 0.999919
vt 0.000081 0.999920
vt 0.000081 0.000081
vt 0.648292 0.792846
vt 0.648292 0.207154
vt 0.666639 0.707073
vt 0.471409 0.999918
vt 0.195312 0.999918
vt 0.000082 0.707073
vt 0.000082 0.292927
vt 0.195312 0.000082
vt 0.471409 0.000082
vt 0.666639 0.292927
s 0
usemtl Material
f 36/1/1 34/2/1 4/3/1 26/4/1
f 26/4/2 4/3/2 6/5/2 27/6/2
f 40/7/3 38/8/3 8/9/3 28/10/3
f 28/10/4 8/9/4 10/11/4 29/12/4
f 29/12/5 10/11/5 12/13/5 30/14/5
f 30/14/6 12/13/6 14/15/6 31/16/6
f 65/17/2 64/18/2 63/19/2 66/20/2
f 31/16/7 14/15/7 16/21/7 32/22/7
f 32/22/8 16/21/8 2/23/8 25/24/8
f 15/25/8 24/26/8 17/27/8 1/28/8
f 13/29/7 23/30/7 24/26/7 15/25/7
f 11/31/6 22/32/6 23/30/6 13/29/6
f 9/33/5 21/34/5 22/32/5 11/31/5
f 7/35/4 20/36/4 21/34/4 9/33/4
f 37/37/3 39/38/3 20/36/3 7/35/3
f 3/39/2 18/40/2 19/41/2 5/42/2
f 33/43/1 35/44/1 18/40/1 3/39/1
f 24/26/8 32/22/8 25/24/8 17/27/8
f 23/30/7 31/16/7 32/22/7 24/26/7
f 22/32/6 30/14/6 31/16/6 23/30/6
f 21/34/5 29/12/5 30/14/5 22/32/5
f 20/36/4 28/10/4 29/12/4 21/34/4
f 39/38/3 40/7/3 28/10/3 20/36/3
f 17/45/1 25/46/1 36/1/1 35/44/1
f 1/47/1 17/45/1 35/44/1 33/43/1
f 25/46/1 2/48/1 34/2/1 36/1/1
f 5/42/3 19/41/3 39/38/3 37/37/3
f 27/6/3 6/5/3 38/8/3 40/7/3
f 47/49/2 45/50/2 46/51/2 48/52/2
f 41/53/4 42/54/4 46/51/4 45/50/4
f 44/55/8 43/56/8 47/49/8 48/52/8
f 52/57/9 51/58/9 53/59/9 54/60/9
f 49/61/9 51/58/9 52/57/9 50/62/9
f 56/63/9 55/64/9 62/65/9 61/66/9 60/67/9 59/68/9 58/69/9 57/70/9
