# Blender v2.79 (sub 0) OBJ File: 'child_library.blend'
# www.blender.org
o Easel_Cube.002
v 1.687702 0.000884 -5.019391
v 1.388767 2.097884 -4.461470
v 1.247705 2.097884 -4.542913
v 1.546640 0.000884 -5.100833
v 1.444766 2.097884 -4.558464
v 1.303704 2.097884 -4.639905
v 1.634154 0.000884 -3.807816
v 1.596331 2.160884 -4.340797
v 1.464733 2.167701 -4.421740
v 1.502556 0.007701 -3.888757
v 1.652330 2.160884 -4.437791
v 1.519385 2.156769 -4.514743
v 0.678672 0.008641 -4.364429
v 1.172634 2.168641 -4.592103
v 1.040546 2.160884 -4.662698
v 0.546585 0.000884 -4.435023
v 1.228633 2.168642 -4.689096
v 1.096545 2.160884 -4.759691
v 0.346412 0.613526 -4.655766
v 2.025166 0.597897 -3.800251
v 0.395651 0.597897 -4.741052
v 1.959997 0.489079 -3.687375
v 0.330482 0.489079 -4.628176
v 1.665799 2.043884 -4.366188
v 1.650799 2.097884 -4.340207
v 1.011673 2.097884 -4.709207
v 1.026672 2.043884 -4.735188
v 1.041672 2.097884 -4.761169
v 1.680799 2.097884 -4.392169
v 1.634154 0.000884 -3.807815
v 1.596332 2.160885 -4.340799
v 1.652330 2.160885 -4.437791
v 1.704153 0.000884 -3.929057
v 0.678672 0.008641 -4.364429
v 1.172635 2.168642 -4.592103
v 1.228633 2.168642 -4.689096
v 0.748670 0.008641 -4.485673
v 1.650799 2.097888 -4.340207
v 1.665799 2.043888 -4.366188
v 1.680799 2.097888 -4.392169
v 1.687702 0.000884 -5.019391
v 1.388767 2.097884 -4.461471
v 1.444766 2.097884 -4.558463
v 1.757700 0.000884 -5.140632
vn -0.4787 -0.2888 0.8291
vn 0.0000 1.0000 0.0000
vn -0.5060 0.1983 0.8394
vn 0.0330 0.9987 -0.0382
vn -0.4710 0.1983 0.8595
vn -0.0448 0.9987 -0.0259
vn 0.0784 0.9876 -0.1357
vn -0.3897 0.5707 0.7228
vn -0.4371 -0.4856 0.7570
vn 0.8660 -0.0096 0.5000
vn 0.8578 0.1372 0.4953
vn 0.8570 -0.1438 0.4948
vn 0.8660 0.0000 0.5000
s 1
f 1//1 2//1 3//1 4//1
f 3//2 2//2 5//2 6//2
f 7//3 8//3 9//3 10//3
f 11//4 12//4 9//4 8//4
f 13//5 14//5 15//5 16//5
f 17//6 18//6 15//6 14//6
f 19//7 20//7 21//7
f 22//8 20//8 19//8 23//8
f 24//9 25//9 26//9 27//9
f 41//10 44//10 43//10 42//10
f 26//2 25//2 29//2 28//2
f 30//11 33//11 32//11 31//11
f 34//12 37//12 36//12 35//12
f 39//13 40//13 38//13
