# Blender 3.6.2
# www.blender.org
mtllib child_library_table.mtl
o Table
v -2.930031 0.875422 -8.587932 0.2510 0.1373 0.0471
v -2.727261 1.135422 -8.628694 0.2510 0.1373 0.0471
v -2.741996 1.135422 -10.457102 0.0118 0.0078 0.0039
v -0.137365 0.875422 -8.587932 0.2510 0.1373 0.0471
v -0.152409 1.135422 -8.628694 0.2510 0.1373 0.0471
v -0.137365 0.875422 -10.497864 0.0118 0.0078 0.0039
v -0.152409 1.135422 -10.457102 0.0118 0.0078 0.0039
v -2.563110 -0.016963 -9.001998 0.2510 0.1373 0.0471
v -2.563110 0.870070 -9.001998 0.0118 0.0078 0.0039
v -2.309286 -0.016963 -9.001998 0.2510 0.1373 0.0471
v -2.309286 0.870070 -9.001998 0.0118 0.0078 0.0039
v -2.309286 -0.016963 -9.255822 0.2510 0.1373 0.0471
v -2.309286 0.870070 -9.255822 0.0118 0.0078 0.0039
v -2.563110 -0.016963 -9.929976 0.2510 0.1373 0.0471
v -2.563110 0.870070 -9.929976 0.0118 0.0078 0.0039
v -2.309286 -0.016963 -9.929976 0.2510 0.1373 0.0471
v -2.309286 0.870070 -9.929976 0.0118 0.0078 0.0039
v -2.309286 -0.016963 -10.183801 0.2510 0.1373 0.0471
v -2.309286 0.870070 -10.183801 0.0118 0.0078 0.0039
v -0.638716 -0.016963 -9.001998 0.2510 0.1373 0.0471
v -0.638716 0.870070 -9.001998 0.0118 0.0078 0.0039
v -0.638716 -0.016963 -9.255822 0.2510 0.1373 0.0471
v -0.638716 0.870070 -9.255822 0.2510 0.1373 0.0471
v -0.384892 -0.016963 -9.001998 0.2510 0.1373 0.0471
v -0.384892 0.870070 -9.001998 0.0118 0.0078 0.0039
v -0.384892 -0.016963 -9.255822 0.2510 0.1373 0.0471
v -0.384892 0.870070 -9.255822 0.0118 0.0078 0.0039
v -0.638716 -0.016963 -9.929976 0.2510 0.1373 0.0471
v -0.638716 0.870070 -9.929976 0.0118 0.0078 0.0039
v -0.638716 -0.016963 -10.183801 0.2510 0.1373 0.0471
v -0.638716 0.870070 -10.183801 0.1255 0.0706 0.0235
v -0.384892 -0.016963 -9.929976 0.2510 0.1373 0.0471
v -0.384892 0.870070 -9.929976 0.0118 0.0078 0.0039
v -0.384892 -0.016963 -10.183801 0.2510 0.1373 0.0471
v -0.384892 0.870070 -10.183801 0.0118 0.0078 0.0039
vn 0.9983 0.0578 -0.0000
vn -0.0000 0.1549 0.9879
vn -0.0000 1.0000 -0.0000
vn 1.0000 -0.0000 -0.0000
vn -0.0000 -0.0000 1.0000
vn -1.0000 -0.0000 -0.0000
s 0
f 6//1 7//1 5//1 4//1
f 4//2 5//2 2//2 1//2
f 7//3 3//3 2//3 5//3
f 12//4 13//4 11//4 10//4
f 10//5 11//5 9//5 8//5
f 18//4 19//4 17//4 16//4
f 16//5 17//5 15//5 14//5
f 20//6 21//6 23//6 22//6
f 26//4 27//4 25//4 24//4
f 24//5 25//5 21//5 20//5
f 28//6 29//6 31//6 30//6
f 34//4 35//4 33//4 32//4
f 32//5 33//5 29//5 28//5
