# Blender 3.6.2
# www.blender.org
o Cube.001
v -0.513789 -0.081015 1.415362 0.5373 0.5333 0.7137
v -0.513789 0.173804 1.415362 1.0000 1.0000 1.0000
v -0.513789 0.046394 -1.078099 0.5373 0.5333 0.7137
v -0.513789 0.173804 -1.415362 1.0000 1.0000 1.0000
v 0.513789 -0.081015 1.415362 0.5373 0.5333 0.7137
v 0.513789 0.173804 1.415362 1.0000 1.0000 1.0000
v 0.513789 0.046394 -1.078099 0.5373 0.5333 0.7137
v 0.513789 0.173804 -1.415362 1.0000 1.0000 1.0000
v -0.513789 -0.081015 -0.000000 0.5373 0.5333 0.7137
v -0.513789 0.173804 0.000000 1.0000 1.0000 1.0000
v 0.513789 -0.081015 0.000000 0.5373 0.5333 0.7137
v 0.513789 0.173804 -0.000000 1.0000 1.0000 1.0000
v -0.513789 0.173804 1.415362 1.0000 1.0000 1.0000
v -0.513789 0.173804 -1.415362 1.0000 1.0000 1.0000
v 0.513789 0.173804 1.415362 1.0000 1.0000 1.0000
v 0.513789 0.173804 -1.415362 1.0000 1.0000 1.0000
v -0.513789 0.173804 1.415362 0.5373 0.5333 0.7137
v -0.513789 -0.081015 1.415362 0.5373 0.5333 0.7137
v 0.513789 -0.081015 1.415362 0.5373 0.5333 0.7137
v 0.513789 0.173804 1.415362 0.5373 0.5333 0.7137
vn -1.0000 -0.0000 -0.0000
vn 1.0000 -0.0000 -0.0000
vn -0.0000 1.0000 -0.0000
vn -0.0000 -0.0000 1.0000
s 0
f 9//1 10//1 4//1 3//1
f 11//2 12//2 6//2 5//2
f 16//3 14//3 13//3 15//3
f 19//4 20//4 17//4 18//4
f 7//2 8//2 12//2 11//2
f 1//1 2//1 10//1 9//1
