# Blender 3.6.2
# www.blender.org
o ent_prop.001
v 0.037865 0.000000 0.044690 1.0000 1.0000 1.0000
v 0.037865 0.762001 0.044690 1.0000 1.0000 1.0000
v -0.037865 0.000000 0.044690 1.0000 1.0000 1.0000
v -0.037865 0.762001 0.044690 1.0000 1.0000 1.0000
v 0.037865 -0.000000 -0.044690 1.0000 1.0000 1.0000
v 0.037865 0.762001 -0.044690 1.0000 1.0000 1.0000
v -0.037865 -0.000000 -0.044690 1.0000 1.0000 1.0000
v -0.037865 0.762001 -0.044690 1.0000 1.0000 1.0000
v 0.527199 0.762001 -0.044690 1.0000 1.0000 1.0000
v 0.527199 0.762001 0.044690 1.0000 1.0000 1.0000
v 0.527199 1.512384 -0.044690 1.0000 1.0000 1.0000
v 0.527199 1.512384 0.044690 1.0000 1.0000 1.0000
v -0.527199 1.512384 -0.044690 0.3804 0.3804 0.3804
v -0.527199 1.512384 0.044690 0.3804 0.3804 0.3804
v -0.527199 0.762001 -0.044690 0.3804 0.3804 0.3804
v -0.527199 0.762001 0.044690 0.3804 0.3804 0.3804
v -0.494862 1.437172 0.044690 0.3804 0.3804 0.3804
v -0.494862 0.762001 0.044690 0.3804 0.3804 0.3804
v 0.527199 1.512384 0.044690 1.0000 1.0000 1.0000
v 0.494862 1.437172 0.044690 1.0000 1.0000 1.0000
v 0.527199 0.762001 0.044690 1.0000 1.0000 1.0000
v 0.494862 0.762001 0.044690 1.0000 1.0000 1.0000
v -0.494862 1.437172 0.044690 0.8556 0.7745 0.9000
v -0.494862 0.762001 0.044690 0.8556 0.7745 0.9000
v 0.494862 1.437172 0.044690 0.8857 0.7703 0.8899
v 0.494862 0.762001 0.044690 0.8777 0.7765 0.9058
v 0.037865 0.000000 0.044690 0.8935 0.7691 0.8870
v 0.037865 0.762001 0.044690 0.8562 0.7744 0.8998
v -0.037865 0.000000 0.044690 0.8860 0.7728 0.8965
v -0.037865 0.762001 0.044690 0.8556 0.7745 0.9000
vn -1.0000 -0.0000 -0.0000
vn -0.5735 -0.8192 -0.0001
vn -0.5735 -0.8192 -0.0000
vn 0.5735 -0.8192 -0.0000
vn 1.0000 -0.0000 -0.0000
vn 0.5735 -0.8192 0.0001
vn 0.4975 -0.7107 -0.4975
vn 0.4975 0.7106 -0.4975
vn 0.5735 0.8192 0.0002
vn -0.4975 0.7107 -0.4975
vn -0.4981 0.7098 0.4981
vn -0.7071 -0.0003 -0.7071
vn -0.6507 -0.0251 0.7590
vn -0.0000 -0.0000 1.0000
s 1
f 3//1 4//2 8//3 7//1
f 2//4 1//5 5//5 6//6
f 10//4 9//7 11//8 12//9
f 12//9 11//8 13//10 14//11
f 14//11 13//10 15//12 16//13
f 14//11 16//13 18//14 17//14
f 14//11 17//14 20//14 19//14
f 19//14 20//14 22//14 21//14
f 24//14 26//14 25//14 23//14
f 27//14 28//14 30//14 29//14
