# Blender 3.6.2
# www.blender.org
o ec_switch_0
v 0.692093 0.447834 -0.000000 1.0000 0.8470 0.9058
v 0.641059 0.508271 -0.000000 1.0000 0.8470 0.9058
v 0.664881 0.364465 -0.000000 1.0000 0.8470 0.9058
v 0.554309 0.495412 -0.000000 1.0000 0.8470 0.9058
v 0.569625 0.361678 -0.000000 1.0000 0.8470 0.9058
v 0.535603 0.401970 -0.000000 1.0000 0.8470 0.9058
v 0.183852 -0.046191 0.000000 1.0000 0.5804 0.8549
v 0.216951 -0.073001 0.000000 1.0000 0.5804 0.8549
v -0.003365 0.406993 0.189844 0.1059 0.0941 0.2118
v -0.003365 -0.447955 0.189844 0.1059 0.0941 0.2118
v 0.228666 -0.457234 0.210938 0.4651 0.4146 0.9132
v 0.228666 0.416888 0.210937 0.4646 0.4142 0.9123
v -0.003365 0.406993 -0.189844 0.1059 0.0941 0.2118
v 0.228666 -0.457234 -0.210937 0.4651 0.4146 0.9133
v -0.003365 -0.447955 -0.189844 0.1059 0.0941 0.2118
v 0.228666 0.416888 -0.210938 0.4650 0.4145 0.9131
v 0.216951 -0.073001 0.000000 0.9793 0.5706 0.8610
v 0.183852 -0.046191 0.000000 0.9994 0.5801 0.8551
v 0.535603 0.401970 -0.000000 1.0000 0.8470 0.9058
v 0.569625 0.361678 -0.000000 1.0000 0.8470 0.9058
v 0.554309 0.495412 -0.000000 1.0000 0.8470 0.9058
v 0.664881 0.364465 -0.000000 1.0000 0.8470 0.9058
v 0.641059 0.508271 -0.000000 1.0000 0.8470 0.9058
v 0.692093 0.447834 -0.000000 1.0000 0.8470 0.9058
vn -0.0000 -0.0000 -1.0000
vn 0.5422 0.5855 0.6026
vn -0.0935 0.7154 0.6924
vn -0.0915 -0.7161 0.6919
vn 0.5428 -0.5848 0.6028
vn -0.0915 -0.7161 -0.6919
vn 0.5428 -0.5848 -0.6028
vn 0.5422 0.5855 -0.6026
vn -0.0935 0.7154 -0.6924
vn -0.0000 -0.0000 1.0000
s 1
f 5//1 8//1 7//1 6//1
f 2//1 1//1 3//1
f 6//1 4//1 5//1
f 4//1 2//1 3//1 5//1
f 12//2 9//3 10//4 11//5
f 15//6 14//7 11//5 10//4
f 16//8 14//7 15//6 13//9
f 12//2 16//8 13//9 9//3
f 16//8 12//2 11//5 14//7
f 21//10 20//10 22//10 23//10
f 19//10 20//10 21//10
f 23//10 22//10 24//10
f 20//10 19//10 18//10 17//10
