# Blender 4.0.0
# www.blender.org
o Cube.002
v -0.084928 0.000000 0.084928 0.0000 0.0000 0.4980
v -0.084928 1.860530 0.084928 0.1412 0.1412 0.1412
v -0.084928 0.000000 -0.084928 0.0000 0.0000 0.2510
v -0.084928 1.860530 -0.084928 0.1255 0.1255 0.1255
v 0.084928 0.000000 0.084928 0.0000 0.0000 0.4980
v 0.084928 1.860530 0.084928 0.1412 0.1412 0.1412
v 0.084928 0.000000 -0.084928 0.0000 0.0000 0.2510
v 0.084928 1.860530 -0.084928 0.1294 0.1294 0.1294
v -0.640240 1.860530 0.084928 0.1255 0.1255 0.1255
v -0.640240 1.860530 -0.084928 0.1255 0.1255 0.1255
v 0.640239 1.860530 -0.084928 0.1255 0.1255 0.1255
v 0.640239 1.860530 0.084928 0.1255 0.1255 0.1255
v -0.640240 3.145671 0.084928 0.1098 0.1098 0.2549
v -0.640240 3.145671 -0.084928 0.0824 0.0824 0.2980
v 0.640239 3.145671 -0.084928 0.0667 0.0667 0.3098
v 0.640239 3.145671 0.084928 0.0941 0.0941 0.2863
v -0.084928 0.000000 0.084928 0.0000 0.0000 0.2510
v -0.084928 1.860530 0.084928 0.1255 0.1255 0.1255
v 0.084928 1.860530 0.084928 0.1255 0.1255 0.1255
v 0.084928 0.000000 0.084928 0.0000 0.0000 0.2510
vn -1.0000 -0.0000 -0.0000
vn 1.0000 -0.0000 -0.0000
vn -0.0000 -0.0000 1.0000
vn -0.0000 1.0000 -0.0000
s 0
f 17//1 18//1 4//1 3//1
f 7//2 8//2 19//2 20//2
f 5//3 6//3 2//3 1//3
f 15//4 14//4 13//4 16//4
f 12//2 11//2 15//2 16//2
f 10//1 9//1 13//1 14//1
