# Blender 4.0.0
# www.blender.org
o treadmill
v -0.457031 0.117188 0.656250 0.1412 0.1412 0.1412
v 0.457031 0.117188 0.656250 0.1412 0.1412 0.1412
v 0.457031 0.117187 -0.656250 0.1412 0.1412 0.1412
v -0.457031 0.117187 -0.656250 0.1412 0.1412 0.1412
v 0.457031 0.117188 0.656250 0.3216 0.3216 0.3216
v 0.410156 0.000000 0.632813 0.3216 0.3216 0.3216
v 0.410156 -0.000000 -0.632812 0.1412 0.1412 0.1412
v 0.457031 0.117187 -0.656250 0.1412 0.1412 0.1412
v -0.457031 0.117188 0.656250 0.1412 0.1412 0.1412
v -0.410156 -0.000000 -0.632813 0.1412 0.1412 0.1412
v -0.410156 0.000000 0.632812 0.1412 0.1412 0.1412
v -0.457031 0.117187 -0.656250 0.1412 0.1412 0.1412
vn -0.9285 -0.3714 -0.0000
vn -0.0000 1.0000 -0.0000
vn 0.9285 -0.3714 -0.0000
vn -0.0000 -0.1961 0.9806
s 0
f 9//1 12//1 10//1 11//1
f 4//2 1//2 2//2 3//2
f 8//3 5//3 6//3 7//3
f 9//4 11//4 6//4 5//4
