# Blender v2.79 (sub 0) OBJ File: ''
# www.blender.org
mtllib layer1.mtl
o Cube
v 1.500000 0.000000 -0.500000
v 1.500000 -0.000000 0.500000
v 2.500000 -0.000000 0.500000
v 2.500000 0.000000 -0.500000
v 1.500000 -1.000000 0.500000
v 2.500000 -1.000000 0.500000
v 3.500000 0.000001 -0.500000
v 3.500000 0.000001 0.500000
v 4.500000 0.000001 0.500000
v 4.500000 0.000001 -0.500000
v 3.500000 -0.999999 -0.500000
v 3.500000 -0.999999 0.500000
v 5.500000 0.000001 -0.500000
v 5.500000 0.000001 0.500000
v 6.500000 0.000001 0.500000
v 6.500000 0.000001 -0.500000
v 6.500000 -0.999999 0.500000
v 6.500000 -0.999999 -0.500000
v 6.500000 0.000001 -0.500000
v 6.500000 -0.999999 -0.500000
v 6.500000 -0.999999 0.500000
v 6.500000 0.000001 0.500000
v 3.500000 0.000001 0.500000
v 3.500000 -0.999999 0.500000
v 3.500000 -0.999999 -0.500000
v 3.500000 0.000001 -0.500000
v 10.500000 1.000002 -0.500000
v 10.500000 1.000002 0.500000
v 10.500000 0.000002 0.500000
v 10.500000 0.000002 -0.500000
v 10.500000 1.000002 -0.500000
v 10.500000 0.000002 -0.500000
v 10.500000 0.000002 0.500000
v 10.500000 1.000002 0.500000
v 7.500000 1.000001 -0.500000
v 7.500000 1.000001 0.500000
v 8.500000 1.000001 0.500000
v 8.500000 1.000001 -0.500000
v 8.500000 0.000001 0.500000
v 8.500000 0.000001 -0.500000
v 8.500000 1.000001 -0.500000
v 8.500000 0.000001 -0.500000
v 8.500000 0.000001 0.500000
v 8.500000 1.000001 0.500000
v 11.500000 1.000002 -0.499999
v 11.500000 0.000002 -0.499999
v 11.500000 0.000002 0.500000
v 11.500000 1.000002 0.500000
v 11.500000 1.000002 -1.500000
v 11.500000 0.000002 -1.500000
v 11.500000 0.000002 -0.499999
v 11.500000 1.000002 -0.499999
v 11.500000 1.000002 -2.500000
v 11.500000 0.000002 -2.500000
v 11.500000 0.000002 -1.500000
v 11.500000 1.000002 -1.500000
v 12.500000 1.000002 -0.499999
v 11.500000 1.000002 -0.499999
v 11.500000 1.000002 0.500000
v 12.500000 1.000002 0.500001
v 12.500000 1.000002 -1.499999
v 11.500000 1.000002 -1.500000
v 11.500000 1.000002 -0.499999
v 12.500000 1.000002 -0.499999
v 12.500000 1.000002 -2.500000
v 11.500000 1.000002 -2.500000
v 11.500000 1.000002 -1.500000
v 12.500000 1.000002 -1.499999
v 12.500000 0.000002 -0.499999
v 12.500000 1.000002 -0.499999
v 12.500000 1.000002 0.500001
v 12.500000 0.000002 0.500001
v 12.500000 0.000002 -1.499999
v 12.500000 1.000002 -1.499999
v 12.500000 1.000002 -0.499999
v 12.500000 0.000002 -0.499999
v 12.500000 0.000002 -2.500000
v 12.500000 1.000002 -2.500000
v 12.500000 1.000002 -1.499999
v 12.500000 0.000002 -1.499999
v 15.500000 0.000003 -0.499999
v 15.500000 0.000003 0.500001
v 16.500000 0.000003 0.500001
v 16.500000 0.000003 -0.499999
v 13.500000 0.000002 -0.499999
v 14.500000 0.000002 -0.499999
v 14.500000 1.000002 -0.499999
v 13.500000 1.000002 -0.499999
v 17.500000 0.000003 -0.499999
v 17.500000 0.000003 0.500001
v 18.500000 0.000003 0.500001
v 18.500000 0.000003 -0.499999
v 19.500000 0.000003 -0.499999
v 19.500000 0.000003 0.500001
v 20.500000 0.000003 0.500001
v 20.500000 0.000003 -0.499999
v 15.500000 1.000003 -0.499999
v 15.500000 1.000003 0.500001
v 15.500000 0.000003 0.500001
v 15.500000 0.000003 -0.499999
v 15.500000 1.000003 -0.499999
v 15.500000 0.000003 -0.499999
v 15.500000 0.000003 0.500001
v 15.500000 1.000003 0.500001
v 21.500000 0.000004 -0.499999
v 21.500000 0.000004 0.500001
v 22.500000 0.000004 0.500001
v 22.500000 0.000004 -0.499999
v 23.500000 1.000004 -0.499999
v 23.500000 1.000004 0.500001
v 23.500000 0.000004 0.500001
v 23.500000 0.000004 -0.499999
v 23.500000 1.000004 -0.499999
v 23.500000 0.000004 -0.499999
v 23.500000 0.000004 0.500001
v 23.500000 1.000004 0.500001
v 23.500000 1.000004 -0.499999
v 23.500000 0.000004 -0.499999
v 24.500000 0.000004 -0.499999
v 24.500000 1.000004 -0.499999
v 25.500000 1.000004 -0.499999
v 25.500000 0.000004 -0.499999
v 26.500000 0.000004 -0.499999
v 26.500000 1.000004 -0.499999
v 27.500000 1.000005 -0.499999
v 27.500000 0.000004 -0.499999
v 28.500000 0.000005 -0.499999
v 28.500000 1.000005 -0.499999
v 29.500000 1.000005 -0.499999
v 29.500000 0.000005 -0.499999
v 30.500000 0.000005 -0.499999
v 30.500000 1.000005 -0.499999
v 31.500000 1.000005 -0.499999
v 31.500000 1.000005 0.500001
v 31.500000 0.000005 0.500001
v 31.500000 0.000005 -0.499999
v 31.500000 1.000005 -0.499999
v 31.500000 0.000005 -0.499999
v 31.500000 0.000005 0.500001
v 31.500000 1.000005 0.500001
v 31.500000 1.000005 -0.499999
v 31.500000 0.000005 -0.499999
v 32.500000 0.000005 -0.499999
v 32.500000 1.000005 -0.499999
v 13.500000 0.000002 -0.499999
v 13.500000 0.000002 0.500001
v 14.500000 0.000002 0.500001
v 14.500000 0.000002 -0.499999
v 37.500000 0.000006 -0.499998
v 37.500000 0.000006 0.500002
v 38.500000 0.000006 0.500002
v 38.500000 0.000006 -0.499998
v 33.500000 1.000005 -0.499999
v 33.500000 0.000005 -0.499999
v 33.500000 0.000005 0.500001
v 33.500000 1.000005 0.500001
v 33.500000 1.000005 -0.499999
v 33.500000 1.000005 0.500001
v 33.500000 0.000005 0.500001
v 33.500000 0.000005 -0.499999
v 37.500000 1.000006 -0.499998
v 37.500000 0.000006 -0.499998
v 38.500000 0.000006 -0.499998
v 38.500000 1.000006 -0.499998
v 35.500000 1.000006 -0.499998
v 35.500000 0.000006 -0.499998
v 35.500000 0.000006 0.500002
v 35.500000 1.000006 0.500002
v 35.500000 1.000006 -0.499998
v 35.500000 1.000006 0.500002
v 35.500000 0.000006 0.500002
v 35.500000 0.000006 -0.499998
v 39.500000 1.000006 -0.499998
v 39.500000 0.000006 -0.499998
v 40.500000 0.000007 -0.499998
v 40.500000 1.000007 -0.499998
v 49.500000 0.000008 -0.499998
v 49.500000 0.000008 0.500002
v 50.500000 0.000008 0.500002
v 50.500000 0.000008 -0.499998
v 50.500000 1.000008 -0.499998
v 50.500000 1.000008 0.500002
v 50.500000 0.000008 0.500002
v 50.500000 0.000008 -0.499998
v 50.500000 1.000008 -0.499998
v 50.500000 0.000008 -0.499998
v 50.500000 0.000008 0.500002
v 50.500000 1.000008 0.500002
v 51.500000 0.000008 -0.499998
v 51.500000 0.000008 0.500002
v 52.500000 0.000009 0.500002
v 52.500000 0.000009 -0.499998
v 37.500000 1.000006 -0.499998
v 37.500000 0.000006 -0.499998
v 37.500000 0.000006 0.500002
v 37.500000 1.000006 0.500002
v 37.500000 1.000006 -0.499998
v 37.500000 1.000006 0.500002
v 37.500000 0.000006 0.500002
v 37.500000 0.000006 -0.499998
v 53.500000 0.000009 -0.499998
v 53.500000 0.000009 0.500002
v 54.500000 0.000009 0.500002
v 54.500000 0.000009 -0.499998
v 56.500000 1.000009 -0.499998
v 56.500000 1.000009 0.500002
v 57.500000 1.000009 0.500003
v 57.500000 1.000009 -0.499997
v 56.500000 0.000009 -0.499998
v 57.500000 0.000009 -0.499997
v 57.500000 1.000009 -0.499997
v 56.500000 1.000009 -0.499998
v 58.500000 1.000010 -0.499997
v 58.500000 1.000010 0.500003
v 59.500000 1.000010 0.500003
v 59.500000 1.000010 -0.499997
v 58.500000 1.000010 -0.499997
v 58.500000 1.000010 0.500003
v 58.500000 0.000010 0.500003
v 58.500000 0.000010 -0.499997
v 58.500000 1.000010 -0.499997
v 58.500000 0.000010 -0.499997
v 58.500000 0.000010 0.500003
v 58.500000 1.000010 0.500003
v 60.500000 1.000010 -0.499997
v 60.500000 1.000010 0.500003
v 61.500000 1.000010 0.500003
v 61.500000 1.000010 -0.499997
v 62.500000 1.000010 -0.499997
v 62.500000 1.000010 0.500003
v 63.500000 1.000010 0.500003
v 63.500000 1.000010 -0.499997
v 64.500000 1.000010 -0.499997
v 64.500000 1.000010 0.500003
v 65.500000 1.000011 0.500003
v 65.500000 1.000011 -0.499997
v 66.500000 1.000011 -0.499997
v 66.500000 1.000011 0.500003
v 67.500000 1.000011 0.500003
v 67.500000 1.000011 -0.499997
v 68.500000 1.000011 -0.499997
v 68.500000 1.000011 0.500003
v 69.500000 1.000011 0.500003
v 69.500000 1.000011 -0.499997
v 69.500000 1.000011 -0.499997
v 69.500000 1.000011 0.500003
v 69.500000 0.000011 0.500003
v 69.500000 0.000011 -0.499997
v 69.500000 1.000011 -0.499997
v 69.500000 0.000011 -0.499997
v 69.500000 0.000011 0.500003
v 69.500000 1.000011 0.500003
vt 0.285714 0.777778
vt 0.285714 0.666667
vt 0.428571 0.666667
vt 0.428571 0.777778
vt 0.714286 0.888889
vt 0.571429 0.888889
vt 0.571429 0.777778
vt 0.714286 0.777778
vt 0.285714 0.777778
vt 0.285714 0.666667
vt 0.428571 0.666667
vt 0.428571 0.777778
vt 0.575893 0.888889
vt 0.718750 0.888889
vt 0.718750 0.777778
vt 0.575893 0.777778
vt 0.285714 0.777778
vt 0.285714 0.666667
vt 0.428571 0.666667
vt 0.428571 0.777778
vt 1.000000 0.222222
vt 0.857143 0.222222
vt 0.857143 0.111111
vt 1.000000 0.111111
vt 1.000000 0.222222
vt 1.000000 0.111111
vt 0.857143 0.111111
vt 0.857143 0.222222
vt 0.575893 0.888889
vt 0.575893 0.777778
vt 0.718750 0.777778
vt 0.718750 0.888889
vt 0.714286 0.888889
vt 0.571429 0.888889
vt 0.571429 0.777778
vt 0.714286 0.777778
vt 0.714286 0.888889
vt 0.714286 0.777778
vt 0.571429 0.777778
vt 0.571429 0.888889
vt 0.285714 0.777778
vt 0.285714 0.666667
vt 0.428571 0.666667
vt 0.428571 0.777778
vt 0.714286 0.888889
vt 0.571429 0.888889
vt 0.571429 0.777778
vt 0.714286 0.777778
vt 0.714286 0.888889
vt 0.714286 0.777778
vt 0.571429 0.777778
vt 0.571429 0.888889
vt 0.428571 0.555556
vt 0.428571 0.444444
vt 0.285714 0.444444
vt 0.285714 0.555556
vt 0.428571 0.555556
vt 0.428571 0.444444
vt 0.285714 0.444444
vt 0.285714 0.555556
vt 0.428571 0.555556
vt 0.428571 0.444444
vt 0.285714 0.444444
vt 0.285714 0.555556
vt 0.000000 1.000000
vt 0.142857 1.000000
vt 0.142857 0.888889
vt 0.000000 0.888889
vt 0.000000 1.000000
vt 0.142857 1.000000
vt 0.142857 0.888889
vt 0.000000 0.888889
vt 0.000000 1.000000
vt 0.142857 1.000000
vt 0.142857 0.888889
vt 0.000000 0.888889
vt 0.142857 0.555556
vt 0.142857 0.666667
vt 0.285714 0.666667
vt 0.285714 0.555556
vt 0.142857 0.555556
vt 0.142857 0.666667
vt 0.285714 0.666667
vt 0.285714 0.555556
vt 0.142857 0.555556
vt 0.142857 0.666667
vt 0.285714 0.666667
vt 0.285714 0.555556
vt 0.285714 0.777778
vt 0.285714 0.666667
vt 0.428571 0.666667
vt 0.428571 0.777778
vt 0.571429 0.777778
vt 0.714286 0.777778
vt 0.714286 0.888889
vt 0.571429 0.888889
vt 0.285714 0.777778
vt 0.285714 0.666667
vt 0.428571 0.666667
vt 0.428571 0.777778
vt 0.285714 0.777778
vt 0.285714 0.666667
vt 0.428571 0.666667
vt 0.428571 0.777778
vt 0.714286 0.888889
vt 0.571429 0.888889
vt 0.571429 0.777778
vt 0.714286 0.777778
vt 0.714286 0.888889
vt 0.714286 0.777778
vt 0.571429 0.777778
vt 0.571429 0.888889
vt 0.285714 0.777778
vt 0.285714 0.666667
vt 0.428571 0.666667
vt 0.428571 0.777778
vt 0.714286 0.888889
vt 0.571429 0.888889
vt 0.571429 0.777778
vt 0.714286 0.777778
vt 0.714286 0.888889
vt 0.714286 0.777778
vt 0.571429 0.777778
vt 0.571429 0.888889
vt 0.285714 0.777778
vt 0.285714 0.666667
vt 0.428571 0.666667
vt 0.428571 0.777778
vt 0.285714 0.777778
vt 0.285714 0.666667
vt 0.428571 0.666667
vt 0.428571 0.777778
vt 0.285714 0.777778
vt 0.285714 0.666667
vt 0.428571 0.666667
vt 0.428571 0.777778
vt 0.285714 0.777778
vt 0.285714 0.666667
vt 0.428571 0.666667
vt 0.428571 0.777778
vt 0.428571 0.777778
vt 0.285714 0.777778
vt 0.285714 0.666667
vt 0.428571 0.666667
vt 0.428571 0.777778
vt 0.428571 0.666667
vt 0.285714 0.666667
vt 0.285714 0.777778
vt 0.571429 0.888889
vt 0.571429 0.777778
vt 0.714286 0.777778
vt 0.714286 0.888889
vt 0.285714 0.777778
vt 0.285714 0.666667
vt 0.428571 0.666667
vt 0.428571 0.777778
vt 0.285714 0.777778
vt 0.285714 0.666667
vt 0.428571 0.666667
vt 0.428571 0.777778
vt 0.428571 0.777778
vt 0.428571 0.666667
vt 0.285714 0.666667
vt 0.285714 0.777778
vt 0.428571 0.777778
vt 0.285714 0.777778
vt 0.285714 0.666667
vt 0.428571 0.666667
vt 0.285714 0.777778
vt 0.285714 0.666667
vt 0.428571 0.666667
vt 0.428571 0.777778
vt 0.428571 0.777778
vt 0.428571 0.666667
vt 0.285714 0.666667
vt 0.285714 0.777778
vt 0.428571 0.777778
vt 0.285714 0.777778
vt 0.285714 0.666667
vt 0.428571 0.666667
vt 0.571429 0.888889
vt 0.571429 0.777778
vt 0.714286 0.777778
vt 0.714286 0.888889
vt 0.285714 0.777778
vt 0.285714 0.666667
vt 0.428571 0.666667
vt 0.428571 0.777778
vt 0.714286 0.888889
vt 0.571429 0.888889
vt 0.571429 0.777778
vt 0.714286 0.777778
vt 0.714286 0.888889
vt 0.714286 0.777778
vt 0.571429 0.777778
vt 0.571429 0.888889
vt 0.285714 0.777778
vt 0.285714 0.666667
vt 0.428571 0.666667
vt 0.428571 0.777778
vt 0.428571 0.777778
vt 0.428571 0.666667
vt 0.285714 0.666667
vt 0.285714 0.777778
vt 0.428571 0.777778
vt 0.285714 0.777778
vt 0.285714 0.666667
vt 0.428571 0.666667
vt 0.285714 0.777778
vt 0.285714 0.666667
vt 0.428571 0.666667
vt 0.428571 0.777778
vt 0.285714 0.777778
vt 0.285714 0.666667
vt 0.428571 0.666667
vt 0.428571 0.777778
vt 0.571429 0.777778
vt 0.714286 0.777778
vt 0.714286 0.888889
vt 0.571429 0.888889
vt 0.285714 0.777778
vt 0.285714 0.666667
vt 0.428571 0.666667
vt 0.428571 0.777778
vt 0.714286 0.888889
vt 0.571429 0.888889
vt 0.571429 0.777778
vt 0.714286 0.777778
vt 0.714286 0.888889
vt 0.714286 0.777778
vt 0.571429 0.777778
vt 0.571429 0.888889
vt 0.285714 0.777778
vt 0.285714 0.666667
vt 0.428571 0.666667
vt 0.428571 0.777778
vt 0.285714 0.777778
vt 0.285714 0.666667
vt 0.428571 0.666667
vt 0.428571 0.777778
vt 0.285714 0.777778
vt 0.285714 0.666667
vt 0.428571 0.666667
vt 0.428571 0.777778
vt 0.285714 0.777778
vt 0.285714 0.666667
vt 0.428571 0.666667
vt 0.428571 0.777778
vt 0.285714 0.777778
vt 0.285714 0.666667
vt 0.428571 0.666667
vt 0.428571 0.777778
vt 0.714286 0.888889
vt 0.571429 0.888889
vt 0.571429 0.777778
vt 0.714286 0.777778
vt 0.714286 0.888889
vt 0.714286 0.777778
vt 0.571429 0.777778
vt 0.571429 0.888889
vn 0.0000 1.0000 0.0000
vn 0.0000 -0.0000 1.0000
vn -1.0000 0.0000 0.0000
vn 1.0000 0.0000 0.0000
usemtl None.001
s 1
f 1/1/1 2/2/1 3/3/1 4/4/1
f 3/5/2 2/6/2 5/7/2 6/8/2
f 7/9/1 8/10/1 9/11/1 10/12/1
f 8/13/3 7/14/3 11/15/3 12/16/3
f 13/17/1 14/18/1 15/19/1 16/20/1
f 16/21/4 15/22/4 17/23/4 18/24/4
f 19/25/3 20/26/3 21/27/3 22/28/3
f 23/29/4 24/30/4 25/31/4 26/32/4
f 27/33/4 28/34/4 29/35/4 30/36/4
f 31/37/3 32/38/3 33/39/3 34/40/3
f 35/41/1 36/42/1 37/43/1 38/44/1
f 38/45/4 37/46/4 39/47/4 40/48/4
f 41/49/3 42/50/3 43/51/3 44/52/3
f 45/53/3 46/54/3 47/55/3 48/56/3
f 49/57/3 50/58/3 51/59/3 52/60/3
f 53/61/3 54/62/3 55/63/3 56/64/3
f 57/65/1 58/66/1 59/67/1 60/68/1
f 61/69/1 62/70/1 63/71/1 64/72/1
f 65/73/1 66/74/1 67/75/1 68/76/1
f 69/77/4 70/78/4 71/79/4 72/80/4
f 73/81/4 74/82/4 75/83/4 76/84/4
f 77/85/4 78/86/4 79/87/4 80/88/4
f 81/89/1 82/90/1 83/91/1 84/92/1
f 85/93/2 86/94/2 87/95/2 88/96/2
f 89/97/1 90/98/1 91/99/1 92/100/1
f 93/101/1 94/102/1 95/103/1 96/104/1
f 97/105/4 98/106/4 99/107/4 100/108/4
f 101/109/3 102/110/3 103/111/3 104/112/3
f 105/113/1 106/114/1 107/115/1 108/116/1
f 109/117/4 110/118/4 111/119/4 112/120/4
f 113/121/3 114/122/3 115/123/3 116/124/3
f 117/125/2 118/126/2 119/127/2 120/128/2
f 121/129/2 122/130/2 123/131/2 124/132/2
f 125/133/2 126/134/2 127/135/2 128/136/2
f 129/137/2 130/138/2 131/139/2 132/140/2
f 133/141/4 134/142/4 135/143/4 136/144/4
f 137/145/3 138/146/3 139/147/3 140/148/3
f 141/149/2 142/150/2 143/151/2 144/152/2
f 145/153/1 146/154/1 147/155/1 148/156/1
f 149/157/1 150/158/1 151/159/1 152/160/1
f 153/161/3 154/162/3 155/163/3 156/164/3
f 157/165/4 158/166/4 159/167/4 160/168/4
f 161/169/2 162/170/2 163/171/2 164/172/2
f 165/173/3 166/174/3 167/175/3 168/176/3
f 169/177/4 170/178/4 171/179/4 172/180/4
f 173/181/2 174/182/2 175/183/2 176/184/2
f 177/185/1 178/186/1 179/187/1 180/188/1
f 181/189/4 182/190/4 183/191/4 184/192/4
f 185/193/3 186/194/3 187/195/3 188/196/3
f 189/197/1 190/198/1 191/199/1 192/200/1
f 193/201/3 194/202/3 195/203/3 196/204/3
f 197/205/4 198/206/4 199/207/4 200/208/4
f 201/209/1 202/210/1 203/211/1 204/212/1
f 205/213/1 206/214/1 207/215/1 208/216/1
f 209/217/2 210/218/2 211/219/2 212/220/2
f 213/221/1 214/222/1 215/223/1 216/224/1
f 217/225/4 218/226/4 219/227/4 220/228/4
f 221/229/3 222/230/3 223/231/3 224/232/3
f 225/233/1 226/234/1 227/235/1 228/236/1
f 229/237/1 230/238/1 231/239/1 232/240/1
f 233/241/1 234/242/1 235/243/1 236/244/1
f 237/245/1 238/246/1 239/247/1 240/248/1
f 241/249/1 242/250/1 243/251/1 244/252/1
f 245/253/4 246/254/4 247/255/4 248/256/4
f 249/257/3 250/258/3 251/259/3 252/260/3
