# Blender v2.79 (sub 0) OBJ File: ''
# www.blender.org
o Cube.002_Cube.001
v 42.500000 1.000007 -0.499998
v 41.500000 1.000007 0.500002
v 41.500000 0.000007 0.500002
v 42.500000 0.000007 -0.499998
v 44.500000 1.000007 0.500002
v 43.500000 1.000007 -0.499998
v 43.500000 0.000007 -0.499998
v 44.500000 0.000007 0.500002
v 48.500000 1.000008 -0.499998
v 47.500000 1.000008 -0.499998
v 47.500000 0.000008 0.500002
v 48.500000 0.000008 0.500002
vt 0.375000 1.000000
vt 0.250000 1.000000
vt 0.250000 0.888889
vt 0.375000 0.888889
vt 0.125000 0.666667
vt -0.000000 0.666667
vt -0.000000 0.555556
vt 0.125000 0.555556
vt 0.125000 0.666667
vt -0.000000 0.666667
vt -0.000000 0.555556
vt 0.125000 0.555556
vn 0.7071 0.0000 0.7071
vn -0.7071 0.0000 0.7071
vn 0.0000 0.7071 0.7071
s 1
f 1/1/1 2/2/1 3/3/1 4/4/1
f 5/5/2 6/6/2 7/7/2 8/8/2
f 9/9/3 10/10/3 11/11/3 12/12/3
